<svg id="图层_1" data-name="图层 1" xmlns="http://www.w3.org/2000/svg" viewBox="0 0 96 84.48"><defs><style>.cls-1{fill:#cc7d5b;}.cls-2{fill:#a5451e;}</style></defs><title>画板 1</title><path class="cls-1" d="M6.89,38.86l-1-.08a42.24,42.24,0,0,1,84.2,0l-1,.08a41.25,41.25,0,0,0-82.22,0Z"/><path class="cls-1" d="M48,84.48A42.37,42.37,0,0,1,9.56,59.79l.9-.41a41.26,41.26,0,0,0,75.07,0l.9.41A42.37,42.37,0,0,1,48,84.48Z"/><polygon class="cls-1" points="80.19 60.03 79.32 59.55 79.42 59.38 79.88 59.58 80.29 59.85 80.19 60.03"/><path class="cls-1" d="M74.41,67.83l-.71-.69c.42-.43.83-.88,1.22-1.33l.75.65C75.26,66.93,74.83,67.39,74.41,67.83ZM76,66.12l-.75-.65a36,36,0,0,0,3.2-4.37l.84.53A37,37,0,0,1,76,66.12Z"/><path class="cls-1" d="M48.25,79V78a36.18,36.18,0,0,0,5.39-.44l.15,1A37.34,37.34,0,0,1,48.25,79Zm-.46,0c-.62,0-1.24,0-1.85-.06L46,78c.6,0,1.2.05,1.8.06Zm-7.37-.78-.45-.1.22-1,.44.1Zm15.2,0-.21-1,.44-.1.22,1Zm-17.45-.54a36.63,36.63,0,0,1-5.23-1.89l.41-.91a35.67,35.67,0,0,0,5.09,1.84Zm23.22-1.18L61,75.58c.56-.22,1.12-.46,1.66-.7l.41.91C62.53,76,62,76.28,61.38,76.51Zm-28.87-.9c-.56-.26-1.11-.54-1.66-.82l.46-.88c.53.28,1.08.55,1.62.8Zm31,0-.42-.9A35.86,35.86,0,0,0,67.81,72l.55.83A36.75,36.75,0,0,1,63.51,75.59ZM26.14,71.82l-.37-.28.6-.79.36.27Zm43.74,0-.59-.8.36-.27.6.79ZM24.32,70.38a37,37,0,0,1-4-3.89l.75-.65A36.07,36.07,0,0,0,25,69.62ZM20,66.14c-.4-.47-.79-1-1.17-1.44l.79-.61c.36.47.75.94,1.14,1.4Z"/><polygon class="cls-1" points="15.81 60.03 15.69 59.82 16.56 59.34 16.68 59.55 15.81 60.03"/><polygon class="cls-1" points="12.38 38.87 11.39 38.77 11.41 38.52 12.4 38.63 12.38 38.87"/><path class="cls-1" d="M12.67,36.57l-1-.16a36.62,36.62,0,0,1,1.55-6.19l.94.33A35.56,35.56,0,0,0,12.67,36.57Zm1.68-6.51-.94-.34c.24-.67.51-1.33.78-2l.91.39C14.84,28.76,14.58,29.41,14.35,30.06Z"/><path class="cls-1" d="M82.43,32.48c-.19-.66-.4-1.33-.62-2l.94-.33c.23.66.44,1.35.64,2ZM81.64,30A35.74,35.74,0,0,0,79,24.39l.86-.5a36.63,36.63,0,0,1,2.69,5.78ZM18,22.66l-.83-.55.3-.44.82.56Zm59.89,0-.29-.43.82-.56.29.44ZM19.54,20.55l-.79-.6A37.07,37.07,0,0,1,23,15.23l.67.73A35.87,35.87,0,0,0,19.54,20.55Zm54.19-3.17c-.48-.5-1-1-1.48-1.45l.67-.73c.52.48,1,1,1.52,1.49ZM24.11,15.61l-.66-.74c.53-.47,1.07-.94,1.62-1.38l.62.78C25.15,14.69,24.62,15.15,24.11,15.61Zm47.76,0a36,36,0,0,0-5-3.73l.53-.84a37,37,0,0,1,5.1,3.83Zm-41-4.76L30.38,10l.47-.25.47.88Zm34.26,0-.46-.24.46-.88.47.25ZM33.17,9.67l-.41-.9a36.69,36.69,0,0,1,6-2.13l.25,1A35.75,35.75,0,0,0,33.17,9.67ZM58.94,8.16c-.65-.21-1.32-.4-2-.57l.25-1c.69.18,1.37.38,2,.59ZM39.52,7.47l-.24-1c.68-.17,1.38-.32,2.08-.44l.18,1C40.86,7.16,40.18,7.31,39.52,7.47Zm16.93,0a35.85,35.85,0,0,0-6.14-.93l.06-1a36.86,36.86,0,0,1,6.31,1Zm-8.72-1v-1h.53v1h-.52Z"/><polygon class="cls-1" points="83.62 38.87 83.6 38.63 84.59 38.52 84.61 38.77 83.62 38.87"/><path class="cls-1" d="M48,72.06c-.53,0-1.06,0-1.59,0l.06-1a27.52,27.52,0,0,0,2.93,0l0,1C49,72,48.48,72.06,48,72.06ZM50.45,72l-.09-1,1-.1.12,1Zm-5.05,0-1-.11.13-1,1,.11Zm9-.63-.23-1,.94-.24.26,1Zm-13,0-1-.26.27-1,.94.25Zm15-.5-.3-.95a26.82,26.82,0,0,0,2.74-1l.4.91A27.93,27.93,0,0,1,56.4,70.77Zm-16.94,0a27.8,27.8,0,0,1-2.83-1.09l.41-.91a26.69,26.69,0,0,0,2.73,1Zm20.69-1.45-.44-.89.87-.44.47.88Zm-24.44-.07-.9-.46.47-.87.87.45Zm27.94-2-.56-.82.8-.56.59.8Zm-31.43-.09-.82-.59.59-.8.79.57Z"/><path class="cls-1" d="M68.6,62.2a30.05,30.05,0,0,1-9.48,2.17l4.43,2.37,1.89,4.66A30,30,0,0,1,68.6,62.2Z"/><polygon class="cls-1" points="35.74 64.88 32.08 66.48 30.68 70.23 26.87 61.57 35.74 64.88"/><path class="cls-1" d="M53,29.48l-4.85-2.55-4.85,2.55.93-5.41-3.93-3.83,5.43-.79,2.43-4.92,2.43,4.92,5.43.79-3.93,3.83Zm-4.85-3.67,3.53,1.86L51,23.73l2.86-2.79-4-.57-1.77-3.58-1.77,3.58-4,.57,2.86,2.79-.67,3.93Z"/><path class="cls-1" d="M67.81,33.05l-3.25-1.71L61.3,33.05l.62-3.62-2.63-2.57,3.64-.53L64.55,23l1.63,3.3,3.64.53-2.63,2.57Zm-3.25-2.83,1.93,1-.37-2.15,1.56-1.52-2.16-.31-1-2-1,2-2.16.31L63,29.08l-.37,2.15Z"/><path class="cls-1" d="M35.08,33.05l-3.25-1.71-3.25,1.71.62-3.62-2.63-2.57,3.64-.53L31.82,23l1.63,3.3,3.64.53-2.63,2.57Zm-3.25-2.83,1.93,1-.37-2.15L35,27.56l-2.16-.31-1-2-1,2-2.16.31,1.56,1.52-.37,2.15Z"/><path class="cls-1" d="M96,60.07H0L5.21,49.2,0,38.32H96L90.79,49.2Zm-94.42-1H94.42L89.69,49.2l4.73-9.88H1.58L6.31,49.2Z"/><path class="cls-2" d="M27.07,53.51v2.62H25.46V53.8c-1.36.24-2.66.46-3.74.63l-.32-1.56.92-.11V45.19h-.76V43.72h6.33v1.47h-.81v6.89l1.07-.15.08,1.38ZM23.9,45.19v1.42h1.56V45.19Zm0,4.34h1.56V48H23.9Zm1.56,2.78V50.94H23.9v1.6ZM34,44.81a20.32,20.32,0,0,1-2,7.47,7.58,7.58,0,0,0,2.46,2.51,5.89,5.89,0,0,0-1.13,1.28,9,9,0,0,1-2.27-2.32,10,10,0,0,1-2.52,2.44,5.58,5.58,0,0,0-1-1.24,8.49,8.49,0,0,0,2.67-2.73,23.18,23.18,0,0,1-1.74-6.05H28V44.61h4.73l.28-.06Zm-4.11,1.35a21.5,21.5,0,0,0,1.18,4.31,18,18,0,0,0,1.2-4.31Z"/><path class="cls-2" d="M37.72,49.82a11.63,11.63,0,0,0-2.49-1.71l.93-1.17a11.74,11.74,0,0,1,2.55,1.59ZM35.6,55A37.92,37.92,0,0,0,38,50.59l1.22,1c-.64,1.49-1.41,3.09-2.16,4.49Zm1.22-11.75a10.11,10.11,0,0,1,2.49,1.59l-1,1.28a11,11,0,0,0-2.42-1.71Zm4,3.48a9.65,9.65,0,0,0-1.25-2.58L41,43.57a9.51,9.51,0,0,1,1.36,2.51Zm6.64,7.58c0,.81-.14,1.24-.67,1.49a5.46,5.46,0,0,1-2.31.28,5.48,5.48,0,0,0-.5-1.56c.64,0,1.36,0,1.59,0s.28-.08.28-.26v-.92H41.64v2.71H40V47h3V43.16h1.67V47h2.84Zm-5.83-5.78v1h4.22v-1ZM45.86,52V51H41.64v1Zm2.23-8a21.17,21.17,0,0,1-1.41,2.62l-1.43-.53a16,16,0,0,0,1.22-2.66Z"/><path class="cls-2" d="M61,49.29a9.35,9.35,0,0,1-2.59,4.12,12.63,12.63,0,0,0,3.91,1.27,6.56,6.56,0,0,0-1,1.5A12.08,12.08,0,0,1,57,54.49a14.09,14.09,0,0,1-4.08,1.7A6.69,6.69,0,0,0,52,54.72a12.41,12.41,0,0,0,3.59-1.34,9.1,9.1,0,0,1-1.5-1.89,10.85,10.85,0,0,1-3.9,3.6A6,6,0,0,0,49,53.76a10.15,10.15,0,0,0,4.86-6.08H52.07c-.75,0-1.34.11-1.46.32a14.33,14.33,0,0,0-.54-1.5,1.21,1.21,0,0,0,.6-.57,10.57,10.57,0,0,0,1-2.46l1.75.28a13.41,13.41,0,0,1-1,2.35h1.92a27,27,0,0,0,.53-3l1.85.31c-.12.95-.28,1.87-.46,2.73h5.58v1.59h-6c-.12.4-.25.76-.39,1.14h4.06l.31-.07ZM55.2,50.42a8.42,8.42,0,0,0,1.75,2,7.53,7.53,0,0,0,1.67-2ZM59.61,46c-.35-.51-1.07-1.38-1.61-2l1.28-.77c.54.58,1.29,1.39,1.67,1.91Z"/><path class="cls-2" d="M68.36,46.72a16.9,16.9,0,0,1-1.13,2.1h2.24v-1.6h1.67v1.6h4v4.31c0,.76-.15,1.18-.71,1.43a6.19,6.19,0,0,1-2.32.25,5.83,5.83,0,0,0-.51-1.5c.64,0,1.38,0,1.57,0s.29-.06.29-.24V50.4H71.15v5.75H69.48V50.4h-2.2v4.52H65.62v-4a11.72,11.72,0,0,1-1.77,1.53A10.84,10.84,0,0,0,62.92,51a10.8,10.8,0,0,0,3.59-4.24H63.41V45.13h3.81a14.62,14.62,0,0,0,.63-2l1.71.39q-.25.81-.54,1.63h6.79v1.59H68.36Z"/></svg>