<svg id="图层_1" data-name="图层 1" xmlns="http://www.w3.org/2000/svg" viewBox="0 0 96 84.48"><defs><style>.cls-1{fill:#197fe8;}.cls-2{fill:#4f96e9;}.cls-3{fill:#2170c2;}</style></defs><title>画板 1</title><path class="cls-1" d="M6.89,38.86l-1-.08a42.24,42.24,0,0,1,84.2,0l-1,.08a41.25,41.25,0,0,0-82.22,0Z"/><path class="cls-1" d="M48,84.48A42.37,42.37,0,0,1,9.56,59.79l.9-.41a41.26,41.26,0,0,0,75.07,0l.9.41A42.37,42.37,0,0,1,48,84.48Z"/><rect class="cls-1" x="79.69" y="59.19" width="0.25" height="0.99" transform="translate(-11.06 100.61) rotate(-61.03)"/><path class="cls-1" d="M74.41,67.84l-.71-.69c.42-.43.83-.88,1.22-1.33l.75.65C75.26,66.93,74.84,67.39,74.41,67.84ZM76,66.12l-.75-.64a36,36,0,0,0,3.2-4.37l.84.53A37,37,0,0,1,76,66.12Z"/><path class="cls-1" d="M47.78,79c-.61,0-1.24,0-1.85-.06L46,78c.6,0,1.21.05,1.8.06Zm.46,0V78a36.18,36.18,0,0,0,5.39-.44l.15,1A36.94,36.94,0,0,1,48.25,79Zm-7.83-.78-.45-.1.22-1,.44.1Zm15.19,0-.2-1,.44-.1.22,1Zm-17.45-.54a36.59,36.59,0,0,1-5.23-1.89l.41-.91a35.45,35.45,0,0,0,5.09,1.84Zm23.22-1.18L61,75.58c.56-.22,1.12-.45,1.66-.7l.41.91C62.53,76,62,76.28,61.38,76.51Zm-28.87-.9c-.56-.26-1.12-.54-1.66-.83l.47-.88c.53.28,1.07.55,1.62.8Zm31,0-.42-.9A36,36,0,0,0,67.81,72l.55.83A36.86,36.86,0,0,1,63.51,75.59ZM26.14,71.82l-.37-.28.6-.79.36.27Zm43.74,0-.59-.8.36-.27.6.79ZM24.32,70.38a37.12,37.12,0,0,1-4-3.89l.75-.65A36,36,0,0,0,25,69.62ZM20,66.14c-.4-.47-.8-1-1.17-1.44l.79-.61c.36.47.75.94,1.14,1.4Z"/><polygon class="cls-1" points="15.81 60.03 15.69 59.82 16.56 59.34 16.68 59.55 15.81 60.03"/><polygon class="cls-1" points="12.38 38.87 11.39 38.77 11.41 38.52 12.4 38.63 12.38 38.87"/><path class="cls-1" d="M12.67,36.57l-1-.16a36.62,36.62,0,0,1,1.55-6.19l.94.33A35.51,35.51,0,0,0,12.67,36.57Zm1.68-6.51-.94-.34c.24-.66.51-1.33.78-2l.91.39C14.84,28.76,14.58,29.41,14.35,30.06Z"/><path class="cls-1" d="M82.43,32.48c-.19-.66-.4-1.33-.62-2l.94-.33c.23.66.45,1.35.64,2ZM81.64,30A35.69,35.69,0,0,0,79,24.4l.86-.5a36.62,36.62,0,0,1,2.69,5.78ZM18,22.66l-.83-.55.3-.44.82.56Zm59.89,0-.29-.43.82-.56.29.44ZM19.54,20.55l-.79-.6A37.15,37.15,0,0,1,23,15.23l.67.73A36,36,0,0,0,19.54,20.55Zm54.19-3.16c-.48-.5-1-1-1.48-1.45l.67-.73c.52.48,1,1,1.52,1.49ZM24.11,15.61l-.66-.74c.53-.47,1.07-.94,1.62-1.38l.62.78C25.15,14.7,24.62,15.15,24.11,15.61Zm47.76,0a36,36,0,0,0-5-3.73l.53-.84a37.07,37.07,0,0,1,5.1,3.83Zm-41-4.76L30.38,10l.47-.25.46.88Zm34.26,0-.46-.25.46-.88.47.25ZM33.17,9.67l-.41-.9a36.6,36.6,0,0,1,6-2.13l.25,1A35.59,35.59,0,0,0,33.17,9.67ZM58.94,8.16c-.66-.21-1.33-.4-2-.57l.25-1c.68.18,1.37.38,2,.59ZM39.52,7.47l-.24-1c.68-.17,1.38-.31,2.08-.44l.18,1C40.86,7.17,40.18,7.31,39.52,7.47Zm16.93,0a35.85,35.85,0,0,0-6.14-.93l.06-1a36.86,36.86,0,0,1,6.31,1Zm-8.2-1h-.52v-1h.53Z"/><polygon class="cls-1" points="83.62 38.87 83.6 38.63 84.59 38.52 84.61 38.77 83.62 38.87"/><path class="cls-2" d="M48,72.06c-.54,0-1.08,0-1.62,0l.06-1c.51,0,1,0,1.53,0s.93,0,1.39,0l.05,1C49,72,48.5,72.06,48,72.06ZM50.45,72l-.08-1,1-.1.12,1Zm-5.05,0-1-.11.13-1,1,.11Zm9-.63-.23-1,.94-.24.26,1Zm-13,0-1-.26.27-1,.94.25Zm15-.5-.3-.95a27.06,27.06,0,0,0,2.74-1l.4.91A27.93,27.93,0,0,1,56.4,70.77Zm-16.93,0a27.84,27.84,0,0,1-2.83-1.09l.41-.91a26.63,26.63,0,0,0,2.73,1Zm20.69-1.45-.44-.89.87-.44.47.88Zm-24.44-.07-.9-.46.47-.87.87.45Zm27.94-2-.56-.82.8-.56.59.8Zm-31.43-.09-.82-.59.59-.8.79.57Z"/><path class="cls-2" d="M68.6,62.2a30.05,30.05,0,0,1-9.48,2.17l4.43,2.37,1.89,4.66A30,30,0,0,1,68.6,62.2Z"/><polygon class="cls-2" points="35.74 64.88 32.08 66.48 30.68 70.23 26.87 61.57 35.74 64.88"/><path class="cls-2" d="M53,29.48l-4.85-2.55-4.85,2.55.93-5.41-3.93-3.83,5.43-.79,2.43-4.92,2.43,4.92,5.43.79-3.93,3.83ZM42.47,20.94l2.86,2.79-.67,3.94,3.53-1.86,3.53,1.86L51,23.73l2.86-2.79-4-.57-1.77-3.58-1.77,3.58Z"/><path class="cls-2" d="M67.81,33.05l-3.25-1.71L61.3,33.05l.62-3.62-2.63-2.57,3.64-.53L64.55,23l1.63,3.3,3.64.53-2.63,2.57Zm-6.38-5.5L63,29.08l-.37,2.15,1.93-1,1.93,1-.37-2.15,1.56-1.52-2.16-.31-1-2-1,2Z"/><path class="cls-2" d="M35.08,33.05l-3.25-1.71-3.25,1.71.62-3.62-2.63-2.57,3.64-.53L31.82,23l1.63,3.3,3.64.53-2.63,2.57Zm-3.25-2.83,1.93,1-.37-2.15L35,27.56l-2.16-.31-1-2-1,2-2.16.31,1.56,1.52-.37,2.15Z"/><path class="cls-1" d="M96,60.07H0L5.21,49.2,0,38.32H96L90.79,49.2Zm-94.42-1H94.42L89.69,49.2l4.73-9.88H1.58L6.31,49.2Z"/><path class="cls-3" d="M35.6,50.08a13.58,13.58,0,0,0,5,3.83,8,8,0,0,0-1.2,1.43,14.68,14.68,0,0,1-4.52-3.83v4.42H33.07V51.59a15.27,15.27,0,0,1-4.52,3.73,8.41,8.41,0,0,0-1.22-1.43,13.48,13.48,0,0,0,5-3.81H27.8V48.43h5.27V46.65H28.84V45h4.23V42.94h1.77V45h4.35v1.64H34.84v1.78h5.36v1.64H35.6Z"/><path class="cls-3" d="M44.42,50.74V54c0,.76-.12,1.17-.54,1.42a3.43,3.43,0,0,1-1.92.32,5.45,5.45,0,0,0-.43-1.52c.51,0,1,0,1.15,0s.24-.06.24-.24V51.19l-1.28.36L41.27,50c.47-.1,1-.25,1.66-.4V47.08h-1.5V45.55h1.5V42.92h1.5v2.63h1.39v1.53H44.42v2.06l1.25-.33.22,1.49Zm6.33,3.51c.32,0,.63,0,1,0s2.2,0,2.8,0a4.86,4.86,0,0,0-.44,1.45H51.66c-1.82,0-3.23-.33-4.17-2A6.15,6.15,0,0,1,46,55.89a8.51,8.51,0,0,0-1.21-1,6.2,6.2,0,0,0,1.93-4.35l1.5.18a12.8,12.8,0,0,1-.26,1.4,3.13,3.13,0,0,0,1.21,1.63V50.13H45.93V48.8h8.22v1.34h-3.4v1.22h2.66v1.29H50.76v1.6Zm2.7-6.1H46.61v-4.8h6.85Zm-1.59-3.65H48.13v.7h3.74Zm0,1.77H48.13V47h3.74Z"/><path class="cls-3" d="M65.28,49.3a10.16,10.16,0,0,1-2.2,3.27,12.45,12.45,0,0,0,5.05,1.78,6.22,6.22,0,0,0-1,1.49,12.56,12.56,0,0,1-5.34-2.18,15.51,15.51,0,0,1-5.31,2.25,9.54,9.54,0,0,0-1-1.47,13.94,13.94,0,0,0,5.09-1.89,11.15,11.15,0,0,1-2-3.2L60,48.88a8,8,0,0,0,1.78,2.67,7.16,7.16,0,0,0,1.81-2.74ZM60.58,47a14.76,14.76,0,0,1-3.69,3.24,12.14,12.14,0,0,0-1.31-1.21A11.08,11.08,0,0,0,59,46.42Zm7.31-.74H55.68V44.68h5.43a11.6,11.6,0,0,0-.71-1.38L62,42.74a11.14,11.14,0,0,1,1,1.92h4.88v1.61Zm-3.47,0A21.89,21.89,0,0,1,68,49.27l-1.42,1.07a21.06,21.06,0,0,0-3.47-3.08Z"/></svg>