<?xml version="1.0" encoding="utf-8"?>
<!-- Generator: Adobe Illustrator 19.0.0, SVG Export Plug-In . SVG Version: 6.00 Build 0)  -->
<svg version="1.1" id="图层_1" xmlns="http://www.w3.org/2000/svg" xmlns:xlink="http://www.w3.org/1999/xlink" x="0px" y="0px"
	 viewBox="0 0 48 50" style="enable-background:new 0 0 48 50;" xml:space="preserve">
<style type="text/css">
	.st0{fill:#D3D3D3;}
</style>
<g>
	<path class="st0" d="M24.1,47.2c-5.6,0-10.9-2.2-14.9-6.2c-4-4-6.2-9.3-6.2-14.9c0-5.6,2.2-10.9,6.2-14.9c4-4,9.3-6.2,14.9-6.2
		s10.9,2.2,14.9,6.2c4,4,6.2,9.3,6.2,14.9c0,5.6-2.2,10.9-6.2,14.9C35.1,45.1,29.8,47.2,24.1,47.2L24.1,47.2z M24.1,7.2
		c-10.4,0-18.9,8.5-18.9,18.9C5.2,36.5,13.7,45,24.1,45C34.5,45,43,36.5,43,26.1C43,15.7,34.5,7.2,24.1,7.2L24.1,7.2z M24.1,7.2"/>
	<path class="st0" d="M17.4,20.6c-1.8,0-3.3-1.5-3.3-3.3c0-1.8,1.5-3.3,3.3-3.3c1.8,0,3.3,1.5,3.3,3.3
		C20.8,19.1,19.3,20.6,17.4,20.6L17.4,20.6z M17.4,16.1c-0.6,0-1.1,0.5-1.1,1.1c0,0.6,0.5,1.1,1.1,1.1c0.6,0,1.1-0.5,1.1-1.1
		C18.6,16.6,18.1,16.1,17.4,16.1L17.4,16.1z M17.4,16.1"/>
	<path class="st0" d="M30.8,20.6c-1.8,0-3.3-1.5-3.3-3.3c0-1.8,1.5-3.3,3.3-3.3s3.3,1.5,3.3,3.3C34.1,19.1,32.6,20.6,30.8,20.6
		L30.8,20.6z M30.8,16.1c-0.6,0-1.1,0.5-1.1,1.1c0,0.6,0.5,1.1,1.1,1.1s1.1-0.5,1.1-1.1C31.9,16.6,31.4,16.1,30.8,16.1L30.8,16.1z
		 M30.8,16.1"/>
	<path class="st0" d="M15.2,36.1c-0.2,0-0.5-0.1-0.7-0.2c-0.5-0.4-0.6-1.1-0.2-1.6c1.1-1.5,2.6-2.7,4.2-3.6c1.7-0.9,3.6-1.3,5.6-1.3
		c2,0,3.8,0.4,5.6,1.3c1.7,0.8,3.1,2.1,4.2,3.6c0.4,0.5,0.3,1.2-0.2,1.6c-0.5,0.4-1.2,0.3-1.6-0.2c-1.9-2.5-4.8-4-8-4s-6.1,1.5-8,4
		C15.9,36,15.6,36.1,15.2,36.1L15.2,36.1z M15.2,36.1"/>
</g>
</svg>
