<svg xmlns="http://www.w3.org/2000/svg" xmlns:xlink="http://www.w3.org/1999/xlink" preserveAspectRatio="xMidYMid" width="79" height="87" viewBox="0 0 79 87">
  <defs>
    <style>
      .cls-1 {
        fill: #fff;
        stroke: #c0daf1;
        stroke-width: 1px;
      }

      .cls-2 {
        fill: #c0daf1;
        fill-rule: evenodd;
      }
    </style>
  </defs>
  <g>
    <rect x="0.5" y="0.5" width="78" height="86" rx="6" ry="6" class="cls-1"/>
    <path d="M39.259,49.931 L45.997,42.825 C46.222,42.588 46.536,42.454 46.863,42.456 C47.438,42.456 60.978,42.854 65.013,67.620 C65.118,68.265 64.680,68.873 64.035,68.978 C63.972,68.988 63.909,68.993 63.845,68.993 L63.848,68.998 L14.186,68.998 C13.533,69.000 13.002,68.472 13.000,67.818 C13.000,67.789 13.001,67.761 13.003,67.732 C14.668,44.024 31.156,42.479 31.322,42.464 C31.486,42.451 31.647,42.479 31.798,42.532 C27.620,40.138 24.805,35.749 24.805,30.728 C24.805,23.159 31.179,17.000 39.017,17.000 C46.855,17.000 53.231,23.159 53.231,30.728 C53.231,38.296 46.855,44.455 39.017,44.455 C36.478,44.455 34.098,43.801 32.033,42.670 C32.107,42.717 32.190,42.748 32.253,42.812 L39.259,49.931 Z" class="cls-2"/>
  </g>
</svg>
