<?xml version="1.0" encoding="UTF-8"?>
<svg width="82px" height="82px" viewBox="0 0 82 82" version="1.1" xmlns="http://www.w3.org/2000/svg" xmlns:xlink="http://www.w3.org/1999/xlink">
    <!-- Generator: Sketch 62 (91390) - https://sketch.com -->
    <title>编组</title>
    <desc>Created with Sketch.</desc>
    <g id="页面-1" stroke="none" stroke-width="1" fill="none" fill-rule="evenodd">
        <g id="编组" fill-rule="nonzero">
            <g id="pic_zp-01" fill="#2BA1F3">
                <circle id="椭圆形" cx="41" cy="41" r="41"></circle>
            </g>
            <g id="pic20200713" transform="translate(20.000000, 19.000000)" fill="#FFFFFF">
                <g id="_编组_">
                    <path d="M15.5721739,44 L3.82608696,44 C1.71299748,44 0,42.2870025 0,40.173913 L0,3.82608696 C0,1.71299748 1.71299748,0 3.82608696,0 L35.5921739,0 C37.7052634,0 39.4182609,1.71299748 39.4182609,3.82608696 L39.4182609,23.3773913 C39.4182609,23.9034783 38.5095652,24.333913 37.9834783,24.333913 C37.4573913,24.333913 36.5486957,23.9034783 36.5486957,23.3773913 L36.5486957,4.7826087 C36.5486957,3.72606396 35.6921969,2.86956522 34.6356522,2.86956522 L4.7826087,2.86956522 C3.72606396,2.86956522 2.86956522,3.72606396 2.86956522,4.7826087 L2.86956522,39.2173913 C2.86956522,40.273936 3.72606396,41.1304348 4.7826087,41.1304348 L15.5721739,41.1304348 C16.0982609,41.1304348 16.5286957,42.0391304 16.5286957,42.5652174 C16.5286957,43.0913043 16.0982609,44 15.5721739,44 Z" id="路径"></path>
                </g>
                <path d="M30.2930435,34.1286957 C28.1747424,34.1753484 26.2389344,32.935237 25.3957645,30.9914158 C24.5525947,29.0475947 24.9698214,26.7868092 26.45128,25.2719969 C27.9327386,23.7571846 30.1836761,23.2897347 32.1457851,24.0894248 C34.1078942,24.8891149 35.3907907,26.7968375 35.3913043,28.9156522 C35.4126366,31.7588709 33.1360326,34.0867306 30.2930435,34.1286957 L30.2930435,34.1286957 Z M30.2930435,25.6156522 C28.9488595,25.5688699 27.7107844,26.3425513 27.1636466,27.5712333 C26.6165088,28.7999152 26.869803,30.2377104 27.8038809,31.2054488 C28.7379588,32.1731872 30.1658901,32.4772022 31.4131642,31.9738866 C32.6604382,31.470571 33.477447,30.2606498 33.4782609,28.9156522 C33.4997106,27.128859 32.0794766,25.6574454 30.2930435,25.6156522 L30.2930435,25.6156522 Z" id="形状"></path>
                <path d="M40.0686957,44 L20.6608696,44 C20.1678036,44.0024709 19.7536489,43.6297317 19.7043478,43.1391304 C19.6910596,42.8746596 19.6910596,42.6096883 19.7043478,42.3452174 C19.7043478,37.2565217 24.4869565,33.1147826 30.4078261,33.1147826 C36.3286957,33.1147826 41.0634783,37.3043478 41.0634783,42.3452174 C41.0634783,42.6130435 41.0634783,42.8713043 41.0634783,43.1295652 C41.0179399,43.6390129 40.5796799,44.0224904 40.0686957,44 Z M21.5791304,41.1304348 L39.1408696,41.1304348 C38.9782609,37.2182609 35.0947826,35.0373913 30.36,35.0373913 C25.6252174,35.0373913 21.7513043,37.2182609 21.5791304,41.1304348 Z" id="形状"></path>
                <g id="_编组_2" transform="translate(5.739130, 21.043478)">
                    <path d="M17.8582609,2.3626087 L1.73130435,2.3626087 C1.20303198,2.3626087 0.774782609,1.93435933 0.774782609,1.40608696 C0.774782609,0.877814587 1.20303198,0.449565217 1.73130435,0.449565217 L17.8582609,0.449565217 C18.3865332,0.449565217 18.8147826,0.877814587 18.8147826,1.40608696 C18.8147826,1.93435933 18.3865332,2.3626087 17.8582609,2.3626087 Z" id="路径"></path>
                </g>
                <g id="_编组_3" transform="translate(5.739130, 25.826087)">
                    <path d="M14.8834783,2.79304348 L1.73130435,2.79304348 C1.20303198,2.79304348 0.774782609,2.36479411 0.774782609,1.83652174 C0.774782609,1.30824937 1.20303198,0.88 1.73130435,0.88 L14.8834783,0.88 C15.4117506,0.88 15.84,1.30824937 15.84,1.83652174 C15.84,2.36479411 15.4117506,2.79304348 14.8834783,2.79304348 Z" id="路径"></path>
                </g>
                <g id="_编组_4" transform="translate(5.739130, 31.565217)">
                    <path d="M9.79478261,2.2573913 L1.73130435,2.2573913 C1.20303198,2.2573913 0.774782609,1.82914193 0.774782609,1.30086957 C0.774782609,0.772597196 1.20303198,0.344347826 1.73130435,0.344347826 L9.79478261,0.344347826 C10.323055,0.344347826 10.7513043,0.772597196 10.7513043,1.30086957 C10.7513043,1.82914193 10.323055,2.2573913 9.79478261,2.2573913 Z" id="路径"></path>
                </g>
                <path d="M7.65217391,18.6043478 C7.27673164,18.6038729 6.93628397,18.3838016 6.78170157,18.0416592 C6.62711918,17.6995168 6.68699021,17.2985786 6.93478261,17.0165217 L11.8417391,11.4782609 C12.1713552,11.1036405 12.7335693,11.0453369 13.1330435,11.3443478 L19.9434783,16.4713043 L31.6895652,7.00173913 C32.102635,6.69142595 32.6874744,6.76520572 33.0105343,7.16838457 C33.3335943,7.57156341 33.2781121,8.15842135 32.8852174,8.49391304 L20.5652174,18.393913 C20.2194136,18.6636176 19.7344995,18.6636176 19.3886957,18.393913 L12.6930435,13.3530435 L8.36956522,18.2791304 C8.18823754,18.4855328 7.92691293,18.6039999 7.65217391,18.6043478 L7.65217391,18.6043478 Z" id="路径"></path>
                <path d="M32.3304348,15.3713043 C31.8021624,15.3713043 31.373913,14.943055 31.373913,14.4147826 L31.373913,8.60869565 L24.5921739,8.60869565 C24.0639015,8.60869565 23.6356522,8.18044628 23.6356522,7.65217391 C23.6356522,7.12390154 24.0639015,6.69565217 24.5921739,6.69565217 L32.3304348,6.69565217 C32.8587072,6.69565217 33.2869565,7.12390154 33.2869565,7.65217391 L33.2869565,14.4243478 C33.2817109,14.948881 32.8549941,15.3713043 32.3304348,15.3713043 Z" id="路径"></path>
            </g>
        </g>
    </g>
</svg>