<svg id="图层_1" data-name="图层 1" xmlns="http://www.w3.org/2000/svg" xmlns:xlink="http://www.w3.org/1999/xlink" viewBox="0 0 82 82"><defs><style>.cls-1{fill:url(#未命名的渐变_14);}.cls-2{fill:#fff;}</style><linearGradient id="未命名的渐变_14" x1="41" y1="82" x2="41" gradientUnits="userSpaceOnUse"><stop offset="0.05" stop-color="#1bc451"/><stop offset="0.94" stop-color="#12b045"/></linearGradient></defs><title>pic0318_01</title><circle class="cls-1" cx="41" cy="41" r="41"/><g id="_编组_" data-name=" 编组 "><path class="cls-2" d="M56.27,64H25.73a2.44,2.44,0,0,1-2.45-2.42V20.42A2.44,2.44,0,0,1,25.73,18H46.09a1,1,0,0,1,0,2H25.73a.43.43,0,0,0-.45.41h0V61.58a.43.43,0,0,0,.44.42H56.27a.44.44,0,0,0,.45-.42V31.77a1,1,0,1,1,2,0V61.58A2.44,2.44,0,0,1,56.27,64Z"/></g><g id="_编组_2" data-name=" 编组 2"><path class="cls-2" d="M57.72,32.77H47.54A2.74,2.74,0,0,1,45.09,30V19a1,1,0,0,1,1.74-.67L58.46,31.1a1,1,0,0,1-.74,1.67ZM47.09,21.58V30a1,1,0,0,0,.46.77h7.91Z"/></g><g id="_编组_3" data-name=" 编组 3"><path class="cls-2" d="M39.5,28.37H30.78a1,1,0,0,1,0-2H39.5a1,1,0,0,1,0,2Z"/></g><g id="_编组_3-2" data-name=" 编组 3"><path class="cls-2" d="M39.5,33.87H30.78a1,1,0,0,1,0-2H39.5a1,1,0,0,1,0,2Z"/></g><g id="_编组_3-3" data-name=" 编组 3"><path class="cls-2" d="M35.77,39.37H30.6a1,1,0,0,1,0-2h5.17a1,1,0,0,1,0,2Z"/></g><g id="_编组_2-2" data-name="&lt;编组&gt;"><g id="_编组_3-4" data-name="&lt;编组&gt;"><path class="cls-2" d="M33.09,59.61A1.34,1.34,0,0,1,31.77,58l1-5.22L45.94,37a2,2,0,0,1,1.86-.59,5,5,0,0,1,2.55,1.17c1.59,1.33,2.2,3.23,1.36,4.23L38.56,57.6l-5,1.91A1.34,1.34,0,0,1,33.09,59.61Zm1.57-5.93L34,57.22l3.4-1.3L50.08,40.69a2.61,2.61,0,0,0-1-1.53,3,3,0,0,0-1.49-.72h-.2ZM47.47,38.33h0Z"/></g></g><g id="_编组_4" data-name="&lt;编组&gt;"><g id="_编组_5" data-name="&lt;编组&gt;"><path class="cls-2" d="M49,44.63a1,1,0,0,1-.62-.21l-3.91-3.07a1,1,0,1,1,1.24-1.57l3.91,3.07A1,1,0,0,1,49,44.63Z"/></g></g><g id="_编组_6" data-name="&lt;编组&gt;"><g id="_编组_7" data-name="&lt;编组&gt;"><path class="cls-2" d="M38.83,56.12a1,1,0,0,1-.62-.21L34.3,52.84a1,1,0,0,1,1.24-1.57l3.91,3.07a1,1,0,0,1-.62,1.79Z"/></g></g></svg>