<svg id="图层_1" data-name="图层 1" xmlns="http://www.w3.org/2000/svg" viewBox="0 0 72 72"><defs><style>.cls-1{fill:#e35e46;}.cls-2{fill:#fff;}</style></defs><title>pic0318_02</title><rect class="cls-1" width="72" height="72" rx="10.54" ry="10.54"/><rect class="cls-1" width="72" height="72" rx="10.54" ry="10.54"/><g id="_编组_" data-name="&lt;编组&gt;"><path class="cls-2" d="M48.7,23.51H38.48a1,1,0,0,1,0-2H48.7a1,1,0,0,1,0,2Z"/></g><g id="_编组_2" data-name="&lt;编组&gt;"><path class="cls-2" d="M32.33,28H21.23a1,1,0,0,1,0-2H32.33a1,1,0,0,1,0,2Z"/></g><g id="_编组_3" data-name="&lt;编组&gt;"><path class="cls-2" d="M26.78,33.59a1,1,0,0,1-1-1V21.49a1,1,0,0,1,2,0V32.59A1,1,0,0,1,26.78,33.59Z"/></g><g id="_编组_4" data-name="&lt;编组&gt;"><path class="cls-2" d="M48.7,29.05H38.48a1,1,0,0,1,0-2H48.7a1,1,0,0,1,0,2Z"/></g><g id="_编组_5" data-name="&lt;编组&gt;"><path class="cls-2" d="M26.23,50.51h-5a1,1,0,0,1,0-2h5a1,1,0,0,1,0,2Z"/></g><g id="_编组_6" data-name="&lt;编组&gt;"><path class="cls-2" d="M29.19,45.11h-8a1,1,0,0,1,0-2h8a1,1,0,0,1,0,2Z"/></g><g id="_编组_7" data-name="&lt;编组&gt;"><path class="cls-2" d="M35,39.7H21.23a1,1,0,0,1,0-2H35a1,1,0,0,1,0,2Z"/></g><g id="_编组_8" data-name="&lt;编组&gt;"><path class="cls-2" d="M35,59.5H18.47a4,4,0,0,1-4-4v-39a4,4,0,0,1,4-4H52.09a4,4,0,0,1,4,4V36.42a1,1,0,0,1-2,0V16.5a2,2,0,0,0-2-2H18.47a2,2,0,0,0-2,2v39a2,2,0,0,0,2,2H35a1,1,0,0,1,0,2Z"/></g><g id="_编组_9" data-name="&lt;编组&gt;"><g id="_编组_10" data-name="&lt;编组&gt;"><path class="cls-2" d="M46.63,59.5a10.9,10.9,0,1,1,10.9-10.9A10.91,10.91,0,0,1,46.63,59.5Zm0-19.8a8.9,8.9,0,1,0,8.9,8.9A8.91,8.91,0,0,0,46.63,39.7Z"/></g><g id="_编组_11" data-name="&lt;编组&gt;"><path class="cls-2" d="M53.23,49.6h-6.6a1,1,0,0,1,0-2h6.6a1,1,0,0,1,0,2Z"/></g></g><g id="_编组_12" data-name="&lt;编组&gt;"><path class="cls-2" d="M46.63,49.6a1,1,0,0,1-1-1V42a1,1,0,0,1,2,0v6.6A1,1,0,0,1,46.63,49.6Z"/></g><g id="_编组_13" data-name="&lt;编组&gt;"><path class="cls-2" d="M48.7,23.51H38.48a1,1,0,0,1,0-2H48.7a1,1,0,0,1,0,2Z"/></g><g id="_编组_14" data-name="&lt;编组&gt;"><path class="cls-2" d="M32.33,28H21.23a1,1,0,0,1,0-2H32.33a1,1,0,0,1,0,2Z"/></g><g id="_编组_15" data-name="&lt;编组&gt;"><path class="cls-2" d="M26.78,33.59a1,1,0,0,1-1-1V21.49a1,1,0,0,1,2,0V32.59A1,1,0,0,1,26.78,33.59Z"/></g><g id="_编组_16" data-name="&lt;编组&gt;"><path class="cls-2" d="M48.7,29.05H38.48a1,1,0,0,1,0-2H48.7a1,1,0,0,1,0,2Z"/></g><g id="_编组_17" data-name="&lt;编组&gt;"><path class="cls-2" d="M26.23,50.51h-5a1,1,0,0,1,0-2h5a1,1,0,0,1,0,2Z"/></g><g id="_编组_18" data-name="&lt;编组&gt;"><path class="cls-2" d="M29.19,45.11h-8a1,1,0,0,1,0-2h8a1,1,0,0,1,0,2Z"/></g><g id="_编组_19" data-name="&lt;编组&gt;"><path class="cls-2" d="M35,39.7H21.23a1,1,0,0,1,0-2H35a1,1,0,0,1,0,2Z"/></g><g id="_编组_20" data-name="&lt;编组&gt;"><path class="cls-2" d="M35,59.5H18.47a4,4,0,0,1-4-4v-39a4,4,0,0,1,4-4H52.09a4,4,0,0,1,4,4V36.42a1,1,0,0,1-2,0V16.5a2,2,0,0,0-2-2H18.47a2,2,0,0,0-2,2v39a2,2,0,0,0,2,2H35a1,1,0,0,1,0,2Z"/></g><g id="_编组_21" data-name="&lt;编组&gt;"><g id="_编组_22" data-name="&lt;编组&gt;"><path class="cls-2" d="M46.63,59.5a10.9,10.9,0,1,1,10.9-10.9A10.91,10.91,0,0,1,46.63,59.5Zm0-19.8a8.9,8.9,0,1,0,8.9,8.9A8.91,8.91,0,0,0,46.63,39.7Z"/></g><g id="_编组_23" data-name="&lt;编组&gt;"><path class="cls-2" d="M53.23,49.6h-6.6a1,1,0,0,1,0-2h6.6a1,1,0,0,1,0,2Z"/></g></g><g id="_编组_24" data-name="&lt;编组&gt;"><path class="cls-2" d="M46.63,49.6a1,1,0,0,1-1-1V42a1,1,0,0,1,2,0v6.6A1,1,0,0,1,46.63,49.6Z"/></g></svg>