<svg id="图层_1" data-name="图层 1" xmlns="http://www.w3.org/2000/svg" viewBox="0 0 97.6 85.89"><defs><style>.cls-1{fill:#9d1612;}.cls-2,.cls-3,.cls-4,.cls-6,.cls-7{fill:none;stroke:#c44843;}.cls-2,.cls-3,.cls-4{stroke-miterlimit:10;}.cls-2,.cls-3,.cls-4,.cls-7{stroke-width:1.01px;}.cls-3{stroke-dasharray:3.26 0.54 1.09 3.26;}.cls-4{stroke-dasharray:0.54 1.09 3.26 0.54 1.09 3.26;}.cls-5{fill:#c44843;}.cls-6,.cls-7{stroke-linecap:round;stroke-linejoin:round;}.cls-6{stroke-width:1.52px;}</style></defs><title>pic10_02</title><path class="cls-1" d="M36.13,49.9a13.81,13.81,0,0,0,5,3.89A8,8,0,0,0,40,55.25a14.91,14.91,0,0,1-4.6-3.89v4.5h-1.8V51.44A15.54,15.54,0,0,1,29,55.24a8.57,8.57,0,0,0-1.24-1.46,13.72,13.72,0,0,0,5.06-3.88H28.2V48.23h5.36V46.42h-4.3V44.75h4.3V42.64h1.8v2.11h4.43v1.67H35.36v1.81H40.8V49.9Z"/><path class="cls-1" d="M45.43,53c.21.14.47.33.79.51a7.43,7.43,0,0,0,3.72.64,47.53,47.53,0,0,0,5.35-.33,6.11,6.11,0,0,0-.45,1.61c-1.09.06-3.44.14-4.94.14A7.61,7.61,0,0,1,46,54.85c-.57-.34-1-.76-1.34-.76s-1.12.83-1.71,1.7l-1-1.41a6.88,6.88,0,0,1,1.9-1.43V49.58H42V48h3.4Zm-.75-6.42a22.31,22.31,0,0,0-2.46-2.42l1.13-1A23.17,23.17,0,0,1,45.9,45.4Zm3.55,6.89H46.65V46.17h3.08c-.69-.31-1.4-.62-2-.88l1.09-.89c.54.2,1.2.47,1.84.74a11.51,11.51,0,0,0,1.19-.79H46.77V43.07h6.49l.34-.09,1,.81a15.25,15.25,0,0,1-2.56,2c.27.13.52.27.74.38l0,0h1.9V52c0,.69-.13,1-.58,1.26a4.18,4.18,0,0,1-1.9.24,5.28,5.28,0,0,0-.42-1.32h1.08c.17,0,.21-.07.21-.21v-.65H51.36V53.4h-1.5V51.33H48.23Zm0-6.07v.76h1.63v-.76Zm1.63,2.73v-.79H48.23v.79ZM53,47.38H51.36v.76H53Zm0,2.73v-.79H51.36v.79Z"/><path class="cls-1" d="M59.62,52.7c.23.14.49.31.82.5a7.9,7.9,0,0,0,3.83.64,39.32,39.32,0,0,0,5.19-.35,7.11,7.11,0,0,0-.52,1.87c-1,.07-3.28.16-4.73.16a8.09,8.09,0,0,1-4-.74C59.52,54.43,59,54,58.71,54s-1,.95-1.53,1.78L56,54a6.73,6.73,0,0,1,2-1.5V49.42H56.32V47.85h3.3Zm-1.06-6.27a12.86,12.86,0,0,0-2-2.49l1.3-.88A12.49,12.49,0,0,1,60,45.46Zm7.12.2H60.43V45h5.25V42.73h1.71V45h1.74v1.58H67.39v4.64c0,1-.21,1.43-.85,1.68a8.09,8.09,0,0,1-2.9.31,6.41,6.41,0,0,0-.57-1.71c.91,0,1.92,0,2.21,0s.4-.1.4-.34Zm-3.51.61a18.78,18.78,0,0,1,2,2.73l-1.44.88A19.91,19.91,0,0,0,60.82,48Z"/><path class="cls-2" d="M6.5,39.47a42.44,42.44,0,0,1,84.6,0"/><path class="cls-2" d="M13.62,39.73q0-.25,0-.5"/><path class="cls-3" d="M13.79,38.14a35.09,35.09,0,0,1,1.41-6.36"/><path class="cls-4" d="M15.74,30.24A35.18,35.18,0,0,1,19.46,23"/><path class="cls-2" d="M20.39,21.67l.3-.4"/><path class="cls-2" d="M83.85,39.73q0-.25,0-.5"/><path class="cls-3" d="M83.69,38.14a35.09,35.09,0,0,0-1.41-6.36"/><path class="cls-4" d="M81.74,30.24A35.18,35.18,0,0,0,78,23"/><path class="cls-2" d="M77.08,21.67l-.3-.4"/><path class="cls-2" d="M87.42,60.57a42.46,42.46,0,0,1-77.24,0"/><path class="cls-5" d="M81.21,60.57A36.63,36.63,0,0,1,29.87,74.8,36.09,36.09,0,0,1,16.39,60.57a37.2,37.2,0,0,0,64.82,0Z"/><path class="cls-5" d="M20.65,39.08a27.38,27.38,0,0,1,2.48-10.17,28.36,28.36,0,0,1,51.35,0A28.46,28.46,0,0,1,77,39.08h-.1a28.19,28.19,0,0,0-56.11,0Z"/><polygon class="cls-2" points="96.8 60.57 0.8 60.57 5.86 50.02 0.8 39.47 96.8 39.47 91.75 50.02 96.8 60.57"/><path class="cls-6" d="M41.67,32.41a7.16,7.16,0,0,1,.23-1.27c.95-3.35,1.8-2.34,4.67-3.05.74-.18,1.27-.1,1.77-.48a1.74,1.74,0,0,0,.24-2.43,3.84,3.84,0,0,1,3.68-6.1l1,.27a3.84,3.84,0,0,1-.06,7.12,1.74,1.74,0,0,0-1.07,2.2c.23.59.72.79,1.26,1.34,2.07,2.11,3.32,1.7,2.38,5a7.16,7.16,0,0,1-.47,1.2Z"/><line class="cls-6" x1="42.6" y1="30.39" x2="50.7" y2="32.69"/><line class="cls-6" x1="52.11" y1="33.08" x2="55.63" y2="34.08"/><line class="cls-7" x1="46.09" y1="72.82" x2="53.23" y2="65.73"/><line class="cls-7" x1="53.39" y1="72.66" x2="45.93" y2="65.89"/><line class="cls-7" x1="57.3" y1="73.05" x2="60.71" y2="69.66"/><line class="cls-7" x1="60.7" y1="73.06" x2="57.31" y2="69.65"/><line class="cls-7" x1="38.61" y1="73.05" x2="42.02" y2="69.66"/><line class="cls-7" x1="42.01" y1="73.06" x2="38.62" y2="69.65"/><path class="cls-5" d="M28.9,10.09l.47-.2c.7.69,1,1,1.7,1.74.5.58.74.87,1.22,1.45L30.84,9.3l.39-.15L32.9,13.6l-.39.15c-1.14-1.32-1.74-2-3-3.23l1.6,3.78-.35.15Z"/><path class="cls-5" d="M36.37,7.46a1.07,1.07,0,0,1,1.17.43,4.93,4.93,0,0,1,.63,1.63l.1.44c0,.16.06.32.08.49a3.11,3.11,0,0,1-.05,1.11.9.9,0,0,1-.73.68.84.84,0,0,1-.93-.27,3.49,3.49,0,0,1-.58-1c-.06-.15-.11-.31-.15-.46l-.12-.42,0-.07,0-.08,0-.09,0-.1q0-.15-.09-.34A3.18,3.18,0,0,1,35.51,9a2.11,2.11,0,0,1,.1-.92,1,1,0,0,1,.76-.64Zm.09.35a.73.73,0,0,0-.57.77A5.42,5.42,0,0,0,36.12,10l.11.38c0,.14.09.28.15.41a3.22,3.22,0,0,0,.45.8.64.64,0,0,0,.65.27h0c.21,0,.43-.24.48-.52a2.9,2.9,0,0,0,0-.88c0-.12,0-.25-.06-.37l-.07-.34-.08-.35c0-.1-.05-.21-.09-.35a4,4,0,0,0-.14-.4A2.15,2.15,0,0,0,37.14,8a.73.73,0,0,0-.69-.22Z"/><path class="cls-5" d="M43.71,6.19l0,.45-1,.11L43.31,11l-.38,0-.58-4.26-1,.14-.07-.44C42.27,6.36,42.75,6.29,43.71,6.19Z"/><path class="cls-5" d="M50,5.91a1.21,1.21,0,0,1,1,.41,1.26,1.26,0,0,1,.27.84v.07a.27.27,0,0,1,0,.06,1.57,1.57,0,0,1-.42.86,1.15,1.15,0,0,1-.92.37h-.52v2.14H49c0-1.9,0-2.85,0-4.75Zm-.62,2.2h.62a.71.71,0,0,0,.61-.26,1.1,1.1,0,0,0,.25-.6V7.14a1,1,0,0,0-.2-.59.7.7,0,0,0-.59-.28l-.69,0C49.44,7,49.44,7.37,49.43,8.11Z"/><path class="cls-5" d="M56.38,6.43c.2,1.95.27,2.92.38,4.87l-.37-.06c0-.61,0-.91-.06-1.52l-1.19-.17c-.21.58-.31.86-.52,1.44l-.36,0c.64-1.84,1-2.76,1.7-4.58Zm-1.1,2.73,1,.14c-.08-1-.12-1.48-.22-2.46C55.75,7.76,55.59,8.23,55.28,9.16Z"/><path class="cls-5" d="M60.23,10.59l.33.08a1.85,1.85,0,0,0,.05.87.63.63,0,0,0,.45.4h.13a.77.77,0,0,0,.49-.15,1,1,0,0,0,.37-.59l.05-.19a.58.58,0,0,0-.1-.48,2.3,2.3,0,0,0-.38-.39l-.1-.08-.1-.09a2.54,2.54,0,0,1-.51-.6,1.21,1.21,0,0,1-.07-.94l0,0,0-.05h0V8.23a.93.93,0,0,1,.51-.6,1.13,1.13,0,0,1,.72-.06h0l.06,0,.06,0a1.22,1.22,0,0,1,.61.5A1.08,1.08,0,0,1,63,9l-.39-.12a.76.76,0,0,0-.06-.59.85.85,0,0,0-.39-.39l-.05,0-.05,0a.61.61,0,0,0-.46.07.86.86,0,0,0-.36.53v.13a.78.78,0,0,0,.1.71,3.36,3.36,0,0,0,.5.5l0,0,0,0a2.92,2.92,0,0,1,.51.55,1,1,0,0,1,.08.83v0a1.43,1.43,0,0,1-.61.88,1.19,1.19,0,0,1-.81.18h-.1a1.08,1.08,0,0,1-.63-.53,1.5,1.5,0,0,1-.08-1.13h0v0h0Z"/><path class="cls-5" d="M65.79,12.29l.32.12a1.84,1.84,0,0,0-.05.87.64.64,0,0,0,.41.45l.06,0h.06a.78.78,0,0,0,.51-.09,1,1,0,0,0,.45-.54l.08-.18a.58.58,0,0,0,0-.49,2.33,2.33,0,0,0-.33-.44L67.17,12l-.09-.1a2.57,2.57,0,0,1-.44-.66,1.2,1.2,0,0,1,0-.95l0,0,0-.05h0l0,0,0,0a.93.93,0,0,1,.58-.53,1.14,1.14,0,0,1,.73,0h0l.06,0,.06,0a1.24,1.24,0,0,1,.55.58,1.07,1.07,0,0,1,0,.89l-.37-.17a.76.76,0,0,0,0-.59.86.86,0,0,0-.35-.44l-.05,0-.05,0a.62.62,0,0,0-.47,0,.86.86,0,0,0-.43.48l0,0,0,0,0,0,0,0a.77.77,0,0,0,0,.71,3.41,3.41,0,0,0,.44.56l0,0,0,0a3,3,0,0,1,.44.61,1,1,0,0,1,0,.84l0,0a1.42,1.42,0,0,1-.72.8,1.2,1.2,0,0,1-.84.07l0,0h-.05a1.09,1.09,0,0,1-.57-.61,1.49,1.49,0,0,1,.05-1.13h0v0h0Z"/></svg>