<svg id="图层_1" data-name="图层 1" xmlns="http://www.w3.org/2000/svg" viewBox="0 0 97.6 85.89"><defs><style>.cls-1,.cls-2,.cls-3,.cls-6,.cls-7{fill:none;stroke:#36cc96;}.cls-1,.cls-2,.cls-3{stroke-miterlimit:10;}.cls-1,.cls-2,.cls-3,.cls-7{stroke-width:1.01px;}.cls-2{stroke-dasharray:3.26 0.54 1.09 3.26;}.cls-3{stroke-dasharray:0.54 1.09 3.26 0.54 1.09 3.26;}.cls-4{fill:#16a56e;}.cls-5{fill:#36cc96;}.cls-6,.cls-7{stroke-linecap:round;stroke-linejoin:round;}.cls-6{stroke-width:1.52px;}</style></defs><title>pic10_01</title><path class="cls-1" d="M83.85,39.73q0-.25,0-.5"/><path class="cls-2" d="M83.69,38.14a35.09,35.09,0,0,0-1.41-6.36"/><path class="cls-3" d="M81.74,30.24A35.18,35.18,0,0,0,78,23"/><path class="cls-1" d="M77.08,21.67l-.3-.4"/><path class="cls-4" d="M37.45,53.78c1.46,0,1.68-.37,1.9-2.42A6.22,6.22,0,0,0,41,52c-.33,2.66-.95,3.44-3.52,3.44H32.84c-2.73,0-3.56-.54-3.56-2.67V46.18H31V48.1h6.42v-3H28.71V43.42H39.19v7H37.44v-.67H31v3c0,.88.25,1,1.81,1Z"/><path class="cls-4" d="M45.43,53c.21.14.47.33.79.51a7.43,7.43,0,0,0,3.72.64,47.54,47.54,0,0,0,5.35-.33,6.13,6.13,0,0,0-.45,1.61c-1.09.06-3.44.14-4.94.14A7.61,7.61,0,0,1,46,54.85c-.57-.34-1-.76-1.34-.76s-1.12.83-1.71,1.7l-1-1.41a6.88,6.88,0,0,1,1.9-1.43V49.58H42V48h3.4Zm-.75-6.42a22.31,22.31,0,0,0-2.46-2.42l1.13-1A23.17,23.17,0,0,1,45.9,45.4Zm3.55,6.89H46.65V46.17h3.08c-.69-.31-1.4-.62-2-.88l1.09-.89c.54.2,1.2.47,1.84.74a11.57,11.57,0,0,0,1.19-.79H46.77V43.07h6.49l.34-.09,1,.81a15.25,15.25,0,0,1-2.56,2c.27.13.52.27.74.38l0,0h1.9V52c0,.69-.13,1-.58,1.26a4.19,4.19,0,0,1-1.9.24,5.3,5.3,0,0,0-.42-1.32h1.08c.17,0,.21-.07.21-.21v-.65H51.36V53.4h-1.5V51.33H48.23Zm0-6.07v.76h1.63v-.76Zm1.63,2.73v-.79H48.23v.79ZM53,47.38H51.36v.76H53Zm0,2.73v-.79H51.36v.79Z"/><path class="cls-4" d="M59.62,52.7c.23.14.5.31.82.5a7.9,7.9,0,0,0,3.83.64,39.33,39.33,0,0,0,5.19-.35,7.12,7.12,0,0,0-.52,1.87c-1,.07-3.28.16-4.73.16a8.09,8.09,0,0,1-4-.74C59.52,54.43,59,54,58.71,54s-1,.95-1.53,1.78L56,54a6.73,6.73,0,0,1,2-1.5V49.42H56.32V47.85h3.3Zm-1.06-6.27a12.87,12.87,0,0,0-2-2.49l1.3-.88A12.49,12.49,0,0,1,60,45.46Zm7.12.2H60.43V45h5.25V42.73h1.71V45h1.74v1.58H67.39v4.64c0,1-.21,1.43-.85,1.68a8.09,8.09,0,0,1-2.9.31,6.4,6.4,0,0,0-.57-1.71c.91,0,1.92,0,2.21,0s.4-.1.4-.34Zm-3.51.61a18.76,18.76,0,0,1,2,2.73l-1.44.88A19.89,19.89,0,0,0,60.82,48Z"/><path class="cls-1" d="M6.5,39.47a42.44,42.44,0,0,1,84.6,0"/><path class="cls-1" d="M13.62,39.73q0-.25,0-.5"/><path class="cls-2" d="M13.79,38.14a35.09,35.09,0,0,1,1.41-6.36"/><path class="cls-3" d="M15.74,30.24A35.18,35.18,0,0,1,19.46,23"/><path class="cls-1" d="M20.39,21.67l.3-.4"/><path class="cls-1" d="M87.42,60.57a42.46,42.46,0,0,1-77.24,0"/><path class="cls-5" d="M81.21,60.57A36.63,36.63,0,0,1,29.87,74.8,36.09,36.09,0,0,1,16.39,60.57a37.2,37.2,0,0,0,64.82,0Z"/><path class="cls-5" d="M20.65,39.08a27.38,27.38,0,0,1,2.48-10.17,28.36,28.36,0,0,1,51.35,0A28.46,28.46,0,0,1,77,39.08h-.1a28.19,28.19,0,0,0-56.11,0Z"/><polygon class="cls-1" points="96.8 60.57 0.8 60.57 5.86 50.02 0.8 39.47 96.8 39.47 91.75 50.02 96.8 60.57"/><path class="cls-6" d="M41.67,32.41a7.16,7.16,0,0,1,.23-1.27c.95-3.35,1.8-2.34,4.67-3.05.74-.18,1.27-.1,1.77-.48a1.74,1.74,0,0,0,.24-2.43,3.84,3.84,0,0,1,3.68-6.1l1,.27a3.84,3.84,0,0,1-.06,7.12,1.74,1.74,0,0,0-1.07,2.2c.23.59.72.79,1.26,1.34,2.07,2.11,3.32,1.7,2.38,5a7.16,7.16,0,0,1-.47,1.2Z"/><line class="cls-6" x1="42.6" y1="30.39" x2="50.7" y2="32.69"/><line class="cls-6" x1="52.11" y1="33.08" x2="55.63" y2="34.08"/><polyline class="cls-7" points="46 70.34 49.76 73.3 57.87 65.25"/><polyline class="cls-7" points="37.24 71.87 39.06 73.3 42.98 69.41"/><polyline class="cls-7" points="55.83 71.87 57.65 73.3 61.57 69.41"/><path class="cls-4" d="M21.81,18.19l1.44,1a27.17,27.17,0,0,1,1.89-2.4L23.8,15.66l.54-.61,3,2.78-.47.53L25.37,17A26.9,26.9,0,0,0,23.5,19.4l1.65,1.19-.42.6-3.4-2.31Z"/><path class="cls-4" d="M27.79,11.77a30.9,30.9,0,0,1,4.17,2l-.55.4c-.48-.29-.72-.43-1.22-.7-.71.55-1.05.85-1.73,1.46.16.56.24.83.41,1.38l-.5.48a33.5,33.5,0,0,1-1.22-4.48Zm.56,2.77c.59-.53.88-.78,1.5-1.26-.85-.39-1.28-.58-2.16-.92C27.93,13.24,28.07,13.68,28.35,14.54Z"/><path class="cls-4" d="M30.94,9.47a34.77,34.77,0,0,1,3.27,2.28,33.1,33.1,0,0,1-.07-4.09l.69-.33a32.45,32.45,0,0,0,0,4.64l-.66.38a32.13,32.13,0,0,0-3.9-2.4Z"/><path class="cls-4" d="M39.67,5.5l.11.37a27.57,27.57,0,0,0-2.69.9L37.58,8c.9-.35,1.36-.5,2.28-.78l.11.37c-.91.27-1.36.43-2.25.77l.58,1.5a24.8,24.8,0,0,1,2.42-.81l.11.37a24.46,24.46,0,0,0-3.06,1.07l-1.58-3.8A27.87,27.87,0,0,1,39.67,5.5Z"/><path class="cls-4" d="M49.42,4.17a3.45,3.45,0,0,1,1.79.39c.36.24.53.49.5.76v.06a.12.12,0,0,1,0,.05,1.27,1.27,0,0,1-.74.71,3.69,3.69,0,0,1-1.64.29h-.94l0,1.85-.66,0L47.57,4.2C48.31,4.17,48.68,4.16,49.42,4.17ZM48.36,6.09h1.12a2.16,2.16,0,0,0,1.1-.2A.8.8,0,0,0,51,5.37v-.1a.74.74,0,0,0-.37-.53,2,2,0,0,0-1.08-.26H48.32Z"/><path class="cls-4" d="M55.56,4.79a33.09,33.09,0,0,1,1.06,4.46L56,9.08c-.08-.55-.12-.83-.22-1.38-.84-.18-1.27-.26-2.12-.39-.32.48-.47.72-.77,1.2l-.64-.07a33,33,0,0,1,2.57-3.8ZM53.84,7c.74.11,1.1.18,1.83.33-.22-.9-.34-1.35-.62-2.24C54.55,5.84,54.31,6.22,53.84,7Z"/><path class="cls-4" d="M57.8,8.32l.59.18a1.19,1.19,0,0,0,.22.83,1.79,1.79,0,0,0,.83.54l.11,0,.11,0a2,2,0,0,0,.81.06A.64.64,0,0,0,61,9.6l.07-.16a.53.53,0,0,0-.23-.5,5.28,5.28,0,0,0-.7-.53L60,8.3l-.19-.12a7.19,7.19,0,0,1-1-.74.83.83,0,0,1-.28-.9l0,0,0,0h0l0,0,0,0a.84.84,0,0,1,.79-.4,3.42,3.42,0,0,1,1.26.21h0l.11,0,.11,0A3.46,3.46,0,0,1,62.06,7a.85.85,0,0,1,.29.9l-.68-.3c.07-.17,0-.37-.19-.59a2.23,2.23,0,0,0-.74-.54l-.1,0-.1,0a1.81,1.81,0,0,0-.79-.11.63.63,0,0,0-.55.37v.05l0,0v0a.62.62,0,0,0,.29.7c.27.22.58.43.93.66l.06,0,.07,0a6.5,6.5,0,0,1,.94.75.73.73,0,0,1,.23.84l0,0a1,1,0,0,1-.91.56,3.54,3.54,0,0,1-1.34-.17l-.07,0-.07,0h0a3.27,3.27,0,0,1-1.15-.72,1,1,0,0,1-.32-1.07h0Z"/><path class="cls-4" d="M62.81,10.28l.55.28a1.2,1.2,0,0,0,.08.86,1.84,1.84,0,0,0,.73.68l.1.06.1.05a2.09,2.09,0,0,0,.8.21.64.64,0,0,0,.62-.29l.09-.14a.54.54,0,0,0-.14-.54,5.43,5.43,0,0,0-.61-.65L65,10.66l-.16-.15A7.4,7.4,0,0,1,64,9.59a.83.83,0,0,1-.13-.94l0,0,0,0h0l0,0,0,0a.84.84,0,0,1,.86-.25,3.5,3.5,0,0,1,1.21.44h0l.1.06.1.07a3.56,3.56,0,0,1,1,.95.85.85,0,0,1,.14.94l-.62-.42c.1-.15.07-.36-.08-.62A2.29,2.29,0,0,0,66.07,9L66,9l-.09-.06a1.86,1.86,0,0,0-.77-.25.63.63,0,0,0-.61.27l0,0,0,0,0,0,0,0a.62.62,0,0,0,.17.74c.23.26.5.54.81.82l.05.05.06.05a6.68,6.68,0,0,1,.81.92.74.74,0,0,1,.09.87l0,0a1,1,0,0,1-1,.39,3.66,3.66,0,0,1-1.31-.42l-.07,0-.06,0h0a3.37,3.37,0,0,1-1-.92,1,1,0,0,1-.13-1.12h0Z"/><path class="cls-4" d="M72.42,13.56l-.27.28a27.36,27.36,0,0,0-2.22-2l-.84,1c.78.63,1.16,1,1.89,1.66l-.27.28c-.73-.69-1.1-1-1.87-1.64l-1,1.25a24.59,24.59,0,0,1,2,1.77l-.27.28A24.25,24.25,0,0,0,67,14.31L69.5,11A27.63,27.63,0,0,1,72.42,13.56Z"/><path class="cls-4" d="M75,16.33a4.09,4.09,0,0,1,1.12,2.26A1.69,1.69,0,0,1,75.22,20a2,2,0,0,1-1.67.35,3.29,3.29,0,0,1-1.64-1.24c-.47-.58-.71-.86-1.2-1.4l3-2.8C74.24,15.46,74.49,15.74,75,16.33ZM71.48,18c.3.34.45.52.74.88a2,2,0,0,0,1.19.81,1.5,1.5,0,0,0,1.15-.27l.06,0,.07,0s0,0,0,0h0l.06,0,.05,0a2,2,0,0,0,.64-.94c.09-.34-.17-.94-.83-1.73L74,15.77Z"/></svg>