<?xml version="1.0" encoding="UTF-8"?>
<svg width="82px" height="82px" viewBox="0 0 82 82" version="1.1" xmlns="http://www.w3.org/2000/svg" xmlns:xlink="http://www.w3.org/1999/xlink">
    <!-- Generator: Sketch 62 (91390) - https://sketch.com -->
    <title>编组 3</title>
    <desc>Created with Sketch.</desc>
    <g id="页面-1" stroke="none" stroke-width="1" fill="none" fill-rule="evenodd">
        <g id="编组-3">
            <g id="编组-2备份" fill="#2AA1F4">
                <g id="供稿保护_证据文件包2">
                    <circle id="椭圆形" cx="41" cy="41" r="41"></circle>
                </g>
            </g>
            <g id="明细" transform="translate(20.000000, 20.000000)" fill="#FFFFFF" fill-rule="nonzero">
                <path d="M42.5187448,42.1347326 L42.0798615,42.5736159 C41.6409352,43.0124993 40.5437269,43.0124993 40.1048006,42.5736159 L36.7033044,39.5013038 C35.4963108,40.2693711 34.0698756,40.7082974 32.533698,40.7082974 C28.2544352,40.7082974 24.7431538,37.1970589 24.7431538,32.9177531 C24.7431538,28.6384474 28.2543923,25.1272089 32.533698,25.1272089 C36.8130038,25.1272089 40.3242422,28.6384474 40.3242422,32.9177531 C40.3242422,34.4538877 39.8853159,35.880323 39.1172486,37.0873166 L42.5187448,40.0499294 C42.9576711,40.7082974 42.9576711,41.586064 42.5187448,42.1347326 L42.5187448,42.1347326 Z M32.533698,28.5287051 C30.1197108,28.5287051 28.1446499,30.503766 28.1446499,32.9177531 C28.1446499,35.3317403 30.1197538,37.3067583 32.533698,37.3067583 C34.9476422,37.3067583 36.9227461,35.3316974 36.9227461,32.9177531 C36.9227461,30.5038089 34.9476852,28.5287051 32.533698,28.5287051 Z M37.2519301,22.3840807 L37.2519301,11.0822981 L11.0274269,11.0822981 L11.0274269,35.221998 L21.122216,35.221998 C21.122216,36.8678749 22.5486512,38.2943102 22.9875775,39.2818621 L9.71073396,39.2818621 C8.17459936,39.2818621 6.96760576,37.9651262 6.96760576,36.4289486 L6.96760576,10.0947891 C6.96760576,8.55861152 8.17459936,7.24191858 9.71073396,7.24191858 L38.3491813,7.24191858 C39.8853159,7.24191858 41.0923095,8.55861152 41.0923095,10.0947891 L41.0923095,25.4563929 C40.3242422,24.3591416 38.6783224,22.9327064 37.2519301,22.3840807 Z M17.9401615,16.3491128 L29.4613858,16.3491128 C30.4488948,16.3491128 31.2170051,17.117223 31.2170051,18.104775 C31.2170051,19.0923269 30.4488948,19.8603512 29.4613858,19.8603512 L17.9401615,19.8603512 C16.9526525,19.8603512 16.1845423,19.0922839 16.1845423,18.104775 C16.1845423,17.117266 17.0623949,16.3491557 17.9401615,16.3491557 L17.9401615,16.3491128 Z M17.9401615,23.2618903 L20.2444064,23.2618903 C21.2319583,23.2618903 22.0000256,24.0299576 22.0000256,25.0174666 C22.0000256,26.0050185 21.2319583,26.7730858 20.2444064,26.7730858 L17.9401615,26.7730858 C16.9526525,26.7730858 16.1845423,26.0050185 16.1845423,25.0174666 C16.2942846,24.0299576 17.0623949,23.2618903 17.9401615,23.2618903 Z M4.00499294,5.04741603 L4.00499294,36.0998076 C2.6883,36.0998076 0.0548711576,35.9900653 0.0548711576,33.5760781 L0.0548711576,2.30424487 C0.0548711576,0.98755193 1.04238012,3.96905193e-15 2.35911603,3.96905193e-15 L33.6309493,3.96905193e-15 C35.6060102,3.96905193e-15 36.0449365,2.19450255 36.0449365,3.51123846 L5.10224422,3.95012178 C4.44387626,3.95012178 4.00499294,4.49874742 4.00499294,5.04737306 L4.00499294,5.04741603 Z" id="形状"></path>
            </g>
        </g>
    </g>
</svg>