<?xml version="1.0" encoding="iso-8859-1"?>
<!-- Generator: Adobe Illustrator 21.0.0, SVG Export Plug-In . SVG Version: 6.00 Build 0)  -->
<svg version="1.1" id="&#x56FE;&#x5C42;_1" xmlns="http://www.w3.org/2000/svg" xmlns:xlink="http://www.w3.org/1999/xlink" x="0px"
	 y="0px" viewBox="0 0 82 82" style="enable-background:new 0 0 82 82;" xml:space="preserve">
<g>
	<circle style="fill:#25CE7D;" cx="41" cy="41" r="41"/>
</g>
<g id="XMLID_1_">
	<g id="XMLID_29_">
		<rect x="32.344" y="28.294" style="fill:#FFFFFF;" width="9.786" height="2"/>
	</g>
	<g id="XMLID_26_">
		<rect x="32.344" y="38.933" style="fill:#FFFFFF;" width="9.786" height="2"/>
	</g>
	<g id="XMLID_23_">
		<rect x="32.344" y="53.397" style="fill:#FFFFFF;" width="6.101" height="2"/>
	</g>
	<g id="XMLID_20_">
		<path style="fill:#FFFFFF;" d="M47.048,32.499l-2.477-3.535l1.638-1.148l0.959,1.369c0.745-0.772,1.661-1.596,2.446-2.3
			c0.511-0.458,0.963-0.864,1.261-1.162l1.415,1.414c-0.317,0.316-0.797,0.749-1.34,1.236c-1.08,0.97-2.423,2.176-3.073,3.033
			L47.048,32.499z"/>
	</g>
	<g id="XMLID_17_">
		<path style="fill:#FFFFFF;" d="M47.048,41.7l-2.478-3.536l1.639-1.146l0.946,1.35c0.451-0.498,0.964-1.03,1.467-1.552
			c0.828-0.858,1.685-1.747,2.164-2.379l1.594,1.209c-0.551,0.726-1.409,1.616-2.318,2.559c-0.835,0.865-1.698,1.761-2.185,2.403
			L47.048,41.7z"/>
	</g>
	<g id="XMLID_15_">
		<path style="fill:#FFFFFF;" d="M56.002,63.919H22.801c-2.206,0-4-1.794-4-4V22.081c0-2.206,1.794-4,4-4h33.201
			c2.206,0,4,1.794,4,4v14.106h-2V22.081c0-1.103-0.897-2-2-2H22.801c-1.103,0-2,0.897-2,2v37.838c0,1.103,0.897,2,2,2h33.201
			c1.103,0,2-0.897,2-2V43.753h2v16.166C60.002,62.125,58.208,63.919,56.002,63.919z"/>
	</g>
	<g id="XMLID_12_">
		<g id="XMLID_14_">
			<path style="fill:#FFFFFF;" d="M24.974,33.007c-2.095,0-3.8-1.73-3.8-3.857c0-2.126,1.705-3.856,3.8-3.856s3.8,1.73,3.8,3.856
				C28.774,31.277,27.07,33.007,24.974,33.007z M24.96,27.28c-1,0-1.814,0.839-1.814,1.87s0.814,1.871,1.814,1.871
				s1.814-0.84,1.814-1.871S25.96,27.28,24.96,27.28z"/>
		</g>
		<g id="XMLID_13_">
			<rect x="16.502" y="28.301" style="fill:#FFFFFF;" width="7.654" height="2"/>
		</g>
	</g>
	<g id="XMLID_9_">
		<g id="XMLID_11_">
			<path style="fill:#FFFFFF;" d="M24.974,44.966c-2.095,0-3.8-1.73-3.8-3.856s1.705-3.856,3.8-3.856s3.8,1.73,3.8,3.856
				S27.07,44.966,24.974,44.966z M24.974,39.247c-0.996,0-1.807,0.836-1.807,1.863s0.811,1.863,1.807,1.863s1.807-0.836,1.807-1.863
				S25.971,39.247,24.974,39.247z"/>
		</g>
		<g id="XMLID_10_">
			<rect x="16.502" y="40.738" style="fill:#FFFFFF;" width="7.654" height="2"/>
		</g>
	</g>
	<g id="XMLID_6_">
		<g id="XMLID_8_">
			<path style="fill:#FFFFFF;" d="M24.974,56.925c-2.095,0-3.8-1.73-3.8-3.856s1.705-3.856,3.8-3.856s3.8,1.73,3.8,3.856
				S27.07,56.925,24.974,56.925z M24.974,51.206c-0.996,0-1.807,0.836-1.807,1.863s0.811,1.863,1.807,1.863s1.807-0.836,1.807-1.863
				S25.971,51.206,24.974,51.206z"/>
		</g>
		<g id="XMLID_7_">
			<rect x="16.502" y="52.219" style="fill:#FFFFFF;" width="7.654" height="2"/>
		</g>
	</g>
	<g id="XMLID_3_">
		<g id="XMLID_5_">
			<path style="fill:#FFFFFF;" d="M43.437,54.196c-0.514,0-1-0.225-1.328-0.638c-0.464-0.585-0.494-1.389-0.075-2.048l3.848-6.042
				l13.379-10.661l0,0c0.758-0.604,1.722-0.887,2.637-0.773c0.836,0.103,1.572,0.518,2.071,1.168l0.902,1.178
				c1.075,1.402,0.736,3.512-0.756,4.701L50.733,51.743L44.05,54.09C43.846,54.162,43.639,54.196,43.437,54.196z M47.389,46.824
				l-3.259,5.118l5.621-1.975l13.116-10.451c0.635-0.506,0.825-1.386,0.416-1.92l-0.902-1.178c-0.217-0.283-0.515-0.374-0.727-0.399
				c-0.39-0.05-0.807,0.081-1.147,0.353l0,0L47.389,46.824z"/>
		</g>
		<g id="XMLID_4_">
			
				<rect x="47.198" y="46.077" transform="matrix(0.7939 -0.6081 0.6081 0.7939 -19.675 39.3451)" style="fill:#FFFFFF;" width="2" height="5.234"/>
		</g>
	</g>
</g>
</svg>
