<?xml version="1.0" encoding="UTF-8"?>
<svg width="82px" height="82px" viewBox="0 0 82 82" version="1.1" xmlns="http://www.w3.org/2000/svg" xmlns:xlink="http://www.w3.org/1999/xlink">
    <!-- Generator: Sketch 62 (91390) - https://sketch.com -->
    <title>编组 4</title>
    <desc>Created with Sketch.</desc>
    <g id="页面-1" stroke="none" stroke-width="1" fill="none" fill-rule="evenodd">
        <g id="编组-4">
            <g id="编组-2备份-2" fill="#4D6AD8">
                <g id="供稿保护_证据文件包2">
                    <circle id="椭圆形" cx="41" cy="41" r="41"></circle>
                </g>
            </g>
            <g id="进入" transform="translate(32.000000, 21.000000)" fill="#FFFFFF" fill-rule="nonzero">
                <path d="M2.33234638,39.3360075 C2.68038335,39.3360075 3.0090835,39.2006377 3.27977834,38.9686135 L22.6151368,21.0060653 C22.9051676,20.73537 23.059851,20.3873318 23.059851,20.0006254 C23.059851,19.6139178 22.905168,19.2465445 22.6151368,18.9951856 L3.27977834,1.03263736 C2.71905269,0.510583625 1.84896027,0.549251248 1.32690654,1.10997905 C0.804852807,1.6707047 0.84352043,2.54079712 1.40424823,3.06285085 L19.6568359,20.0006362 L1.40424823,36.9384215 C0.978870002,37.3251291 0.843522579,37.9245254 1.05621126,38.4465791 C1.24956485,38.9879688 1.7716203,39.3360075 2.33234595,39.3360075 L2.33234638,39.3360075 Z" id="路径"></path>
            </g>
        </g>
    </g>
</svg>