<?xml version="1.0" encoding="iso-8859-1"?>
<!-- Generator: Adobe Illustrator 21.0.0, SVG Export Plug-In . SVG Version: 6.00 Build 0)  -->
<svg version="1.1" id="&#x56FE;&#x5C42;_1" xmlns="http://www.w3.org/2000/svg" xmlns:xlink="http://www.w3.org/1999/xlink" x="0px"
	 y="0px" viewBox="0 0 82 82" style="enable-background:new 0 0 82 82;" xml:space="preserve">
<g>
	<g>
		<circle style="fill:#EF5324;" cx="41" cy="41" r="41"/>
	</g>
	<g>
		<g id="XMLID_87_">
			<g id="XMLID_88_">
				<path style="fill:#FFFFFF;" d="M40.779,53.637c-0.291,0-0.578-0.098-0.813-0.285c-0.367-0.296-0.545-0.768-0.465-1.231
					l0.786-4.557L51.34,33.706c0.351-0.443,0.96-0.657,1.709-0.595c0.774,0.071,1.587,0.423,2.299,0.991
					c1.456,1.159,2.028,2.872,1.276,3.818L45.572,51.778l-4.303,1.763C41.111,53.605,40.944,53.637,40.779,53.637z M42.171,48.409
					l-0.483,2.799l2.645-1.084l10.612-13.305c-0.047-0.216-0.268-0.695-0.844-1.153c-0.399-0.318-0.856-0.528-1.225-0.562
					c-0.036-0.004-0.064-0.003-0.091-0.004L42.171,48.409z M52.906,34.95l-0.003,0.004C52.904,34.953,52.905,34.951,52.906,34.95z"
					/>
			</g>
		</g>
		<g id="XMLID_84_">
			<g id="XMLID_85_">
				<path style="fill:#FFFFFF;" d="M54.188,40.408c-0.208,0-0.419-0.065-0.599-0.2l-3.429-2.571c-0.442-0.331-0.531-0.958-0.2-1.399
					c0.332-0.442,0.958-0.53,1.4-0.2l3.429,2.571c0.442,0.331,0.531,0.958,0.2,1.399C54.792,40.271,54.492,40.408,54.188,40.408z"/>
			</g>
		</g>
		<g id="XMLID_80_">
			<g id="XMLID_81_">
				<path style="fill:#FFFFFF;" d="M45.668,50.518c-0.208,0-0.419-0.065-0.599-0.2l-3.429-2.571c-0.442-0.331-0.531-0.958-0.2-1.399
					c0.332-0.442,0.958-0.531,1.4-0.2l3.429,2.571c0.442,0.331,0.531,0.958,0.2,1.399C46.272,50.38,45.972,50.518,45.668,50.518z"/>
			</g>
		</g>
		<g id="XMLID_65_">
			<path style="fill:#FFFFFF;" d="M58.143,63H29.207c-2.206,0-4-1.794-4-4V28.589c0-2.206,1.794-4,4-4h28.936c2.206,0,4,1.794,4,4
				V59C62.143,61.206,60.348,63,58.143,63z M29.207,26.589c-1.103,0-2,0.897-2,2V59c0,1.103,0.897,2,2,2h28.936c1.103,0,2-0.897,2-2
				V28.589c0-1.103-0.897-2-2-2H29.207z M24.085,51.571h-1.614c-1.49,0-2.614-1.72-2.614-4V23c0-2.206,1.794-4,4-4h26.61
				c2.318,0,4,1.021,4,2.429v1.429h-2V21.52c-0.164-0.164-0.833-0.52-2-0.52h-26.61c-1.103,0-2,0.897-2,2v24.571
				c0,1.228,0.463,1.932,0.647,2.005l1.581-0.005V51.571z"/>
		</g>
		<g id="XMLID_64_">
			<path style="fill:#FFFFFF;" d="M43.097,38.014H31.674c-0.552,0-1-0.447-1-1s0.448-1,1-1h11.423c0.552,0,1,0.447,1,1
				S43.65,38.014,43.097,38.014z"/>
		</g>
		<g id="XMLID_63_">
			<path style="fill:#FFFFFF;" d="M39.029,44.316h-7.354c-0.552,0-1-0.447-1-1s0.448-1,1-1h7.354c0.552,0,1,0.447,1,1
				S39.581,44.316,39.029,44.316z"/>
		</g>
		<g id="XMLID_16_">
			<path style="fill:#FFFFFF;" d="M35.383,50.619h-3.709c-0.552,0-1-0.447-1-1s0.448-1,1-1h3.709c0.552,0,1,0.447,1,1
				S35.935,50.619,35.383,50.619z"/>
		</g>
	</g>
</g>
</svg>
