<svg id="图层_1" data-name="图层 1" xmlns="http://www.w3.org/2000/svg" viewBox="0 0 82 82"><defs><style>.cls-1{fill:#eaa51f;}.cls-2{fill:#fff;}</style></defs><title>zyPic06</title><circle id="_路径_" data-name="&lt;路径&gt;" class="cls-1" cx="41" cy="41" r="41"/><g id="_编组_" data-name="&lt;编组&gt;"><path class="cls-2" d="M60.36,48.83H57.44a1,1,0,0,1,0-2h2.93a1.92,1.92,0,0,0,1.92-1.92V21.2a1.92,1.92,0,0,0-1.92-1.92H21.64a1.92,1.92,0,0,0-1.92,1.92V44.92a1.92,1.92,0,0,0,1.92,1.92h4.67a1,1,0,1,1,0,2H21.64a3.92,3.92,0,0,1-3.92-3.92V21.2a3.92,3.92,0,0,1,3.92-3.92H60.36a3.92,3.92,0,0,1,3.92,3.92V44.92A3.92,3.92,0,0,1,60.36,48.83Z"/></g><path class="cls-2" d="M34.47,43a1,1,0,0,1-.49-.13,10.33,10.33,0,1,1,14.07-4.05,1,1,0,1,1-1.75-1A8.33,8.33,0,1,0,35,41.12,1,1,0,0,1,34.47,43Z"/><path class="cls-2" d="M47.67,48.17a1,1,0,0,1-1-1v-6.4c-1-1.59-4-.66-4-.65a1,1,0,0,1-.63-1.9c1.79-.6,5.19-.88,6.54,1.83l.11.21v6.9A1,1,0,0,1,47.67,48.17Z"/><path class="cls-2" d="M53,50.83a1,1,0,0,1-1-1V44.5a3.11,3.11,0,0,0-.95-2.58,4.26,4.26,0,0,0-3.15-.45,1,1,0,0,1-.48-1.94c.12,0,2.91-.71,4.86.81A5,5,0,0,1,54,44.5v5.33A1,1,0,0,1,53,50.83Z"/><path class="cls-2" d="M44.53,65.71a10.63,10.63,0,0,1-8.24-3.17l-8.83-8.83a4.07,4.07,0,0,1-1-1.75c-.49-1.69-.81-4,.39-5.63a4.13,4.13,0,0,1,3.51-1.5,7,7,0,0,1,4.33,1.22V35.17a4.67,4.67,0,0,1,1.2-3.38,3.83,3.83,0,0,1,2.79-1.13,4.62,4.62,0,0,1,4.68,4.52V45.83a1,1,0,0,1-2,0V35.17a2.65,2.65,0,0,0-2.68-2.52c-1.26,0-2,.92-2,2.52V49.83a1,1,0,0,1-2,0c0-.3-.18-3-4.33-3a2.24,2.24,0,0,0-1.91.7c-.53.71-.56,2.16-.06,3.87a2.06,2.06,0,0,0,.52.89l8.83,8.83c2.85,2.85,5.6,2.7,9.39,2.49,1-.06,2.09-.12,3.23-.12,3.83,0,5.26-4.24,5.61-5.54a1.83,1.83,0,0,0,.06-.47v-9c0-2.15-.44-3.64-1.24-4.2a1.75,1.75,0,0,0-1.42-.2,1,1,0,0,1-.69-1.88,3.72,3.72,0,0,1,3.25.43C57.3,43.63,58,45.6,58,48.5v9a3.84,3.84,0,0,1-.13,1c-.44,1.65-2.29,7-7.54,7-1.08,0-2.12.06-3.12.11S45.42,65.71,44.53,65.71Z"/></svg>