<?xml version="1.0" encoding="iso-8859-1"?>
<!-- Generator: Adobe Illustrator 21.0.0, SVG Export Plug-In . SVG Version: 6.00 Build 0)  -->
<svg version="1.1" id="&#x56FE;&#x5C42;_1" xmlns="http://www.w3.org/2000/svg" xmlns:xlink="http://www.w3.org/1999/xlink" x="0px"
	 y="0px" viewBox="0 0 82 82" style="enable-background:new 0 0 82 82;" xml:space="preserve">
<g>
	<g>
		<circle style="fill:#EAAC11;" cx="41" cy="41" r="41"/>
	</g>
	<g id="XMLID_2_">
		<g id="XMLID_27_">
			<path id="XMLID_28_" style="fill:#FFFFFF;" d="M41.108,55.793l-0.587-0.563c-0.576-0.553-14.107-13.621-14.107-21.538
				C26.414,25.591,33.006,19,41.108,19C49.209,19,55.8,25.591,55.8,33.693c0,7.917-13.53,20.985-14.106,21.538L41.108,55.793z
				 M41.108,20.694c-7.168,0-12.999,5.831-12.999,12.999c0,6.331,10.392,17.128,12.999,19.736
				c2.606-2.609,12.998-13.41,12.998-19.736C54.106,26.525,48.275,20.694,41.108,20.694z"/>
		</g>
		<g id="XMLID_21_">
			<path id="XMLID_22_" style="fill:#FFFFFF;" d="M41.17,41.684c-4.162,0-7.548-3.386-7.548-7.549c0-4.162,3.386-7.548,7.548-7.548
				c4.163,0,7.549,3.386,7.549,7.548C48.72,38.298,45.333,41.684,41.17,41.684z M41.17,28.281c-3.228,0-5.854,2.626-5.854,5.854
				c0,3.228,2.626,5.855,5.854,5.855c3.228,0,5.855-2.627,5.855-5.855C47.025,30.907,44.399,28.281,41.17,28.281z"/>
		</g>
		<g id="XMLID_18_">
			<polygon id="XMLID_19_" style="fill:#FFFFFF;" points="62.946,63 19.054,63 23.717,46.904 29.597,46.904 29.597,48.598 
				24.99,48.598 21.309,61.306 60.615,61.306 56.487,48.598 51.624,48.598 51.624,46.904 57.718,46.904 			"/>
		</g>
	</g>
</g>
</svg>
