<?xml version="1.0" encoding="iso-8859-1"?>
<!-- Generator: Adobe Illustrator 21.0.0, SVG Export Plug-In . SVG Version: 6.00 Build 0)  -->
<svg version="1.1" id="&#x56FE;&#x5C42;_1" xmlns="http://www.w3.org/2000/svg" xmlns:xlink="http://www.w3.org/1999/xlink" x="0px"
	 y="0px" viewBox="0 0 82 82" style="enable-background:new 0 0 82 82;" xml:space="preserve">
<g>
	<g>
		<circle style="fill:#EA3D56;" cx="41" cy="41" r="41"/>
	</g>
	<g id="XMLID_123_">
		<g id="XMLID_129_">
			<path style="fill:#FFFFFF;" d="M21.834,63h-2.027v-0.685h-0.685v-2.027h0.685V48.895L49.506,19l13.371,13.62l-29.9,29.695H21.834
				V63z M21.834,60.289h10.308l27.877-27.686L49.497,21.884L21.834,49.73V60.289z"/>
		</g>
		<g id="XMLID_128_">
			
				<rect x="26.474" y="47.245" transform="matrix(0.7071 -0.7071 0.7071 0.7071 -31.0672 35.6395)" style="fill:#FFFFFF;" width="2.026" height="16.152"/>
		</g>
		<g id="XMLID_127_">
			
				<rect x="50.243" y="23.476" transform="matrix(0.7071 -0.7071 0.7071 0.7071 -7.298 45.4863)" style="fill:#FFFFFF;" width="2.026" height="16.153"/>
		</g>
		<g id="XMLID_126_">
			
				<rect x="41.647" y="30.465" transform="matrix(0.7071 -0.7071 0.7071 0.7071 -11.2316 39.9961)" style="fill:#FFFFFF;" width="2.026" height="6.179"/>
		</g>
		<g id="XMLID_125_">
			
				<rect x="38.588" y="33.694" transform="matrix(0.7071 -0.7071 0.7071 0.7071 -15.8967 39.3916)" style="fill:#FFFFFF;" width="2.026" height="10.381"/>
		</g>
		<g id="XMLID_124_">
			
				<rect x="32.733" y="39.276" transform="matrix(0.7071 -0.7072 0.7072 0.7071 -19.8986 36.2021)" style="fill:#FFFFFF;" width="2.026" height="5.685"/>
		</g>
	</g>
</g>
</svg>
