<svg id="图层_1" data-name="图层 1" xmlns="http://www.w3.org/2000/svg" viewBox="0 0 82 82"><defs><style>.cls-1{fill:#77bc0c;}.cls-2{fill:#fff;}</style></defs><title>zyPic02</title><circle id="_路径_" data-name="&lt;路径&gt;" class="cls-1" cx="41" cy="41" r="41"/><g id="_编组_" data-name="&lt;编组&gt;"><path class="cls-2" d="M53.62,29.91H28.2a1,1,0,0,1,0-2H53.62a1,1,0,0,1,0,2Z"/></g><g id="_编组_2" data-name="&lt;编组&gt;"><path class="cls-2" d="M49.51,37.11H28.2a1,1,0,1,1,0-2H49.51a1,1,0,0,1,0,2Z"/></g><g id="_编组_3" data-name="&lt;编组&gt;"><path class="cls-2" d="M38.55,44.32H28.2a1,1,0,0,1,0-2H38.55a1,1,0,1,1,0,2Z"/></g><g id="_编组_4" data-name="&lt;编组&gt;"><path class="cls-2" d="M33,51.52H28.2a1,1,0,0,1,0-2H33a1,1,0,0,1,0,2Z"/></g><g id="_编组_5" data-name="&lt;编组&gt;"><path class="cls-2" d="M39.31,64H24.39a4,4,0,0,1-4-4V22a4,4,0,0,1,4-4H57.61a4,4,0,0,1,4,4V43.32h-2V22a2,2,0,0,0-2-2H24.39a2,2,0,0,0-2,2V60a2,2,0,0,0,2,2H39.31Z"/></g><g id="_编组_6" data-name="&lt;编组&gt;"><path class="cls-2" d="M39.55,62.85h-2c0-3.33,1.69-7.54,4.32-9.51A6.46,6.46,0,0,1,40.21,49c0-3.15,1.74-5.6,4.44-6.24a3,3,0,0,1,.77,0l0,2H45c-1.74.47-2.81,2.09-2.81,4.27a4.44,4.44,0,0,0,1.93,3.68l1.54,1.05-1.73.7C41.47,55.44,39.55,59.78,39.55,62.85Z"/></g><path class="cls-2" d="M52.06,54a6.69,6.69,0,1,1,6.57-6.69A6.64,6.64,0,0,1,52.06,54Zm0-11.37a4.69,4.69,0,1,0,4.57,4.69A4.63,4.63,0,0,0,52.06,42.66Z"/><path class="cls-2" d="M61.49,64H42.78l-.07-.92c0-.27,0-.54,0-.81a9.47,9.47,0,1,1,18.94,0c0,.27,0,.54,0,.81ZM44.67,62H59.6a7.47,7.47,0,0,0-14.93,0Z"/></svg>