<?xml version="1.0" encoding="iso-8859-1"?>
<!-- Generator: Adobe Illustrator 21.0.0, SVG Export Plug-In . SVG Version: 6.00 Build 0)  -->
<svg version="1.1" id="&#x56FE;&#x5C42;_1" xmlns="http://www.w3.org/2000/svg" xmlns:xlink="http://www.w3.org/1999/xlink" x="0px"
	 y="0px" viewBox="0 0 82 82" style="enable-background:new 0 0 82 82;" xml:space="preserve">
<g>
	<circle style="fill:#EF5E41;" cx="41" cy="41" r="41"/>
</g>
<g id="XMLID_328_">
	<g id="XMLID_432_">
		<path style="fill:#FFFFFF;" d="M58.23,21.611h-2.272h-1.649v-0.456v-0.858c0-0.714-0.619-1.297-1.353-1.297
			c-0.744,0-1.334,0.583-1.334,1.297v0.858v0.456h-5.288v-0.456v-0.858c0-0.714-0.619-1.297-1.352-1.297
			c-0.744,0-1.334,0.583-1.334,1.297v0.858v0.456H39.27h-0.91v-0.456v-0.858c0-0.714-0.619-1.297-1.352-1.297
			c-0.744,0-1.334,0.583-1.334,1.297v0.858v0.456h-5.352v-0.456v-0.858c0-0.714-0.619-1.297-1.352-1.297
			c-0.744,0-1.334,0.583-1.334,1.297v0.858v0.456h-1.552H23.8h-0.021c-0.8,0-1.458,0.648-1.458,1.417v25.626v0.04
			c0,0.769,0.657,1.398,1.458,1.398h3.888v4.417h-3.888c-0.8,0-1.458,0.187-1.458,0.945c0,0.78,0.658,1.083,1.458,1.083h3.888v5.593
			v0.102c0,0.479,0.39,0.765,0.862,0.765h0.02h3.581h0.041c0.472,0,0.852-0.369,0.852-0.849v-2.51v-3.102h15.948v5.56v0.434
			c0,0.48,0.382,0.468,0.865,0.468h0.021h3.541h0.021c0.482,0,0.879,0.012,0.879-0.468v-2.925v-3.07h3.932
			c0.801,0,1.448-0.253,1.448-1.033c0-0.759-0.647-0.996-1.448-0.996h-3.932v-4.417H58.2h0.031c0.802,0,1.448-0.629,1.448-1.398
			V23.053v-0.024C59.678,22.259,59.032,21.611,58.23,21.611L58.23,21.611L58.23,21.611L58.23,21.611z M31.277,61.633h-1.83v-5.095
			h1.83v2.273l0,0l0,0V61.633z M31.277,54.509h-1.83v-4.417h1.83v2.591l0,0l0,0V54.509z M48.971,54.509H33.023v-4.417h15.948v2.591
			l0,0l0,0l0,0V54.509z M52.553,61.6h-1.836v-5.063h1.836v2.24l0,0l0,0V61.6z M52.553,54.509h-1.836v-4.417h1.836v2.591l0,0l0,0
			V54.509z M54.418,23.414h2.248h1.456l0.036,24.389v0.507H23.934l-0.036-24.895h1.479h2.146 M46.379,21.743h5.226"/>
	</g>
	<g id="XMLID_341_">
		<g id="XMLID_390_">
			<path id="XMLID_391_" style="fill:#FFFFFF;" d="M36.6,43.71h-0.83c-4.164,0-7.551-3.304-7.551-7.365s3.387-7.365,7.551-7.365
				s7.552,3.304,7.552,7.365v0.83H36.6V43.71z M35.77,30.64c-3.248,0-5.891,2.559-5.891,5.705c0,2.873,2.204,5.257,5.06,5.648
				v-6.478h6.659C41.183,32.761,38.727,30.64,35.77,30.64z"/>
		</g>
		<g id="XMLID_342_">
			<path id="XMLID_343_" style="fill:#FFFFFF;" d="M38.376,43.71h-0.83v-5.852h5.775v0.83C43.321,41.457,41.103,43.71,38.376,43.71z
				 M39.206,39.519v2.422c1.152-0.308,2.059-1.241,2.353-2.422H39.206z"/>
		</g>
	</g>
	<g id="XMLID_329_">
		<g id="XMLID_338_">
			<path style="fill:#FFFFFF;" d="M46.088,33.038h6.721v1.503h-6.721V33.038L46.088,33.038L46.088,33.038z"/>
		</g>
		<g id="XMLID_335_">
			<path style="fill:#FFFFFF;" d="M46.088,35.672h6.721v1.503h-6.721V35.672L46.088,35.672L46.088,35.672z"/>
		</g>
		<g id="XMLID_330_">
			<path style="fill:#FFFFFF;" d="M46.088,38.51h6.721v1.503h-6.721V38.51L46.088,38.51L46.088,38.51z"/>
		</g>
	</g>
</g>
</svg>
