<?xml version="1.0" encoding="iso-8859-1"?>
<!-- Generator: Adobe Illustrator 21.0.0, SVG Export Plug-In . SVG Version: 6.00 Build 0)  -->
<svg version="1.1" id="&#x56FE;&#x5C42;_1" xmlns="http://www.w3.org/2000/svg" xmlns:xlink="http://www.w3.org/1999/xlink" x="0px"
	 y="0px" viewBox="0 0 82 82" style="enable-background:new 0 0 82 82;" xml:space="preserve">
<g>
	<circle style="fill:#ED701D;" cx="41" cy="41" r="41"/>
</g>
<g>
	<g>
		<defs>
			<path id="SVGID_1_" d="M29.524,27.738v-1.77h22.121v1.77H29.524L29.524,27.738z M29.524,34.815v-1.767h9.733v1.767H29.524
				L29.524,34.815z M59.73,40.999V21.033c0-0.696-0.567-1.263-1.266-1.263H23.536c-0.698,0-1.266,0.567-1.266,1.263v39.935
				c0,0.696,0.567,1.263,1.266,1.263h14.33V64h-14.33c-1.675,0-3.035-1.362-3.035-3.033V21.033c0-1.673,1.36-3.033,3.035-3.033
				h34.928c1.673,0,3.035,1.36,3.035,3.033v19.966H59.73L59.73,40.999z M61.068,47.932l-2.764,1.651
				c0.017,0.502,0.012,1.161-0.01,1.665l2.742,1.619c0.38,0.226,0.538,0.696,0.366,1.103l-1.241,2.965
				c-0.17,0.405-0.606,0.628-1.033,0.516l-3.084-0.783c-0.371,0.436-0.781,0.839-1.222,1.203l0.788,3.05
				c0.111,0.427-0.112,0.873-0.521,1.04l-2.97,1.217c-0.109,0.044-0.223,0.065-0.337,0.065c-0.303,0-0.596-0.158-0.759-0.432
				l-1.646-2.764c-0.497,0.017-1.154,0.015-1.653-0.007l-1.639,2.744c-0.228,0.378-0.698,0.528-1.103,0.364l-2.967-1.244
				c-0.402-0.17-0.623-0.606-0.516-1.03l0.776-3.093c-0.441-0.378-0.848-0.79-1.215-1.234l-3.021,0.807
				c-0.434,0.116-0.88-0.109-1.047-0.519l-1.217-2.97c-0.167-0.407-0.01-0.873,0.368-1.098l2.759-1.634
				c-0.015-0.512-0.012-1.195,0.012-1.721l-2.737-1.573c-0.385-0.221-0.548-0.696-0.373-1.108l1.241-2.965
				c0.172-0.41,0.623-0.63,1.047-0.512l3.035,0.822c0.383-0.456,0.805-0.875,1.263-1.251l-0.8-3.04
				c-0.114-0.429,0.109-0.875,0.521-1.045l2.977-1.214c0.405-0.165,0.875-0.01,1.098,0.371l1.615,2.756
				c0.511-0.017,1.183-0.012,1.692,0.01l1.627-2.744c0.225-0.381,0.698-0.533,1.103-0.364l2.965,1.244
				c0.41,0.17,0.628,0.616,0.514,1.042l-0.812,3.045c0.451,0.378,0.865,0.798,1.241,1.253l3.042-0.795
				c0.431-0.109,0.873,0.114,1.042,0.521l1.215,2.972C61.599,47.244,61.444,47.709,61.068,47.932L61.068,47.932z M58.871,45.253
				l-2.861,0.744c-0.349,0.092-0.725-0.041-0.938-0.337c-0.48-0.662-1.055-1.244-1.712-1.729c-0.291-0.216-0.422-0.589-0.33-0.938
				l0.764-2.863l-1.544-0.647l-1.513,2.555c-0.184,0.31-0.548,0.48-0.902,0.422c-0.344-0.056-2.044-0.065-2.393-0.015
				c-0.361,0.051-0.71-0.116-0.895-0.427l-1.501-2.565l-1.549,0.633l0.754,2.856c0.092,0.356-0.041,0.73-0.339,0.945
				c-0.664,0.478-1.251,1.055-1.741,1.721c-0.216,0.293-0.592,0.424-0.943,0.33l-2.851-0.773l-0.642,1.53l2.548,1.464
				c0.274,0.158,0.441,0.451,0.441,0.766c0,0.051-0.002,0.104-0.012,0.153c-0.063,0.376-0.068,2.087-0.017,2.41
				c0.053,0.356-0.114,0.71-0.424,0.892l-2.57,1.522l0.633,1.542l2.839-0.759c0.351-0.094,0.732,0.039,0.945,0.339
				c0.468,0.647,1.033,1.224,1.685,1.714c0.284,0.213,0.412,0.577,0.325,0.921l-0.73,2.907l1.559,0.652l1.527-2.553
				c0.184-0.306,0.553-0.473,0.902-0.419c0.344,0.053,2.01,0.061,2.342,0.01c0.046-0.005,0.09-0.01,0.133-0.01
				c0.308,0,0.599,0.162,0.759,0.432l1.532,2.572l1.552-0.635l-0.742-2.865c-0.092-0.352,0.044-0.722,0.337-0.936
				c0.65-0.473,1.222-1.035,1.702-1.675c0.216-0.286,0.582-0.417,0.926-0.325l2.895,0.734L59.473,54l-2.553-1.508
				c-0.313-0.187-0.482-0.546-0.424-0.907c0.063-0.371,0.063-2.044,0.017-2.352c-0.056-0.356,0.111-0.71,0.419-0.895l2.574-1.534
				L58.871,45.253L58.871,45.253z M51.815,53.561c-0.887,0.885-2.049,1.328-3.212,1.328c-1.164,0-2.325-0.444-3.21-1.328
				c-1.77-1.77-1.77-4.65,0-6.417c0.858-0.858,1.998-1.331,3.212-1.331c1.212,0,2.352,0.473,3.21,1.331
				c0.856,0.856,1.328,1.995,1.328,3.207C53.143,51.564,52.67,52.705,51.815,53.561L51.815,53.561z M50.564,48.395
				c-1.047-1.047-2.873-1.047-3.92,0c-1.079,1.079-1.079,2.836,0,3.915c1.081,1.081,2.839,1.081,3.92,0
				c0.521-0.524,0.81-1.219,0.81-1.959C51.373,49.612,51.087,48.916,50.564,48.395L50.564,48.395z"/>
		</defs>
		<use xlink:href="#SVGID_1_"  style="overflow:visible;fill:#FFFFFF;"/>
		<clipPath id="SVGID_2_">
			<use xlink:href="#SVGID_1_"  style="overflow:visible;"/>
		</clipPath>
		<g style="clip-path:url(#SVGID_2_);">
		</g>
	</g>
</g>
</svg>
