<?xml version="1.0" encoding="UTF-8"?>
<svg width="82px" height="82px" viewBox="0 0 82 82" version="1.1" xmlns="http://www.w3.org/2000/svg" xmlns:xlink="http://www.w3.org/1999/xlink">
    <!-- Generator: Sketch 62 (91390) - https://sketch.com -->
    <title>编组 2</title>
    <desc>Created with Sketch.</desc>
    <g id="页面-1" stroke="none" stroke-width="1" fill="none" fill-rule="evenodd">
        <g id="编组-2">
            <g id="供稿保护_证据文件包2" fill="#EE701B">
                <circle id="椭圆形" cx="41" cy="41" r="41"></circle>
            </g>
            <g id="文件夹" transform="translate(20.500000, 20.500000)" fill="#FFFFFF" fill-rule="nonzero">
                <path d="M4.39286292,29.4484341 L20.500025,29.4484341 L20.5000249,29.4484341 C21.4884384,29.4484341 22.2897109,30.2497025 22.2897109,31.2381201 C22.289711,32.2265336 21.4884426,33.0278062 20.5000249,33.0278062 L4.39286292,33.0278062 L4.39286292,36.607174 L36.6071865,36.607174 L36.6071865,14.9734523 L24.000648,14.9734523 L24.0006476,14.9734523 C19.1020571,14.9734521 15.1309707,11.0023617 15.1309707,6.10377532 C15.1309707,6.10377532 15.1309707,6.10377532 15.1309707,6.10377532 L15.1309707,4.39283822 L4.39286292,4.39283822 L4.39286292,29.448409 L4.39286292,29.4484341 Z M18.2307189,2.60316479 L33.0278313,2.60316479 L33.0278311,2.60316479 C35.9930757,2.60316466 38.396885,5.0069699 38.396885,7.97221865 L38.396885,11.5515865 C38.396885,11.6589676 38.396885,11.7627694 38.3861469,11.8665709 L38.3861472,11.8665711 C39.4999323,12.504486 40.1865715,13.6899311 40.1865715,14.9734622 L40.1865715,36.6071839 L40.1865715,36.6071839 C40.1865715,38.584015 38.5840346,40.1865517 36.6072035,40.1865517 C36.6072035,40.1865517 36.6072035,40.1865517 36.6072035,40.1865517 L4.39288032,40.1865517 L4.39288017,40.1865517 C2.41604906,40.1865517 0.813512319,38.584015 0.813512319,36.6071839 C0.813512319,36.6071839 0.813512319,36.6071839 0.813512319,36.6071839 L0.813512319,4.39286068 L0.813512319,4.39286122 C0.813512319,2.41603011 2.41604906,0.813493371 4.39288017,0.813493371 L15.1309879,0.813493371 L15.1309877,0.813493371 C16.4097412,0.813493371 17.5913441,1.49574492 18.2307229,2.60317939 L18.2307189,2.60316479 Z M34.8175423,11.39412 L34.8175423,7.97223124 L34.8175423,7.97223128 C34.8175423,6.98381782 34.0162616,6.18253038 33.0278439,6.18253038 L18.7103807,6.18253038 L18.7103807,6.18253038 C18.753409,9.07348904 21.1093956,11.3944136 24.0006605,11.39412 L34.8175423,11.39412 L34.8175423,11.39412 Z" id="形状"></path>
            </g>
        </g>
    </g>
</svg>