<svg id="图层_1" data-name="图层 1" xmlns="http://www.w3.org/2000/svg" viewBox="0 0 82 82"><defs><style>.cls-1{fill:#4a6fd4;}.cls-2{fill:#fff;}</style></defs><title>dianchawj</title><circle class="cls-1" cx="41" cy="41" r="41"/><g id="_编组_" data-name="&lt;编组&gt;"><path class="cls-2" d="M56.27,64H25.73a2.44,2.44,0,0,1-2.45-2.42V20.42A2.44,2.44,0,0,1,25.73,18H46.09a1,1,0,0,1,0,2H25.73a.43.43,0,0,0-.45.42V61.58a.43.43,0,0,0,.45.42H56.27a.44.44,0,0,0,.45-.42V31.77a1,1,0,1,1,2,0V61.58A2.44,2.44,0,0,1,56.27,64Z"/></g><g id="_编组_2" data-name="&lt;编组&gt;"><path class="cls-2" d="M57.72,32.77H47.54A2.74,2.74,0,0,1,45.09,30V19a1,1,0,0,1,1.74-.67L58.46,31.1a1,1,0,0,1-.74,1.67ZM47.09,21.58V30a1,1,0,0,0,.46.77h7.91Z"/></g><g id="_编组_3" data-name="&lt;编组&gt;"><path class="cls-2" d="M39.5,28.37H30.78a1,1,0,1,1,0-2H39.5a1,1,0,0,1,0,2Z"/></g><path class="cls-2" d="M41.84,39.82a2.87,2.87,0,0,1,.89,2.23,3.07,3.07,0,0,1-.59,1.85,16.16,16.16,0,0,1-1.3,1.22,3,3,0,0,0-.73.86,2.25,2.25,0,0,0-.3,1.17v.36H38.53v-.36a3,3,0,0,1,.3-1.38,6.16,6.16,0,0,1,1.6-1.84q.32-.32.54-.57a2,2,0,0,0,.46-1.25,2,2,0,0,0-.52-1.47,2.12,2.12,0,0,0-1.57-.55,2.06,2.06,0,0,0-1.76.78,3,3,0,0,0-.51,1.82H35.81A3.77,3.77,0,0,1,36.74,40a3.47,3.47,0,0,1,2.66-1A3.41,3.41,0,0,1,41.84,39.82Zm-2,9.08a.91.91,0,0,1,.27.67.92.92,0,0,1-.27.68,1,1,0,0,1-.68.27.92.92,0,0,1-.68-.27.93.93,0,0,1-.29-.68.85.85,0,0,1,.29-.67.89.89,0,0,1,.68-.27A.92.92,0,0,1,39.86,48.9Z"/><path class="cls-2" d="M39.12,54a9.63,9.63,0,1,1,2.37-.29A9.68,9.68,0,0,1,39.12,54Zm0-17.34a7.67,7.67,0,1,0,7.67,7.67A7.68,7.68,0,0,0,39.12,36.69Z"/><path class="cls-2" d="M51.55,58.37a1,1,0,0,1-.71-.29l-5.78-5.78a1,1,0,0,1,1.41-1.41l5.78,5.78a1,1,0,0,1-.71,1.71Z"/></svg>