<?xml version="1.0" encoding="iso-8859-1"?>
<!-- Generator: Adobe Illustrator 21.0.0, SVG Export Plug-In . SVG Version: 6.00 Build 0)  -->
<svg version="1.1" id="&#x56FE;&#x5C42;_1" xmlns="http://www.w3.org/2000/svg" xmlns:xlink="http://www.w3.org/1999/xlink" x="0px"
	 y="0px" viewBox="0 0 82 82" style="enable-background:new 0 0 82 82;" xml:space="preserve">
<g>
	<circle style="fill:#1DC4CB;" cx="41" cy="41" r="41"/>
</g>
<g>
	<g id="XMLID_713_">
		<path style="fill:#FFFFFF;" d="M60.25,54.75v-33c0-1.52-1.23-2.75-2.75-2.75h-33c-1.52,0-2.75,1.23-2.75,2.75v37.125
			c0,2.278,1.847,4.125,4.125,4.125h33.688c0.38,0,0.688-0.307,0.688-0.688s-0.307-0.688-0.688-0.688h-0.688v-5.5
			C59.634,56.125,60.25,55.509,60.25,54.75z M23.75,22.247c0-0.759,0.616-1.375,1.375-1.375L27.25,21v33.167h-1.375
			c-1.058,0-1.395,0.274-2.125,0.929V22.247z M57.068,61.068L26.042,61c-1.519,0-2.292-0.809-2.292-2.328s0.606-2.547,2.125-2.547
			l31.026,0.068L57.068,61.068z M29.333,54.167V21l27.542-0.083c0.759,0,1.375,0.616,1.375,1.375v31.792L29.333,54.167z"/>
	</g>
	<g id="XMLID_707_">
		<path style="fill:#FFFFFF;" d="M46.86,33.576H33.797c-0.38,0-0.688,0.447-0.688,1s0.307,1,0.688,1H46.86
			c0.38,0,0.688-0.447,0.688-1C47.547,34.023,47.24,33.576,46.86,33.576z"/>
	</g>
	<g id="XMLID_706_">
		<path style="fill:#FFFFFF;" d="M38.751,37.984h-5.359c-0.156,0-0.282,0.447-0.282,1s0.126,1,0.282,1h5.359
			c0.156,0,0.282-0.447,0.282-1S38.907,37.984,38.751,37.984z"/>
	</g>
	<g id="XMLID_702_">
		<path style="fill:#FFFFFF;" d="M51.672,29.167H33.797c-0.38,0-0.688,0.447-0.688,1s0.307,1,0.688,1h17.875
			c0.38,0,0.688-0.447,0.688-1S52.052,29.167,51.672,29.167z"/>
	</g>
	<g id="XMLID_394_">
		<path style="fill:#FFFFFF;" d="M33.797,26.759h8.25c0.38,0,0.688-0.447,0.688-1s-0.307-1-0.688-1h-8.25
			c-0.38,0-0.688,0.447-0.688,1C33.11,26.312,33.417,26.759,33.797,26.759z"/>
	</g>
	<g>
		<path style="fill:#FFFFFF;" d="M47.547,51.619c-0.553,0-1-0.447-1-1V38.984c0-0.553,0.447-1,1-1s1,0.447,1,1v11.635
			C48.547,51.171,48.1,51.619,47.547,51.619z"/>
	</g>
	<g>
		<path style="fill:#FFFFFF;" d="M53.364,45.801H41.73c-0.553,0-1-0.447-1-1s0.447-1,1-1h11.635c0.553,0,1,0.447,1,1
			S53.917,45.801,53.364,45.801z"/>
	</g>
</g>
</svg>
