<svg id="图层_1" data-name="图层 1" xmlns="http://www.w3.org/2000/svg" viewBox="0 0 82 82"><defs><style>.cls-1{fill:#716bf7;}.cls-2{fill:#fff;}</style></defs><title>sqdjPic</title><g id="_编组_" data-name="&lt;编组&gt;"><circle class="cls-1" cx="41" cy="41" r="41"/></g><rect class="cls-2" x="47.81" y="25.25" width="4" height="2"/><rect class="cls-2" x="47.81" y="29.25" width="4" height="2"/><rect class="cls-2" x="54.81" y="25.25" width="10" height="2"/><rect class="cls-2" x="58.81" y="29.25" width="6" height="2"/><rect class="cls-2" x="58.81" y="35.25" width="6" height="2"/><rect class="cls-2" x="57.81" y="40.25" width="7" height="2"/><rect class="cls-2" x="45.81" y="45.25" width="19" height="2"/><rect class="cls-2" x="45.81" y="49.25" width="19" height="2"/><rect class="cls-2" x="50.94" y="40.25" width="5.25" height="2"/><path class="cls-2" d="M30.31,36.75a6,6,0,1,1,6-6A6,6,0,0,1,30.31,36.75Zm0-10a4,4,0,1,0,4,4A4,4,0,0,0,30.31,26.75Z"/><path class="cls-2" d="M38.31,55.75h-2v-11a3,3,0,0,1,2.77-3l8.64-3.84a1.66,1.66,0,0,0,.47-1.79c-.32-.56-1.3-.72-2.57-.42l-7.11,3h-.2c-.1,0-10,0-12,0a3.16,3.16,0,0,0-2.25.7,3.28,3.28,0,0,0-.74,2.3v14h-2v-14A5.1,5.1,0,0,1,22.65,38a5.06,5.06,0,0,1,3.68-1.27c1.81,0,10.35,0,11.78,0l7-3c2.25-.56,4.07-.05,4.87,1.36A3.64,3.64,0,0,1,49,39.46l-.13.13-9.36,4.16h-.21a1,1,0,0,0-1,1Z"/><rect class="cls-2" x="48.53" y="32.57" width="8.7" height="2" transform="translate(-9.7 30.93) rotate(-29.99)"/><path class="cls-2" d="M64.81,57.25H20a3.85,3.85,0,0,1-3.85-3.85V46.25h2V53.4A1.85,1.85,0,0,0,20,55.25H64.81Z"/></svg>