<svg id="图层_1" data-name="图层 1" xmlns="http://www.w3.org/2000/svg" viewBox="0 0 82 82"><defs><style>.cls-1{fill:#2aa1f2;}.cls-2{fill:#fff;}</style></defs><title>画板 1 副本</title><circle id="_路径_" data-name="&lt;路径&gt;" class="cls-1" cx="41" cy="41" r="41"/><path class="cls-2" d="M41,20.05a7.2,7.2,0,1,1-7.2,7.2,7.21,7.21,0,0,1,7.2-7.2M41,18a9.25,9.25,0,1,0,9.25,9.25A9.25,9.25,0,0,0,41,18Z"/><path class="cls-2" d="M32,40.39l-1.19-1.68a18.74,18.74,0,0,1,10.77-3.23,18.94,18.94,0,0,1,10.36,3l-1.13,1.71a16.87,16.87,0,0,0-9.22-2.61A16.67,16.67,0,0,0,32,40.39Z"/><path class="cls-2" d="M41.09,64l-1.28-1.61c4.9-3.89,10.45-5.78,17.4-5.91V40c-6.39,0-11.84,1.57-16.15,4.8l-1.23-1.64C44.75,39.47,51,37.72,58.28,38l1,0V58.53h-1C51.32,58.47,45.85,60.23,41.09,64Z"/><path class="cls-2" d="M40.91,64c-4.75-3.77-10.22-5.49-17.15-5.47h-1V38l1,0c7.31-.25,13.53,1.5,18.44,5.19L40.93,44.8C36.62,41.57,31.16,40,24.78,40V56.48c7,.13,12.51,2,17.41,5.91Z"/><rect class="cls-2" x="40.03" y="43.79" width="2.05" height="18.67"/></svg>