<svg id="图层_1" data-name="图层 1" xmlns="http://www.w3.org/2000/svg" viewBox="0 0 82 82"><defs><style>.cls-1{fill:#716bf7;}.cls-2{fill:#fff;}</style></defs><title>zyPic03</title><circle id="_路径_" data-name="&lt;路径&gt;" class="cls-1" cx="41" cy="41" r="41"/><g id="_编组_" data-name="&lt;编组&gt;"><path class="cls-2" d="M57.69,64H24.31a3.92,3.92,0,0,1-3.92-3.92V24.3a3.92,3.92,0,0,1,3.92-3.92H32.6v2H24.31a1.92,1.92,0,0,0-1.92,1.92V60.08A1.92,1.92,0,0,0,24.31,62H57.69a1.92,1.92,0,0,0,1.92-1.92V24.3a1.92,1.92,0,0,0-1.92-1.92H49.6v-2h8.09a3.92,3.92,0,0,1,3.92,3.92V60.08A3.92,3.92,0,0,1,57.69,64Z"/></g><g id="_编组_2" data-name="&lt;编组&gt;"><path class="cls-2" d="M52.88,43.37H29.22a1,1,0,1,1,0-2H52.88a1,1,0,0,1,0,2Z"/></g><g id="_编组_3" data-name="&lt;编组&gt;"><path class="cls-2" d="M42.54,52.62H29.22a1,1,0,1,1,0-2H42.54a1,1,0,0,1,0,2Z"/></g><g id="_编组_4" data-name="&lt;编组&gt;"><path class="cls-2" d="M47.89,48H29.22a1,1,0,1,1,0-2H47.89a1,1,0,0,1,0,2Z"/></g><g id="_编组_5" data-name="&lt;编组&gt;"><path class="cls-2" d="M37.17,57.25h-8a1,1,0,1,1,0-2h8a1,1,0,0,1,0,2Z"/></g><g id="_编组_6" data-name="&lt;编组&gt;"><path class="cls-2" d="M52.88,39.53h-3a1,1,0,0,1,0-2h3a1,1,0,0,1,0,2Z"/></g><path class="cls-2" d="M37.7,41.23a1,1,0,0,1-.94-.67l-2.38-6.87-1.49,2.87a1,1,0,0,1-.89.54H29.12a1,1,0,1,1,0-2h2.27l2.28-4.4a1,1,0,0,1,1-.54,1,1,0,0,1,.87.67l2.09,6,2.35-8.47a1,1,0,0,1,1.91-.07l2.63,7.35,2.15-2.43a1,1,0,0,1,.75-.34h5.5a1,1,0,1,1,0,2h-5l-3,3.37A1,1,0,0,1,43.16,38L41,32,38.66,40.5a1,1,0,0,1-.93.73Z"/><path class="cls-2" d="M46.32,59.34a1,1,0,0,1-.71-.3l-3.29-3.36a1,1,0,0,1,1.43-1.4L46,56.61c1.21-2.43,3.83-6.82,6.85-6.82a1,1,0,0,1,0,2c-1.81,0-4.39,4.06-5.64,7a1,1,0,0,1-.74.59Z"/><path class="cls-2" d="M46.94,24.76H35.06a3.25,3.25,0,0,1-3.24-3.24v-.28A3.25,3.25,0,0,1,35.06,18H46.94a3.25,3.25,0,0,1,3.24,3.24v.28A3.25,3.25,0,0,1,46.94,24.76ZM35.06,20a1.24,1.24,0,0,0-1.24,1.24v.28a1.24,1.24,0,0,0,1.24,1.24H46.94a1.24,1.24,0,0,0,1.24-1.24v-.28A1.24,1.24,0,0,0,46.94,20Z"/></svg>