<?xml version="1.0" encoding="utf-8"?>
<!-- Generator: Adobe Illustrator 21.0.0, SVG Export Plug-In . SVG Version: 6.00 Build 0)  -->
<svg version="1.1" id="图层_1" xmlns="http://www.w3.org/2000/svg" xmlns:xlink="http://www.w3.org/1999/xlink" x="0px" y="0px"
	 viewBox="0 0 82 82" style="enable-background:new 0 0 82 82;" xml:space="preserve">
<style type="text/css">
	.st0{fill:#ED701C;}
	.st1{fill:#FFFFFF;}
</style>
<circle class="st0" cx="41.1" cy="41.4" r="41"/>
<g>
	<path class="st1" d="M60.6,18.4c-0.7,0-1.5,0.1-2.1,0.4H26c-3.2,0-5.5,2-5.5,4.8v30.7h-0.3c-2.8,0-5.1,2.3-5.1,5.1s2.3,5.1,5.1,5.1
		h5.8h24.5h0c3,0,5.3-2.4,5.3-5.4v-33h10.3c0.6,0,1-0.4,1-1C67.1,21.4,64.1,18.4,60.6,18.4z M25.9,62.4h-5.8c-1.7,0-3.1-1.4-3.1-3.1
		c0-1.7,1.4-3.1,3.1-3.1h26.5c-0.6,0.8-1,1.8-1,2.9c0,1.2,0.4,2.3,1.1,3.2H25.9z M53.8,59c0,1.9-1.4,3.3-3.1,3.4v-0.1
		c-1.6-0.1-2.9-1.5-2.9-3.1c0-1.5,1.1-2.7,2.5-2.9h0.3c0.3,0,0.5-0.1,0.5-0.1l-0.3-0.8l0-1.1c0,0-0.1,0-0.1,0c-0.2,0-0.4,0-0.5,0.1
		H22.5V23.5c0-1.9,1.8-2.8,3.5-2.8h29.4c-0.8,0.8-1.3,1.9-1.5,3c-0.1,0.1-0.1,0.3-0.1,0.5V59z M55.9,23.9c0.5-2,2.5-3.5,4.7-3.5
		c2.1,0,4,1.5,4.4,3.5H55.9z"/>
	<path class="st1" d="M26,27.2h23.3c0.6,0,1-0.4,1-1s-0.4-1-1-1H26c-0.6,0-1,0.4-1,1S25.4,27.2,26,27.2z"/>
	<path class="st1" d="M26,32.5h11.6c0.6,0,1-0.4,1-1c0-0.6-0.4-1-1-1H26c-0.6,0-1,0.4-1,1C25,32,25.4,32.5,26,32.5z"/>
	<path class="st1" d="M51.3,33.5c-1.4-0.8-3.3-0.4-4.2,1L40.4,45l-1,7.2l6.9-4l6.1-10.4c0.4-0.7,0.5-1.6,0.3-2.4S52,33.9,51.3,33.5z
		 M42.2,46.8l1.3,0.7L42,48.4L42.2,46.8z M50.7,36.8l-5.5,9.4l-2.3-1.3l5.9-9.3v0c0.3-0.5,1-0.7,1.5-0.3c0.3,0.1,0.4,0.4,0.5,0.7
		C50.9,36.2,50.8,36.5,50.7,36.8z"/>
	<path class="st1" d="M38.6,39.4h-1.8v-1.8c0-0.6-0.4-1-1-1s-1,0.4-1,1v1.8h-1.8c-0.6,0-1,0.4-1,1s0.4,1,1,1h1.8v1.8
		c0,0.6,0.4,1,1,1s1-0.4,1-1v-1.8h1.8c0.6,0,1-0.4,1-1S39.2,39.4,38.6,39.4z"/>
	<path class="st1" d="M30.9,40.2c-0.2-0.7-0.8-1.1-1.5-1.1c-0.7,0-1.3,0.4-1.6,1.1l-3.5,9.4c-0.2,0.5,0.1,1.1,0.6,1.3
		c0.1,0,0.2,0.1,0.4,0.1c0.4,0,0.8-0.2,0.9-0.6l1.1-2.8h4l0.9,2.8c0.2,0.5,0.7,0.8,1.3,0.6c0.5-0.2,0.8-0.7,0.6-1.3L30.9,40.2z
		 M27.9,45.4l1.4-3.6l1.2,3.6H27.9z"/>
</g>
</svg>
