<?xml version="1.0" encoding="iso-8859-1"?>
<!-- Generator: Adobe Illustrator 21.0.0, SVG Export Plug-In . SVG Version: 6.00 Build 0)  -->
<svg version="1.1" id="&#x56FE;&#x5C42;_1" xmlns="http://www.w3.org/2000/svg" xmlns:xlink="http://www.w3.org/1999/xlink" x="0px"
	 y="0px" viewBox="0 0 82 82" style="enable-background:new 0 0 82 82;" xml:space="preserve">
<g>
	<g>
		<circle style="fill:#2AA1F2;" cx="41" cy="41" r="41"/>
	</g>
	<g>
		<g id="XMLID_42_">
			<g id="XMLID_43_">
				<path style="fill:#FFFFFF;" d="M53.313,63c-6.913-0.001-8.904-0.008-29.588-0.081c-1.126,0-2.49-0.953-2.49-2.137v-39.84
					c0-1.251,1.519-1.942,2.568-1.942h34.488c1.12,0,2.473,0.962,2.473,2.157l-0.423,34.964c-0.006,0.487-0.196,0.948-0.533,1.297
					c-0.181,0.186-0.386,0.411-0.613,0.661c-0.917,1.008-2.14,2.353-3.56,3.196C55.335,62.272,54.408,63,53.313,63z M23.235,60.675
					c0.093,0.105,0.328,0.244,0.494,0.244c20.682,0.073,22.674,0.08,29.584,0.081c0.234,0,0.424-0.188,0.424-0.42V26.417H23.235
					V60.675z M23.235,24.417h32.502v34.314c0.74-0.636,1.422-1.386,1.978-1.998c0.245-0.269,0.465-0.511,0.657-0.708l0.391-34.772
					C58.677,21.147,58.444,21,58.292,21H23.803c-0.208,0-0.439,0.088-0.568,0.164V24.417z"/>
			</g>
		</g>
		<g id="XMLID_38_">
			<g id="XMLID_41_">
				<polygon style="fill:#FFFFFF;" points="26.652,44.373 26.652,25.417 28.652,25.417 28.652,39.852 30.817,37.883 33.875,40.134 
					33.875,25.417 35.875,25.417 35.875,44.091 30.951,40.465 				"/>
			</g>
		</g>
		<g>
			<path style="fill:#FFFFFF;" d="M49.321,54.405H27.652c-0.552,0-1-0.447-1-1s0.448-1,1-1h21.668c0.552,0,1,0.447,1,1
				S49.873,54.405,49.321,54.405z"/>
		</g>
		<g>
			<path style="fill:#FFFFFF;" d="M47.966,34.543h-7.223c-0.552,0-1-0.447-1-1s0.448-1,1-1h7.223c0.552,0,1,0.447,1,1
				S48.518,34.543,47.966,34.543z"/>
		</g>
		<g>
			<path style="fill:#FFFFFF;" d="M47.966,39.057h-7.223c-0.552,0-1-0.447-1-1s0.448-1,1-1h7.223c0.552,0,1,0.447,1,1
				S48.518,39.057,47.966,39.057z"/>
		</g>
	</g>
</g>
</svg>
