<?xml version="1.0" encoding="iso-8859-1"?>
<!-- Generator: Adobe Illustrator 21.0.0, SVG Export Plug-In . SVG Version: 6.00 Build 0)  -->
<svg version="1.1" id="&#x56FE;&#x5C42;_1" xmlns="http://www.w3.org/2000/svg" xmlns:xlink="http://www.w3.org/1999/xlink" x="0px"
	 y="0px" viewBox="0 0 82 82" style="enable-background:new 0 0 82 82;" xml:space="preserve">
<g>
	<g>
		<circle style="fill:#EA4766;" cx="41" cy="41" r="41"/>
	</g>
	<g>
		<g id="XMLID_57_">
			<rect x="34.743" y="27.655" style="fill:#FFFFFF;" width="9.24" height="2"/>
		</g>
		<g id="XMLID_56_">
			<rect x="34.743" y="37.492" style="fill:#FFFFFF;" width="9.24" height="2"/>
		</g>
		<g id="XMLID_55_">
			<rect x="34.743" y="32.574" style="fill:#FFFFFF;" width="14.483" height="2"/>
		</g>
		<g id="XMLID_54_">
			<rect x="34.743" y="50.035" style="fill:#FFFFFF;" width="18.854" height="2"/>
		</g>
		<g id="XMLID_51_">
			<path style="fill:#FFFFFF;" d="M59,63H23c-2.206,0-4-1.794-4-4V30.622c0-2.206,1.794-4,4-4h2.749V23c0-2.206,1.794-4,4-4H59
				c2.206,0,4,1.794,4,4v36C63,61.206,61.206,63,59,63z M23,28.622c-1.103,0-2,0.897-2,2V59c0,1.103,0.897,2,2,2h36
				c1.103,0,2-0.897,2-2V23c0-1.103-0.897-2-2-2H29.749c-1.103,0-2,0.897-2,2v32.866h-2V28.622H23z"/>
		</g>
		<g>
			<polygon style="fill:#FFFFFF;" points="44.403,48.126 37.883,44.4 38.875,42.664 44.116,45.659 56.177,34.401 57.541,35.864 			
				"/>
		</g>
	</g>
</g>
</svg>
