<?xml version="1.0" encoding="iso-8859-1"?>
<!-- Generator: Adobe Illustrator 21.0.0, SVG Export Plug-In . SVG Version: 6.00 Build 0)  -->
<svg version="1.1" id="&#x56FE;&#x5C42;_1" xmlns="http://www.w3.org/2000/svg" xmlns:xlink="http://www.w3.org/1999/xlink" x="0px"
	 y="0px" viewBox="0 0 82 82" style="enable-background:new 0 0 82 82;" xml:space="preserve">
<g>
	<g>
		<circle style="fill:#4A6FD4;" cx="41" cy="41" r="41"/>
	</g>
	<g>
		<g id="XMLID_76_">
			<g id="XMLID_78_">
				<path style="fill:#FFFFFF;" d="M36.638,40.868c-5.085,0-9.223-4.138-9.223-9.223s4.137-9.223,9.223-9.223
					s9.223,4.138,9.223,9.223S41.723,40.868,36.638,40.868z M36.638,24.423c-3.982,0-7.223,3.24-7.223,7.223s3.24,7.223,7.223,7.223
					s7.223-3.24,7.223-7.223S40.62,24.423,36.638,24.423z"/>
			</g>
			<g id="XMLID_77_">
				<path style="fill:#FFFFFF;" d="M55.275,59.577H18v-1c0-10.451,8.187-18.638,18.638-18.638s18.638,8.187,18.638,18.638V59.577z
					 M20.028,57.577h33.219c-0.5-8.847-7.616-15.638-16.609-15.638S20.529,48.73,20.028,57.577z"/>
			</g>
		</g>
		<g id="XMLID_71_">
			<g id="XMLID_75_">
				<path style="fill:#FFFFFF;" d="M63,32.444H49.438c-0.552,0-1-0.447-1-1s0.448-1,1-1H63c0.552,0,1,0.447,1,1
					S63.552,32.444,63,32.444z"/>
			</g>
			<g id="XMLID_74_">
				<path style="fill:#FFFFFF;" d="M63,39.977H48.082c-0.552,0-1-0.447-1-1s0.448-1,1-1H63c0.552,0,1,0.447,1,1
					S63.552,39.977,63,39.977z"/>
			</g>
			<g id="XMLID_73_">
				<path style="fill:#FFFFFF;" d="M63,47.258h-8.314c-0.552,0-1-0.447-1-1s0.448-1,1-1H63c0.552,0,1,0.447,1,1
					S63.552,47.258,63,47.258z"/>
			</g>
			<g id="XMLID_72_">
				<path style="fill:#FFFFFF;" d="M63,55.166h-4.658c-0.552,0-1-0.447-1-1s0.448-1,1-1H63c0.552,0,1,0.447,1,1
					S63.552,55.166,63,55.166z"/>
			</g>
		</g>
	</g>
</g>
</svg>
