<?xml version="1.0" encoding="iso-8859-1"?>
<!-- Generator: Adobe Illustrator 21.0.0, SVG Export Plug-In . SVG Version: 6.00 Build 0)  -->
<svg version="1.1" id="&#x56FE;&#x5C42;_1" xmlns="http://www.w3.org/2000/svg" xmlns:xlink="http://www.w3.org/1999/xlink" x="0px"
	 y="0px" viewBox="0 0 82 82" style="enable-background:new 0 0 82 82;" xml:space="preserve">
<g>
	<circle style="fill:#C069E8;" cx="41" cy="41" r="41"/>
</g>
<g id="XMLID_450_">
	<g id="XMLID_458_">
		<path id="XMLID_459_" style="fill:#FFFFFF;" d="M59.995,63H44.697c-1.525,0-2.765-1.149-2.765-2.56v-2.878
			c0-1.411,1.24-2.558,2.765-2.558H46.4l3.475-4.275c-1.452-0.788-2.722-2.195-2.722-3.98c0-2.605,2.329-4.726,5.193-4.726
			c2.863,0,5.193,2.12,5.193,4.726c0,1.785-1.269,3.191-2.721,3.98l3.474,4.275h1.704c0.72,0,1.401,0.255,1.92,0.716
			c0.545,0.487,0.845,1.14,0.845,1.842v2.878C62.76,61.851,61.519,62.999,59.995,63z M44.697,56.696
			c-0.582,0-1.073,0.397-1.073,0.866v2.878c0,0.47,0.491,0.868,1.073,0.868h15.297c0.582-0.001,1.073-0.397,1.073-0.868v-2.879
			c0-0.287-0.174-0.485-0.279-0.578c-0.207-0.185-0.488-0.287-0.792-0.287h-2.509l-5.141-6.325l-5.141,6.325H44.697z M52.346,43.715
			c-1.93,0-3.501,1.361-3.501,3.033c0,1.317,1.331,2.424,2.646,2.838l0.855,0.269l0.855-0.269c1.315-0.413,2.645-1.52,2.645-2.838
			C55.847,45.076,54.277,43.715,52.346,43.715z M38.707,61.101h-16.21c-1.796,0-3.257-1.345-3.257-2.998V21.997
			c0-1.653,1.461-2.997,3.257-2.997H55.38c1.796,0,3.257,1.344,3.257,2.997V40.71h-1.692V21.997c0-0.72-0.702-1.305-1.565-1.305
			H22.497c-0.863,0-1.564,0.585-1.564,1.305v36.106c0,0.72,0.702,1.306,1.564,1.306h16.21V61.101z"/>
	</g>
	<g id="XMLID_457_">
		<rect x="25.785" y="27.176" style="fill:#FFFFFF;" width="25.29" height="1.771"/>
	</g>
	<g id="XMLID_455_">
		<rect x="25.785" y="33.793" style="fill:#FFFFFF;" width="25.29" height="1.771"/>
	</g>
	<g id="XMLID_454_">
		<rect x="25.785" y="40.409" style="fill:#FFFFFF;" width="17.025" height="1.771"/>
	</g>
	<g id="XMLID_452_">
		<rect x="25.785" y="47.026" style="fill:#FFFFFF;" width="13.557" height="1.771"/>
	</g>
	<g id="XMLID_451_">
		<rect x="47.029" y="55.047" style="fill:#FFFFFF;" width="11.144" height="1.621"/>
	</g>
</g>
</svg>
