<?xml version="1.0" encoding="iso-8859-1"?>
<!-- Generator: Adobe Illustrator 21.0.0, SVG Export Plug-In . SVG Version: 6.00 Build 0)  -->
<svg version="1.1" id="&#x56FE;&#x5C42;_1" xmlns="http://www.w3.org/2000/svg" xmlns:xlink="http://www.w3.org/1999/xlink" x="0px"
	 y="0px" viewBox="0 0 82 82" style="enable-background:new 0 0 82 82;" xml:space="preserve">
<g>
	<circle style="fill:#E54040;" cx="41" cy="41" r="41"/>
</g>
<g>
	<g>
		<defs>
			<path id="SVGID_1_" d="M57.801,63h-33.6C21.886,63,20,61.206,20,59V23c0-2.206,1.886-4,4.201-4h33.6C60.116,19,62,20.794,62,23
				v36C62,61.206,60.116,63,57.801,63L57.801,63z M59.901,23c0-1.103-0.941-2-2.099-2h-33.6c-1.159,0-2.099,0.897-2.099,2v36
				c0,1.103,0.941,2,2.099,2h33.6c1.159,0,2.099-0.897,2.099-2V23L59.901,23z M35.127,35.223c-2.354,0-4.272-1.915-4.272-4.269
				c0-2.356,1.918-4.272,4.272-4.272s4.269,1.915,4.269,4.272C39.396,33.308,37.481,35.223,35.127,35.223L35.127,35.223z
				 M35.127,28.682c-1.253,0-2.271,1.018-2.271,2.272c0,1.251,1.018,2.269,2.271,2.269c1.251,0,2.269-1.018,2.269-2.269
				C37.396,29.701,36.378,28.682,35.127,28.682L35.127,28.682z M28.24,41.107v-0.999c0-3.796,3.091-6.885,6.887-6.885
				s6.885,3.088,6.885,6.885v0.999L28.24,41.107L28.24,41.107z M35.127,35.223c-2.352,0-4.32,1.668-4.783,3.884h9.564
				C39.447,36.891,37.476,35.223,35.127,35.223L35.127,35.223z M34.734,46.796h-5.493c-0.553,0-1.001-0.446-1.001-0.999
				s0.448-1.001,1.001-1.001h5.493c0.553,0,0.999,0.449,0.999,1.001C35.733,46.35,35.287,46.796,34.734,46.796L34.734,46.796z
				 M52.761,46.796H38.657c-0.553,0-0.999-0.446-0.999-0.999s0.446-1.001,0.999-1.001h14.104c0.553,0,0.999,0.449,0.999,1.001
				C53.76,46.35,53.314,46.796,52.761,46.796L52.761,46.796z M52.364,29.039h-2.553c-0.553,0-1.001-0.449-1.001-1.001
				c0-0.553,0.448-0.999,1.001-0.999h2.553c0.553,0,0.999,0.446,0.999,0.999C53.362,28.59,52.916,29.039,52.364,29.039
				L52.364,29.039z M52.761,32.825h-6.347c-0.553,0-1.001-0.448-1.001-1.001c0-0.553,0.448-0.999,1.001-0.999h6.347
				c0.553,0,0.999,0.446,0.999,0.999C53.76,32.377,53.314,32.825,52.761,32.825L52.761,32.825z M52.761,41.107h-4.63
				c-0.553,0-1.001-0.446-1.001-0.999s0.448-1.001,1.001-1.001h4.63c0.553,0,0.999,0.448,0.999,1.001
				C53.76,40.661,53.314,41.107,52.761,41.107L52.761,41.107z M52.761,36.966h-8.463c-0.55,0-0.999-0.449-0.999-1.001
				s0.448-0.999,0.999-0.999h8.463c0.553,0,0.999,0.446,0.999,0.999S53.314,36.966,52.761,36.966L52.761,36.966z M52.761,50.721
				h-4.936c-0.553,0-1.001-0.446-1.001-0.999s0.448-1.001,1.001-1.001h4.936c0.553,0,0.999,0.448,0.999,1.001
				C53.76,50.275,53.314,50.721,52.761,50.721L52.761,50.721z M39.421,49.938c-1.712,0-4.153,3.779-5.341,6.465
				c-0.133,0.301-0.407,0.519-0.732,0.577c-0.061,0.012-0.121,0.017-0.182,0.017c-0.264,0-0.519-0.102-0.708-0.291l-3.139-3.139
				c-0.39-0.39-0.39-1.023,0-1.413c0.39-0.393,1.023-0.393,1.413,0l2.141,2.141c1.176-2.291,3.668-6.356,6.548-6.356
				c0.553,0,1.001,0.446,1.001,0.999C40.422,49.49,39.973,49.938,39.421,49.938L39.421,49.938z M53.365,56.011
				c-0.179,0.138-0.393,0.204-0.604,0.204c-0.301,0-0.599-0.136-0.798-0.395c-0.046-0.053-1.547-1.758-6.078-0.429
				c-5.685,1.661-7.108,0.065-7.411-0.465c-0.274-0.48-0.107-1.091,0.373-1.365c0.446-0.252,1.004-0.128,1.302,0.276
				c0.121,0.095,1.207,0.793,5.173-0.366c5.961-1.743,8.143,1.021,8.233,1.139C53.891,55.048,53.806,55.676,53.365,56.011
				L53.365,56.011z"/>
		</defs>
		<use xlink:href="#SVGID_1_"  style="overflow:visible;fill:#FFFFFF;"/>
		<clipPath id="SVGID_2_">
			<use xlink:href="#SVGID_1_"  style="overflow:visible;"/>
		</clipPath>
		<g style="clip-path:url(#SVGID_2_);">
		</g>
	</g>
</g>
</svg>
