<?xml version="1.0" encoding="iso-8859-1"?>
<!-- Generator: Adobe Illustrator 21.0.0, SVG Export Plug-In . SVG Version: 6.00 Build 0)  -->
<svg version="1.1" id="&#x56FE;&#x5C42;_1" xmlns="http://www.w3.org/2000/svg" xmlns:xlink="http://www.w3.org/1999/xlink" x="0px"
	 y="0px" viewBox="0 0 82 82" style="enable-background:new 0 0 82 82;" xml:space="preserve">
<g>
	<g>
		<circle style="fill:#2AA1F2;" cx="41" cy="41" r="41"/>
	</g>
	<g id="XMLID_130_">
		<g id="XMLID_323_">
			<g>
				<path style="fill-rule:evenodd;clip-rule:evenodd;fill:none;stroke:#FFFFFF;stroke-width:2;stroke-miterlimit:10;" d="
					M32.141,45.22"/>
			</g>
		</g>
		<g id="XMLID_322_">
			<g>
				<path style="fill-rule:evenodd;clip-rule:evenodd;fill:none;stroke:#FFFFFF;stroke-width:2;stroke-miterlimit:10;" d="
					M23.852,59.578"/>
			</g>
		</g>
		<g id="XMLID_231_">
			<g id="XMLID_232_">
				<rect x="27.529" y="28.449" style="fill:#FFFFFF;" width="25.604" height="1.713"/>
			</g>
		</g>
		<g id="XMLID_229_">
			<g id="XMLID_230_">
				<rect x="27.529" y="35.319" style="fill:#FFFFFF;" width="25.604" height="1.713"/>
			</g>
		</g>
		<g id="XMLID_227_">
			<g id="XMLID_228_">
				<rect x="27.529" y="42.189" style="fill:#FFFFFF;" width="21.892" height="1.713"/>
			</g>
		</g>
		<g id="XMLID_225_">
			<g id="XMLID_226_">
				<rect x="27.529" y="49.058" style="fill:#FFFFFF;" width="17.433" height="1.713"/>
			</g>
		</g>
		<g id="XMLID_223_">
			<g id="XMLID_224_">
				<path style="fill:#FFFFFF;" d="M40.331,62.668H24.33c-1.889,0-3.427-1.537-3.427-3.427V22.427c0-1.89,1.537-3.427,3.427-3.427
					h33.032c1.89,0,3.427,1.537,3.427,3.427v20.619h-1.713V22.427c0-0.944-0.769-1.713-1.713-1.713H24.33
					c-0.945,0-1.713,0.769-1.713,1.713v36.815c0,0.944,0.768,1.713,1.713,1.713h16.001V62.668z"/>
			</g>
		</g>
		<g id="XMLID_209_">
			<g id="XMLID_210_">
				<path style="fill:#FFFFFF;" d="M48.938,63l-7.877-6.531c-0.364-0.302-0.414-0.842-0.112-1.206
					c0.301-0.363,0.84-0.415,1.206-0.112l6.601,5.472l10.842-12.241c0.315-0.353,0.857-0.385,1.21-0.074
					c0.354,0.314,0.387,0.856,0.074,1.21L48.938,63z"/>
			</g>
		</g>
	</g>
</g>
</svg>
