<?xml version="1.0" encoding="iso-8859-1"?>
<!-- Generator: Adobe Illustrator 21.0.0, SVG Export Plug-In . SVG Version: 6.00 Build 0)  -->
<svg version="1.1" id="&#x56FE;&#x5C42;_1" xmlns="http://www.w3.org/2000/svg" xmlns:xlink="http://www.w3.org/1999/xlink" x="0px"
	 y="0px" viewBox="0 0 52.267 46.719" style="enable-background:new 0 0 52.267 46.719;" xml:space="preserve">
<g id="XMLID_2_">
	<g id="XMLID_3_">
		<path style="fill:#197FE8;" d="M42.395,46.719H6.519C2.924,46.719,0,44.007,0,40.673V11.39c0-3.334,2.966-6.046,6.612-6.046h3.98
			v2h-3.98C4.069,7.344,2,9.159,2,11.39v29.283c0,2.23,2.027,4.046,4.519,4.046h35.876c2.541,0,4.608-1.815,4.608-4.046v-7.06h2
			v7.06C49.003,44.007,46.038,46.719,42.395,46.719z M13.099,38.214c-2.211,0-4.009-1.8-4.009-4.013c0-2.211,1.798-4.01,4.009-4.01
			s4.01,1.799,4.01,4.01C17.108,36.414,15.31,38.214,13.099,38.214z M13.099,32.191c-1.107,0-2.009,0.901-2.009,2.01
			c0,1.109,0.901,2.013,2.009,2.013c1.108,0,2.01-0.903,2.01-2.013C15.108,33.093,14.207,32.191,13.099,32.191z M23.998,38.151
			c-2.212,0-4.012-1.799-4.012-4.01c0-2.212,1.8-4.012,4.012-4.012c2.211,0,4.01,1.8,4.01,4.012
			C28.008,36.353,26.209,38.151,23.998,38.151z M23.998,32.13c-1.109,0-2.012,0.902-2.012,2.012c0,1.108,0.902,2.01,2.012,2.01
			c1.108,0,2.01-0.901,2.01-2.01C26.008,33.032,25.106,32.13,23.998,32.13z M39.43,33.182c-0.624,0-1.423-0.189-1.958-0.729
			l-4.688-4.688l1.414-1.414l4.69,4.69c0.061,0.059,0.318,0.166,0.593,0.139l0.054-0.003l0.055,0.004
			c0.268,0.016,0.52-0.081,0.576-0.137l10.687-10.687l1.414,1.414L41.583,32.455c-0.563,0.567-1.414,0.739-2.048,0.725
			C39.501,33.181,39.466,33.182,39.43,33.182z M13.099,27.858c-2.211,0-4.009-1.799-4.009-4.01s1.798-4.009,4.009-4.009
			s4.01,1.798,4.01,4.009S15.31,27.858,13.099,27.858z M13.099,21.84c-1.107,0-2.009,0.901-2.009,2.009
			c0,1.108,0.901,2.01,2.009,2.01c1.108,0,2.01-0.901,2.01-2.01C15.108,22.741,14.207,21.84,13.099,21.84z M23.991,27.796
			c-1.067,0-2.072-0.416-2.829-1.171c-0.758-0.757-1.176-1.765-1.176-2.836c0-2.211,1.8-4.009,4.012-4.009
			c2.211,0,4.01,1.798,4.01,4.009c0,2.209-1.799,4.007-4.01,4.007C23.996,27.796,23.993,27.796,23.991,27.796z M23.998,21.78
			c-1.109,0-2.012,0.901-2.012,2.009c0,0.537,0.209,1.041,0.589,1.421c0.379,0.378,0.882,0.586,1.417,0.586c0.002,0,0.003,0,0.004,0
			c1.11,0,2.012-0.9,2.012-2.007C26.008,22.682,25.106,21.78,23.998,21.78z M49.003,17.064h-2V11.39c0-2.233-2.067-4.05-4.608-4.05
			H38.41v-2h3.984c3.644,0,6.608,2.714,6.608,6.05V17.064z M34.076,15.877c-1.72,0-3.119-1.398-3.119-3.118V3.122
			C30.957,1.4,32.356,0,34.076,0c1.727,0,3.185,1.43,3.185,3.122v9.637C37.261,14.449,35.803,15.877,34.076,15.877z M34.076,2
			c-0.617,0-1.119,0.503-1.119,1.122v9.637c0,0.616,0.502,1.118,1.119,1.118c0.631,0,1.185-0.522,1.185-1.118V3.122
			C35.261,2.524,34.707,2,34.076,2z M14.837,15.877c-0.835,0-1.62-0.325-2.21-0.917c-0.589-0.59-0.911-1.372-0.909-2.204V3.122
			C11.718,1.4,13.117,0,14.837,0c1.726,0,3.184,1.43,3.184,3.122v9.637C18.021,14.449,16.562,15.877,14.837,15.877z M14.837,2
			c-0.617,0-1.119,0.503-1.119,1.122v9.637c-0.001,0.299,0.114,0.578,0.325,0.789c0.212,0.212,0.494,0.329,0.794,0.329
			c0.631,0,1.184-0.522,1.184-1.118V3.122C16.021,2.524,15.468,2,14.837,2z M29.849,7.344H19.124v-2h10.725V7.344z"/>
	</g>
</g>
</svg>
