<svg id="图层_1" data-name="图层 1" xmlns="http://www.w3.org/2000/svg" viewBox="0 0 96 84.48"><defs><style>.cls-1{fill:#ff9e4c;}.cls-2{fill:#dd7725;}</style></defs><title>sqilPic02</title><path class="cls-1" d="M82,39.11c0-.16,0-.33,0-.49l1-.09c0,.17,0,.33,0,.5Z"/><path class="cls-1" d="M81.82,37.58c-.13-1-.31-2.09-.54-3.11l1-.22c.23,1.05.42,2.13.56,3.2Zm-.66-3.63q-.12-.51-.26-1l1-.26q.14.52.27,1.05Z"/><path class="cls-1" d="M79.93,29.92l-.19-.49.92-.37.2.51Zm-.59-1.47c-.41-1-.88-1.92-1.38-2.84l.87-.47c.51.95,1,1.93,1.42,2.93Zm-1.63-3.3q-.26-.46-.53-.91l.85-.51q.28.46.55.94Z"/><path class="cls-1" d="M75.42,21.61l-.29-.39.79-.6.3.4Z"/><path class="cls-2" d="M36.83,52.89c1.43,0,1.66-.36,1.86-2.38a6.11,6.11,0,0,0,1.67.64c-.32,2.62-.93,3.38-3.46,3.38H32.3c-2.69,0-3.51-.53-3.51-2.63V45.42H30.5v1.89h6.32v-3H28.24V42.71H38.55V49.6H36.82v-.65H30.5v3c0,.86.25,1,1.78,1Z"/><path class="cls-2" d="M53.81,53.19c0,.74-.13,1.17-.6,1.43a4.3,4.3,0,0,1-2,.29,4.61,4.61,0,0,0-.47-1.5c.58,0,1.2,0,1.39,0s.26-.08.26-.28V43.88H47.48v4c0,2.16-.21,5.2-1.53,7.08A4.9,4.9,0,0,0,44.78,54a5.14,5.14,0,0,0,.71-1.5,20.79,20.79,0,0,0-2.34,2.16,5.63,5.63,0,0,0-1-1.07A2.51,2.51,0,0,0,43,51.79v-4H41.37V46.2h3.26v5.13l.72-.61a8,8,0,0,0,.39.9,18,18,0,0,0,.31-3.8v-5.4h7.76Zm-9.64-7.79A13.55,13.55,0,0,0,42,43.14l1.06-1a15.9,15.9,0,0,1,2.25,2.11Zm5.08,1.78v-.95H48.12V45.07h1.13v-.93h1.28v.93h1.18v1.16H50.53v.95H52v1.17H47.87V47.17Zm-.08,5.45v.61H48v-4h3.76v3.44Zm0-2.3v1.14h1.35V50.33Z"/><path class="cls-2" d="M55.4,42.43h6.32v1.46H60V45h1.47v9.66H60.14V54H56.91v.88H55.65V45h1.61V43.89H55.38Zm4.15,7.21c-.6,0-.78-.18-.78-1V46.38h-.49v1.1A3.84,3.84,0,0,1,57.5,50a4.19,4.19,0,0,0-.58-.51v1.1h3.23v-1h-.6Zm-2.63-3.26v3.08a2.84,2.84,0,0,0,.61-2V46.38Zm3.23,6.3v-.95H56.91v.95ZM58.9,43.89h-.57V45h.57Zm1.24,2.49h-.63v2.25c0,.18,0,.19.13.19h.25c.13,0,.15,0,.18,0l.07.06Zm6,6.8c.54,0,.63-.33.71-2.17a4.66,4.66,0,0,0,1.47.65c-.17,2.35-.61,3.06-2,3.06H64.32c-1.54,0-2-.47-2-2.18V46.77h3.88V44.16H62.23v-1.6h5.54v6.65h-1.6v-.86H63.93v4.19c0,.58.08.65.63.65Z"/><path class="cls-1" d="M6.89,38.86l-1-.08a42.24,42.24,0,0,1,84.2,0l-1,.08a41.25,41.25,0,0,0-82.22,0Z"/><path class="cls-1" d="M13.89,39.11l-1-.08c0-.17,0-.33,0-.5l1,.09C13.92,38.79,13.91,38.95,13.89,39.11Z"/><path class="cls-1" d="M14.05,37.58l-1-.13c.14-1.07.32-2.15.56-3.2l1,.22C14.37,35.49,14.19,36.54,14.05,37.58Zm.66-3.63-1-.23q.13-.53.27-1.05l1,.26Q14.84,33.44,14.71,33.95Z"/><path class="cls-1" d="M15.94,29.92,15,29.57l.2-.51.92.37Zm.59-1.47-.91-.39c.43-1,.9-2,1.42-2.93l.87.47C17.41,26.53,16.95,27.49,16.53,28.45Zm1.63-3.3-.87-.49q.27-.47.55-.94l.85.51Q18.43,24.69,18.17,25.15Z"/><path class="cls-1" d="M20.46,21.61l-.8-.59.3-.4.79.6Z"/><path class="cls-1" d="M48,84.48A42.37,42.37,0,0,1,9.56,59.79l.9-.41a41.27,41.27,0,0,0,75.07,0l.9.41A42.37,42.37,0,0,1,48,84.48Z"/><path class="cls-1" d="M79.88,59.58a36.08,36.08,0,0,1-50.51,14,35.85,35.85,0,0,1-13.24-14A37.08,37.08,0,0,0,29.56,73.26a36.2,36.2,0,0,0,18.44,5A36.33,36.33,0,0,0,57.55,77,36.58,36.58,0,0,0,74,67.31,36.31,36.31,0,0,0,79.88,59.58Z"/><path class="cls-1" d="M20.31,38.44a26.93,26.93,0,0,1,2.44-10,27.89,27.89,0,0,1,50.5,0,26.93,26.93,0,0,1,2.44,10h-.1a27.72,27.72,0,0,0-55.19,0Z"/><path class="cls-1" d="M96,60.07H0L5.21,49.2,0,38.32H96L90.79,49.2Zm-94.42-1H94.42L89.69,49.2l4.73-9.88H1.58L6.31,49.2Z"/><path class="cls-1" d="M54.36,36.41l-.2,0L40.78,32.6a.75.75,0,0,1-.54-.79,7.7,7.7,0,0,1,.25-1.38c.79-2.8,1.72-3,3.42-3.24a12.81,12.81,0,0,0,1.71-.29,6.87,6.87,0,0,1,.75-.14,1.41,1.41,0,0,0,.72-.21,1,1,0,0,0,.09-1.35,4.49,4.49,0,0,1-.54-4.51A4.55,4.55,0,0,1,51.53,18l.08,0,.94.27.08,0a4.55,4.55,0,0,1,2.75,4.83,4.49,4.49,0,0,1-2.82,3.56,1,1,0,0,0-.63,1.2c.08.2.21.31.5.55A6.74,6.74,0,0,1,53,29a12.88,12.88,0,0,0,1.3,1.14c1.35,1.06,2,1.75,1.22,4.55A7.71,7.71,0,0,1,55,36,.75.75,0,0,1,54.36,36.41ZM41.81,31.34l12.12,3.43c.06-.16.12-.33.16-.49.56-2,.34-2.15-.71-3A14.2,14.2,0,0,1,51.95,30a5.5,5.5,0,0,0-.45-.4,2.77,2.77,0,0,1-.95-1.17A2.46,2.46,0,0,1,52,25.35a3,3,0,0,0,.09-5.61l-.86-.24A3.05,3.05,0,0,0,48,21.29a3,3,0,0,0,.36,3A2.46,2.46,0,0,1,48,27.75a2.77,2.77,0,0,1-1.42.5,5.54,5.54,0,0,0-.6.11,14.24,14.24,0,0,1-1.89.32c-1.33.15-1.6.19-2.16,2.16C41.88,31,41.84,31.17,41.81,31.34Z"/><path class="cls-1" d="M49.87,32.89a.74.74,0,0,1-.2,0l-8-2.25a.75.75,0,0,1,.41-1.43l8,2.25a.75.75,0,0,1-.2,1.46Z"/><path class="cls-1" d="M54.71,34.27a.74.74,0,0,1-.2,0l-3.46-1a.75.75,0,0,1,.41-1.43l3.46,1a.75.75,0,0,1-.2,1.46Z"/><path class="cls-1" d="M48.94,72.6a.5.5,0,0,1-.31-.11l-3.7-2.92a.5.5,0,1,1,.62-.78l3.36,2.65,7.66-7.61a.5.5,0,0,1,.7.7l-8,7.92A.5.5,0,0,1,48.94,72.6Z"/><path class="cls-1" d="M38.42,72.6a.5.5,0,0,1-.31-.11l-1.79-1.41a.5.5,0,1,1,.62-.78l1.44,1.14,3.54-3.52a.5.5,0,0,1,.7.7l-3.85,3.83A.5.5,0,0,1,38.42,72.6Z"/><path class="cls-1" d="M56.7,72.6a.5.5,0,0,1-.31-.11l-1.79-1.41a.5.5,0,0,1,.62-.78l1.44,1.14,3.54-3.52a.5.5,0,0,1,.7.7l-3.85,3.83A.5.5,0,0,1,56.7,72.6Z"/><path class="cls-2" d="M22.21,16.9a39.4,39.4,0,0,1,4,1.43l-.29.35-1.2-.51c-.37.47-.56.71-.91,1.2.31.43.46.65.78,1.08l-.26.38c-1-1.35-1.51-2-2.42-3.49Zm1.37,2.18c.31-.42.47-.63.79-1-.81-.28-1.22-.42-2-.67C22.81,18.06,23.06,18.4,23.57,19.08Z"/><path class="cls-2" d="M23.79,15l.34-.37,2.68,2.5c.48-.52.73-.78,1.24-1.26l.23.24c-.63.6-.93.92-1.52,1.58Z"/><path class="cls-2" d="M27.27,11.65a1.66,1.66,0,0,1,1-.45,1,1,0,0,1,.7.24l0,0,0,0h0a.94.94,0,0,1,.16.62,1,1,0,0,1-.32.64l0,0h0a.84.84,0,0,1,.62,0,2.43,2.43,0,0,1,.72.73l.06.08.07.08a1,1,0,0,0,.18.16.19.19,0,0,0,.19,0l0,.06-.34.26a.39.39,0,0,1-.18-.08l-.14-.14-.08-.09-.1-.1L30,13.69l-.07-.08-.12-.15-.15-.15a1,1,0,0,0-.44-.24.68.68,0,0,0-.58.2l-.56.48,1.24,1.43-.33.29-2.66-3C26.68,12.14,26.87,12,27.27,11.65Zm.56,1.85.57-.48h.07a.71.71,0,0,0,.29-.53.77.77,0,0,0-.16-.52l0,0,0,0a.72.72,0,0,0-.48-.22.91.91,0,0,0-.66.26l-.55.46Z"/><path class="cls-2" d="M31.34,8.77l.19.33c-.63.38-.94.57-1.55,1l.73,1.08c.52-.35.78-.52,1.31-.84l.2.32c-.53.32-.79.49-1.3.83l.88,1.3c.55-.37.83-.55,1.39-.89l.19.32c-.72.43-1.07.66-1.77,1.15l-2.3-3.28C30.12,9.52,30.52,9.26,31.34,8.77Z"/><path class="cls-2" d="M33.62,7.53c1.21,1.19,1.79,1.8,2.88,3.07l-.39.17-.84-1c-.5.24-.75.36-1.24.63.1.52.15.78.26,1.29l-.37.21c-.36-1.63-.52-2.46-.75-4.14ZM34,10c.43-.23.64-.33,1.08-.54-.58-.62-.88-.92-1.5-1.52C33.69,8.82,33.78,9.23,34,10Z"/><path class="cls-2" d="M36.76,6.17a1.74,1.74,0,0,1,1.51,0,2.26,2.26,0,0,1,.81,1.3A2.71,2.71,0,0,1,39.18,9a1.34,1.34,0,0,1-.91.88l-1,.39L35.72,6.58Zm.74,3.6.63-.24a.87.87,0,0,0,.61-.67,2,2,0,0,0-.08-1.08l0-.07a.32.32,0,0,0,0-.08h0l0-.07,0-.06A2.85,2.85,0,0,0,38,6.56c-.2-.21-.59-.23-1.17,0l-.54.21Z"/><path class="cls-2" d="M39.8,5.22c.64.63.94,1,1.53,1.62.21-.84.33-1.26.6-2.1l.42-.08c-.33,1-.48,1.5-.73,2.51L42,8.81l-.42.1-.39-1.64c-.69-.79-1.06-1.17-1.82-1.92Z"/><path class="cls-2" d="M48.68,4.12c.53,1.61.76,2.41,1.15,4l-.42,0c-.11-.51-.17-.76-.29-1.27-.55,0-.82,0-1.37,0-.15.51-.22.76-.35,1.27l-.41,0c.41-1.62.65-2.43,1.19-4Zm-.83,2.4H49c-.24-.81-.36-1.22-.63-2C48.16,5.3,48.06,5.71,47.85,6.52Z"/><path class="cls-2" d="M50.94,4.22l.47,0-.35,3.65c.66.06,1,.1,1.64.2l-.05.33c-.81-.12-1.22-.17-2-.23Z"/><path class="cls-2" d="M54.29,4.66l.46.09L54,8.34c.65.13,1,.2,1.62.37L55.57,9c-.8-.2-1.2-.29-2-.44Z"/><path class="cls-2" d="M58.94,5.8c.57.23.88.55.93,1a3.1,3.1,0,0,1-.27,1.46l-.14.35a3.51,3.51,0,0,1-.18.38,2.17,2.17,0,0,1-.65.72,1.14,1.14,0,0,1-1.06.05A1,1,0,0,1,56.81,9a2.38,2.38,0,0,1,0-1c0-.14.06-.27.09-.4l.1-.36V7.21l0-.07,0-.08L57,7c0-.09.06-.18.09-.28a2,2,0,0,1,.14-.29,1.54,1.54,0,0,1,.59-.59,1.39,1.39,0,0,1,1.1,0Zm-.1.29a.82.82,0,0,0-1,.22,3.39,3.39,0,0,0-.54,1.12l-.09.32c0,.12-.05.24-.07.36a2.19,2.19,0,0,0,0,.79.73.73,0,0,0,.49.54h0a.69.69,0,0,0,.74-.09,2,2,0,0,0,.49-.59c.05-.09.1-.19.14-.28l.11-.27L59.28,8c0-.08.06-.18.1-.29a2.5,2.5,0,0,0,.08-.35,1.51,1.51,0,0,0,0-.68.9.9,0,0,0-.56-.54Z"/><path class="cls-2" d="M62,11.24a1.41,1.41,0,0,1-.87,0l-.07,0-.07,0a1,1,0,0,1-.57-.69,2.24,2.24,0,0,1,0-.88,3.48,3.48,0,0,1,.15-.52c.06-.16.11-.29.16-.4l0-.06,0-.06.16-.31a2.68,2.68,0,0,1,.21-.33,1.88,1.88,0,0,1,.66-.59,1.15,1.15,0,0,1,1,.09,1.62,1.62,0,0,1,.81.72,1.15,1.15,0,0,1-.08,1l-.41-.23a1,1,0,0,0,.07-.68.9.9,0,0,0-.52-.52.73.73,0,0,0-.94.15A4.31,4.31,0,0,0,61.06,9l-.12.28a2.87,2.87,0,0,0-.11.33,1.76,1.76,0,0,0,0,.73.75.75,0,0,0,.46.56.63.63,0,0,0,.62,0,1.61,1.61,0,0,0,.49-.43l.08-.13.08-.13.4.21A1.73,1.73,0,0,1,62,11.24Z"/><path class="cls-2" d="M66.58,9.6c-.42,1.65-.65,2.46-1.19,4L65,13.4c.18-.49.27-.74.44-1.23-.47-.32-.7-.48-1.18-.77l-1,.87L62.94,12c1.23-1.13,1.88-1.68,3.22-2.72Zm-2,1.55c.41.26.62.39,1,.67.24-.82.35-1.23.55-2.06C65.49,10.31,65.17,10.59,64.56,11.16Z"/><path class="cls-2" d="M70.4,12.58l-.25.28c-.36-.33-.54-.48-.91-.79l-2.32,2.78-.34-.28,2.28-2.82c-.37-.3-.56-.45-.94-.74l.23-.3A27.09,27.09,0,0,1,70.4,12.58Z"/><path class="cls-2" d="M72.86,15.07l-.28.25c-.51-.58-.78-.86-1.32-1.39l-.92.93c.46.46.68.69,1.12,1.18l-.28.25c-.43-.48-.66-.71-1.11-1.17L69,16.23c.49.48.72.74,1.19,1.26l-.28.25c-.59-.66-.89-1-1.52-1.58l2.77-2.89C71.85,14,72.19,14.31,72.86,15.07Z"/><path class="cls-2" d="M74.41,16.93A2,2,0,0,1,75,18.48a2.09,2.09,0,0,1-1,1.18,2.51,2.51,0,0,1-1.5.51,1.55,1.55,0,0,1-1.18-.7c-.29-.38-.43-.57-.73-.93L73.65,16C74,16.36,74.11,16.55,74.41,16.93Zm-3.24,1.73.45.58a1,1,0,0,0,.87.45,1.89,1.89,0,0,0,1-.37l.06,0,.07,0v0h0l.06,0,.05,0a2.61,2.61,0,0,0,.7-.8c.14-.27,0-.68-.4-1.2l-.39-.5Z"/></svg>