<svg id="图层_1" data-name="图层 1" xmlns="http://www.w3.org/2000/svg" viewBox="0 0 96 84.48"><defs><style>.cls-1{fill:#9d1612;}.cls-2{fill:#c44843;}</style></defs><title>sqilPic03</title><path class="cls-1" d="M32.59,43.78V52H30.87v-.67H27.78v3.56H26V51.35H23v.74H21.36V43.78H26V41.91h1.74v1.87ZM23,45.37v1.41h3V45.37Zm3,4.4V48.29H23v1.47Zm1.74-4.4v1.41h3.09V45.37Zm3.09,4.4V48.29H27.78v1.47Z"/><path class="cls-1" d="M38.88,50.68a7.54,7.54,0,0,0,.54,1.43c-2.53,2-3,2.35-3.21,2.69a5.51,5.51,0,0,0-.81-1.39,1.68,1.68,0,0,0,.7-1.32v-4.3H34.4V46.2h3.28v5.4Zm-1.67-5.3a17.69,17.69,0,0,0-2.16-2.24l1.06-1a18.37,18.37,0,0,1,2.24,2.09Zm10.12.95v1.18h-8.6V46.33h3.44v-.6H39.52V44.61h2.64v-.56h-3V42.88h3v-.95h1.64v.95h3.1v1.18h-3.1v.56h2.67v1.11H43.81v.6Zm-.95,7c0,.72-.14,1.11-.65,1.34a5,5,0,0,1-2.13.24,6.11,6.11,0,0,0-.46-1.41c.57,0,1.24,0,1.42,0s.25-.06.25-.22v-.4H41.2v2H39.66V48h6.72ZM41.2,49.25V50h3.6v-.71Zm3.6,2.56V51H41.2v.79Z"/><path class="cls-1" d="M56.19,49.68a7.14,7.14,0,0,0,5.27,3.67,6.19,6.19,0,0,0-1.11,1.57,8.06,8.06,0,0,1-5.52-4.33c-.78,1.77-2.37,3.34-5.51,4.3a6.41,6.41,0,0,0-1.06-1.45c2.92-.86,4.33-2.24,5-3.77H48.52V48h5.2a11.36,11.36,0,0,0,.11-1.67v-.53H51.17A10.41,10.41,0,0,1,50,47.62a12,12,0,0,0-1.61-.89,10.77,10.77,0,0,0,2.25-4.65l1.75.38c-.15.57-.33,1.13-.53,1.67h1.93v-2.2h1.74v2.2h4.27v1.68H55.58v.53A13.6,13.6,0,0,1,55.49,48H61v1.67Z"/><path class="cls-1" d="M66.22,48.57c0,2.14-.45,4.76-3.06,6.37a5.52,5.52,0,0,0-1-1.07c2.43-1.28,2.64-3.6,2.64-5.32V44.78h1.42Zm8-2.69a16.53,16.53,0,0,1-1.57,5.69,7.42,7.42,0,0,0,2.6,2.09,5.42,5.42,0,0,0-1,1.24,8.24,8.24,0,0,1-2.44-2,7.37,7.37,0,0,1-2.32,2,4.76,4.76,0,0,0-1-1.18,6.43,6.43,0,0,0,2.41-2,14.77,14.77,0,0,1-1.46-3.17c-.13.18-.25.36-.38.51a11.07,11.07,0,0,0-.82-1.25v3.33H66.86v-7H64.14v7.07H62.83V42.58h5.41v4.86a14.73,14.73,0,0,0,2.06-5.37l1.46.33a20.38,20.38,0,0,1-.53,2H75v1.46Zm-7.33,5.5a27.36,27.36,0,0,1,1.63,2.44l-1.2.79a24.09,24.09,0,0,0-1.54-2.55Zm3.85-5.5c-.13.31-.25.61-.39.89a13.78,13.78,0,0,0,1.38,3.48,14.51,14.51,0,0,0,1.09-4.37Z"/><path class="cls-2" d="M6.89,38.86l-1-.08a42.24,42.24,0,0,1,84.2,0l-1,.08a41.25,41.25,0,0,0-82.22,0Z"/><path class="cls-2" d="M13.89,39.11l-1-.08c0-.17,0-.33,0-.5l1,.09C13.92,38.79,13.91,38.95,13.89,39.11Z"/><path class="cls-2" d="M14.05,37.58l-1-.13c.14-1.07.32-2.15.56-3.2l1,.22C14.37,35.49,14.19,36.54,14.05,37.58Zm.66-3.63-1-.23q.13-.53.27-1.05l1,.26Q14.84,33.44,14.71,33.95Z"/><path class="cls-2" d="M15.94,29.92,15,29.57l.2-.51.92.37Zm.59-1.47-.91-.39c.43-1,.9-2,1.42-2.93l.87.47C17.41,26.53,16.95,27.49,16.53,28.45Zm1.63-3.3-.87-.49q.27-.47.55-.94l.85.51Q18.43,24.69,18.17,25.15Z"/><path class="cls-2" d="M20.46,21.61l-.8-.59.3-.4.79.6Z"/><path class="cls-2" d="M82,39.11c0-.16,0-.33,0-.49l1-.09c0,.17,0,.33,0,.5Z"/><path class="cls-2" d="M81.82,37.58c-.13-1-.31-2.09-.54-3.11l1-.22c.23,1.05.42,2.13.56,3.2Zm-.66-3.63q-.12-.51-.26-1l1-.26q.14.52.27,1.05Z"/><path class="cls-2" d="M79.93,29.92l-.19-.49.92-.37.2.51Zm-.59-1.47c-.41-1-.88-1.92-1.38-2.84l.87-.47c.52.95,1,1.93,1.42,2.93Zm-1.63-3.3q-.26-.46-.53-.91l.85-.51q.28.46.55.94Z"/><path class="cls-2" d="M75.42,21.61l-.29-.39.79-.6.3.4Z"/><path class="cls-2" d="M48,84.48A42.37,42.37,0,0,1,9.56,59.79l.9-.41a41.27,41.27,0,0,0,75.07,0l.9.41A42.37,42.37,0,0,1,48,84.48Z"/><path class="cls-2" d="M79.88,59.58a36.08,36.08,0,0,1-50.51,14,35.85,35.85,0,0,1-13.24-14A37.08,37.08,0,0,0,29.56,73.26a36.2,36.2,0,0,0,18.44,5A36.33,36.33,0,0,0,57.55,77,36.58,36.58,0,0,0,74,67.31,36.31,36.31,0,0,0,79.88,59.58Z"/><path class="cls-2" d="M20.31,38.44a26.93,26.93,0,0,1,2.44-10,27.89,27.89,0,0,1,50.5,0,26.93,26.93,0,0,1,2.44,10h-.1a27.72,27.72,0,0,0-55.19,0Z"/><path class="cls-2" d="M96,60.07H0L5.21,49.2,0,38.32H96L90.79,49.2Zm-94.42-1H94.42L89.69,49.2l4.73-9.88H1.58L6.31,49.2Z"/><path class="cls-2" d="M54.36,36.41l-.2,0L40.78,32.6a.75.75,0,0,1-.54-.79,7.7,7.7,0,0,1,.25-1.38c.79-2.8,1.72-3,3.42-3.24a12.81,12.81,0,0,0,1.71-.29,6.87,6.87,0,0,1,.75-.14,1.41,1.41,0,0,0,.72-.21,1,1,0,0,0,.09-1.35,4.49,4.49,0,0,1-.54-4.51A4.55,4.55,0,0,1,51.53,18l.08,0,.94.27.08,0a4.55,4.55,0,0,1,2.75,4.83,4.49,4.49,0,0,1-2.82,3.56,1,1,0,0,0-.63,1.2c.08.2.21.31.5.55A6.74,6.74,0,0,1,53,29a12.88,12.88,0,0,0,1.3,1.14c1.35,1.06,2,1.75,1.22,4.55A7.71,7.71,0,0,1,55,36,.75.75,0,0,1,54.36,36.41ZM41.81,31.34l12.12,3.43c.06-.16.12-.33.16-.49.56-2,.34-2.15-.71-3A14.2,14.2,0,0,1,51.95,30a5.5,5.5,0,0,0-.45-.4,2.77,2.77,0,0,1-.95-1.17A2.46,2.46,0,0,1,52,25.35a3,3,0,0,0,.09-5.61l-.86-.24A3.05,3.05,0,0,0,48,21.29a3,3,0,0,0,.36,3A2.46,2.46,0,0,1,48,27.75a2.77,2.77,0,0,1-1.42.5,5.54,5.54,0,0,0-.6.11,14.24,14.24,0,0,1-1.89.32c-1.33.15-1.6.19-2.16,2.16C41.88,31,41.84,31.17,41.81,31.34Z"/><path class="cls-2" d="M49.87,32.89a.74.74,0,0,1-.2,0l-8-2.25a.75.75,0,0,1,.41-1.43l8,2.25a.75.75,0,0,1-.2,1.46Z"/><path class="cls-2" d="M54.71,34.27a.74.74,0,0,1-.2,0l-3.46-1a.75.75,0,0,1,.41-1.43l3.46,1a.75.75,0,0,1-.2,1.46Z"/><path class="cls-2" d="M45.33,72.12a.5.5,0,0,1-.35-.85l7-7a.5.5,0,0,1,.7.7l-7,7A.49.49,0,0,1,45.33,72.12Z"/><path class="cls-2" d="M52.51,72a.49.49,0,0,1-.33-.13l-7.33-6.66a.5.5,0,1,1,.67-.74l7.33,6.66a.5.5,0,0,1-.33.86Z"/><path class="cls-2" d="M56.36,72.35A.5.5,0,0,1,56,71.5l3.36-3.33a.5.5,0,1,1,.7.7L56.71,72.2A.49.49,0,0,1,56.36,72.35Z"/><path class="cls-2" d="M59.7,72.36a.5.5,0,0,1-.35-.15L56,68.86a.5.5,0,1,1,.7-.7l3.33,3.36a.5.5,0,0,1-.35.85Z"/><path class="cls-2" d="M38,72.35a.5.5,0,0,1-.35-.85L41,68.17a.5.5,0,1,1,.7.7L38.32,72.2A.49.49,0,0,1,38,72.35Z"/><path class="cls-2" d="M41.32,72.36a.5.5,0,0,1-.35-.15l-3.33-3.36a.5.5,0,0,1,.7-.7l3.33,3.36a.5.5,0,0,1-.35.85Z"/><path class="cls-2" d="M20.25,16.1c1.51.81,2.25,1.24,3.68,2.15l-.34.29-1.1-.72c-.43.38-.65.58-1.07,1,.23.48.35.72.59,1.2l-.32.31c-.78-1.51-1.14-2.28-1.83-3.86Zm1,2.37c.36-.35.55-.52.92-.85-.75-.43-1.12-.64-1.89-1C20.67,17.34,20.87,17.72,21.26,18.47Z"/><path class="cls-2" d="M23,13.8a1.72,1.72,0,0,1,1.14-.44.92.92,0,0,1,.7.37l0,0,0,0a1.2,1.2,0,0,1,.06.87,1.67,1.67,0,0,1-.66.91l-.49.38,1.13,1.43-.35.28-2.54-3.15Zm.6,1.91.58-.45a1,1,0,0,0,.44-.62.82.82,0,0,0-.08-.59V14a.76.76,0,0,0-.5-.25,1,1,0,0,0-.7.24l-.65.5Z"/><path class="cls-2" d="M26.09,11.67a1.68,1.68,0,0,1,1.16-.32.92.92,0,0,1,.66.43l0,.05,0,0a1.21,1.21,0,0,1,0,.87,1.63,1.63,0,0,1-.73.84l-.51.33,1,1.53-.36.24-2.25-3.37Zm.43,2,.61-.39a1,1,0,0,0,.48-.57.82.82,0,0,0,0-.59V12A.76.76,0,0,0,27,11.7a1,1,0,0,0-.71.17l-.69.43Z"/><path class="cls-2" d="M28.23,10.41l.41-.22,1.74,3.28c.6-.32.9-.47,1.51-.76L32,13c-.76.36-1.13.55-1.87,1Z"/><path class="cls-2" d="M31.74,8.71l1.59,3.72-.39.17L31.31,8.9Z"/><path class="cls-2" d="M36.41,11a1.37,1.37,0,0,1-.63.6l-.07,0-.07,0a1,1,0,0,1-.89-.09,2.25,2.25,0,0,1-.62-.63,3.67,3.67,0,0,1-.26-.48q-.11-.24-.17-.4l0-.06,0-.07c0-.1-.06-.22-.1-.34a2.67,2.67,0,0,1-.09-.38,2,2,0,0,1,0-.89,1.11,1.11,0,0,1,.78-.67,1.54,1.54,0,0,1,1.05-.06,1.19,1.19,0,0,1,.64.76l-.44.13A1.08,1.08,0,0,0,35.11,8a.86.86,0,0,0-.72,0,.72.72,0,0,0-.53.77,4.53,4.53,0,0,0,.32,1.35l.12.29a3,3,0,0,0,.16.32,1.8,1.8,0,0,0,.49.55.73.73,0,0,0,.72.07.62.62,0,0,0,.43-.44,1.63,1.63,0,0,0,0-.65l0-.15,0-.15.42-.14A1.76,1.76,0,0,1,36.41,11Z"/><path class="cls-2" d="M38.27,6.55c.9,1.45,1.33,2.18,2.13,3.67l-.41.09-.6-1.17c-.53.12-.8.19-1.32.33,0,.53,0,.8,0,1.33l-.4.11c0-1.69.05-2.54.18-4.24Zm-.2,2.55,1.14-.28c-.43-.74-.66-1.11-1.11-1.84C38.07,7.83,38.07,8.26,38.07,9.1Z"/><path class="cls-2" d="M42.73,5.74l0,.38-1.11.16.56,3.62L41.8,10l-.6-3.61-1.11.2L40,6.17C41.1,6,41.64,5.87,42.73,5.74Z"/><path class="cls-2" d="M44.22,5.58l.36,4-.42,0-.41-4Z"/><path class="cls-2" d="M46.93,5.37A1.23,1.23,0,0,1,48.1,6a3.26,3.26,0,0,1,.26,1.47c0,.12,0,.24,0,.38a3.64,3.64,0,0,1,0,.42,2.22,2.22,0,0,1-.35.91,1.11,1.11,0,0,1-1,.42A1,1,0,0,1,46,9.16a2.43,2.43,0,0,1-.37-.93c0-.14,0-.28,0-.41s0-.26,0-.38V7.38s0,0,0-.07,0-.05,0-.08,0-.06,0-.09,0-.19,0-.3a2,2,0,0,1,0-.32,1.58,1.58,0,0,1,.34-.75,1.33,1.33,0,0,1,1-.39Zm0,.31a.79.79,0,0,0-.82.54A3.55,3.55,0,0,0,46,7.47c0,.1,0,.22,0,.34a3.72,3.72,0,0,0,.05.37,2.22,2.22,0,0,0,.28.75.72.72,0,0,0,.64.35h0a.68.68,0,0,0,.66-.34,2,2,0,0,0,.25-.73c0-.11,0-.21,0-.32s0-.2,0-.29,0-.18,0-.3S48,7.1,48,7a2.61,2.61,0,0,0,0-.36A1.56,1.56,0,0,0,47.63,6a.87.87,0,0,0-.69-.32Z"/><path class="cls-2" d="M49.59,5.45l.57,0c.37.79.55,1.19.89,2,.22.63.33,1,.53,1.59l.34-3.44.46,0-.44,4-.46,0C51,8.18,50.66,7.45,50,6l-.18,3.49-.42,0Z"/><path class="cls-2" d="M57.33,6.5c.91.21,1.36.33,2.26.6l-.1.33c-.7-.21-1-.3-1.75-.48l-.34,1.37c.62.15.93.24,1.55.42l-.1.33c-.61-.18-.92-.26-1.54-.41l-.47,1.9-.45-.11Z"/><path class="cls-2" d="M62,7.88c0,1.71-.1,2.55-.25,4.24L61.32,12c.06-.52.09-.78.14-1.31-.51-.19-.77-.29-1.29-.46l-.76,1.09-.4-.13c.95-1.4,1.45-2.09,2.49-3.44Zm-1.59,2,1.12.4c0-.86.06-1.29.08-2.15C61.08,8.85,60.84,9.2,60.37,9.9Z"/><path class="cls-2" d="M64.53,8.92l-1.64,3.7-.39-.17,1.6-3.72Z"/><path class="cls-2" d="M65.79,9.5l.42.21L64.56,13c.6.3.9.46,1.5.79l-.17.3c-.74-.41-1.11-.6-1.86-1Z"/><path class="cls-2" d="M69.18,11.34l-1.5,2.48a1.05,1.05,0,0,0-.2.68.86.86,0,0,0,.44.52,1.11,1.11,0,0,0,.63.21c.19,0,.39-.15.57-.43l1.64-2.45.4.27L69.4,15.19a.85.85,0,0,1-.77.44,1.92,1.92,0,0,1-.89-.32l-.1-.06a1.18,1.18,0,0,1-.56-.69,1.25,1.25,0,0,1,.21-1l1.48-2.51Z"/><path class="cls-2" d="M73.22,14.14a1.64,1.64,0,0,1,.64.89,1,1,0,0,1-.09.74l0,0,0,.05h0a1,1,0,0,1-.57.3.94.94,0,0,1-.7-.17l0,0,0,0a.86.86,0,0,1,.17.6,2.47,2.47,0,0,1-.56.88l-.07.08-.07.09a1,1,0,0,0-.12.22.2.2,0,0,0,0,.19l0,.06-.33-.28a.39.39,0,0,1,0-.19,1.46,1.46,0,0,1,.1-.17l.07-.1.07-.12,0-.07.07-.09L72,17l.11-.19a1,1,0,0,0,.14-.49.68.68,0,0,0-.32-.53l-.57-.44L70.18,16.9l-.35-.26,2.4-3.26Zm-1.68,1,.58.45v0l0,0h0a.7.7,0,0,0,.58.16.78.78,0,0,0,.48-.27l0,0,0,0a.75.75,0,0,0,.11-.52.9.9,0,0,0-.38-.58l-.55-.43Z"/><path class="cls-2" d="M76.95,17.45l-.27.27c-.53-.53-.8-.79-1.35-1.29l-.89,1c.47.43.7.65,1.16,1.1l-.27.27c-.45-.45-.68-.67-1.15-1.09l-1.07,1.17c.51.46.76.7,1.24,1.19l-.27.27c-.62-.62-.94-.93-1.6-1.51l2.69-3C75.9,16.42,76.26,16.75,76.95,17.45Z"/></svg>