<?xml version="1.0" encoding="utf-8"?>
<!-- Generator: Adobe Illustrator 21.0.0, SVG Export Plug-In . SVG Version: 6.00 Build 0)  -->
<svg version="1.1" id="图层_1" xmlns="http://www.w3.org/2000/svg" xmlns:xlink="http://www.w3.org/1999/xlink" x="0px" y="0px"
	 viewBox="0 0 96 84.5" style="enable-background:new 0 0 96 84.5;" xml:space="preserve">
<style type="text/css">
	.st0{fill:#36CC96;}
	.st1{fill:#16A56E;}
</style>
<g>
	<g>
		<g>
			<path class="st0" d="M82,39.1c0-0.2,0-0.3,0-0.5l1-0.1c0,0.2,0,0.3,0,0.5L82,39.1z"/>
		</g>
		<g>
			<path class="st0" d="M81.8,37.6c-0.1-1-0.3-2.1-0.5-3.1l1-0.2c0.2,1.1,0.4,2.1,0.6,3.2L81.8,37.6z M81.2,33.9
				c-0.1-0.3-0.2-0.7-0.3-1l1-0.3c0.1,0.3,0.2,0.7,0.3,1.1L81.2,33.9z"/>
		</g>
		<g>
			<path class="st0" d="M79.9,29.9c-0.1-0.2-0.1-0.3-0.2-0.5l0.9-0.4c0.1,0.2,0.1,0.3,0.2,0.5L79.9,29.9z M79.3,28.5
				c-0.4-1-0.9-1.9-1.4-2.8l0.9-0.5c0.5,0.9,1,1.9,1.4,2.9L79.3,28.5z M77.7,25.1c-0.2-0.3-0.3-0.6-0.5-0.9l0.9-0.5
				c0.2,0.3,0.4,0.6,0.5,0.9L77.7,25.1z"/>
		</g>
		<g>
			<path class="st0" d="M75.4,21.6c-0.1-0.1-0.2-0.3-0.3-0.4l0.8-0.6c0.1,0.1,0.2,0.3,0.3,0.4L75.4,21.6z"/>
		</g>
	</g>
	<g>
		<path class="st1" d="M32.6,43.8V52h-1.7v-0.7h-3.1v3.6H26v-3.6h-3v0.7h-1.7v-8.3H26v-1.9h1.7v1.9H32.6z M23,45.4v1.4h3v-1.4H23z
			 M26,49.8v-1.5h-3v1.5H26z M27.8,45.4v1.4h3.1v-1.4H27.8z M30.9,49.8v-1.5h-3.1v1.5H30.9z"/>
		<path class="st1" d="M38.9,50.7c0.1,0.4,0.4,1.1,0.5,1.4c-2.5,2-3,2.4-3.2,2.7c-0.1-0.4-0.5-1.1-0.8-1.4c0.3-0.2,0.7-0.7,0.7-1.3
			v-4.3h-1.7v-1.6h3.3v5.4L38.9,50.7z M37.2,45.4c-0.4-0.6-1.4-1.6-2.2-2.2l1.1-1c0.8,0.6,1.8,1.5,2.2,2.1L37.2,45.4z M47.3,46.3
			v1.2h-8.6v-1.2h3.4v-0.6h-2.6v-1.1h2.6v-0.6h-3v-1.2h3v-0.9h1.6v0.9h3.1v1.2h-3.1v0.6h2.7v1.1h-2.7v0.6H47.3z M46.4,53.3
			c0,0.7-0.1,1.1-0.7,1.3c-0.5,0.2-1.2,0.3-2.1,0.2c-0.1-0.4-0.3-1-0.5-1.4c0.6,0,1.2,0,1.4,0c0.2,0,0.3-0.1,0.3-0.2v-0.4h-3.6v2
			h-1.5V48h6.7V53.3z M41.2,49.2V50h3.6v-0.7H41.2z M44.8,51.8V51h-3.6v0.8H44.8z"/>
		<path class="st1" d="M60.4,46.8c-0.6,1.8-1.4,3.4-2.4,4.8c0.4,1,0.8,1.6,1.3,1.6c0.3,0,0.5-0.7,0.6-2.4c0.4,0.4,1,0.8,1.4,0.9
			c-0.3,2.6-0.8,3.2-2.1,3.2c-1,0-1.7-0.7-2.4-1.8c-0.7,0.7-1.5,1.4-2.4,1.9c-0.3-0.4-0.8-1-1.2-1.4c1.1-0.6,2-1.3,2.8-2.3
			c-0.5-1.6-0.8-3.5-1-5.6h-4v1.5h3.4c0,0,0,0.4,0,0.6c0,2.9-0.1,4.2-0.4,4.6c-0.3,0.4-0.5,0.5-1,0.6c-0.4,0.1-1,0.1-1.6,0
			c0-0.5-0.2-1.1-0.5-1.5c0.5,0,1,0.1,1.2,0.1c0.2,0,0.3,0,0.4-0.2c0.1-0.2,0.2-0.9,0.2-2.6h-1.8c-0.1,2-0.3,4.7-1.5,6.4
			c-0.3-0.3-1-0.9-1.4-1.1c1.1-1.7,1.2-4.1,1.2-5.9V44H55c0-0.7-0.1-1.4-0.1-2.1h1.7c0,0.7,0,1.4,0,2.1h2.1
			c-0.5-0.4-1.2-0.9-1.8-1.2l1-1c0.8,0.4,1.8,1,2.3,1.5L59.7,44h1.4v1.6h-4.3c0.1,1.4,0.3,2.7,0.6,3.8c0.5-0.9,1-2,1.3-3.1
			L60.4,46.8z"/>
		<path class="st1" d="M67.9,51.1c-1.8,0.5-3.8,1.1-5.4,1.5l-0.4-1.7c0.6-0.1,1.3-0.3,2-0.5V45h-1.8v-1.6h5.2V45h-1.8v5
			c0.6-0.2,1.3-0.3,1.9-0.5L67.9,51.1z M74.8,44.9c0,0,0,0.6,0,0.8c-0.2,5.6-0.3,7.7-0.8,8.3c-0.3,0.5-0.7,0.7-1.2,0.7
			c-0.5,0.1-1.2,0.1-2,0c0-0.5-0.2-1.2-0.5-1.6c0.7,0.1,1.4,0.1,1.7,0.1c0.3,0,0.4,0,0.5-0.2c0.3-0.4,0.5-2.1,0.6-6.5h-1.9
			c-0.2,3.7-1,6.7-4.1,8.5c-0.3-0.4-0.8-1-1.2-1.3c2.7-1.5,3.4-4,3.6-7.1h-1.9v-1.6h1.9c0-0.8,0-1.8,0-2.7h1.7c0,0.9,0,1.8,0,2.7
			H74.8z"/>
	</g>
	<g>
		<path class="st0" d="M6.9,38.9l-1-0.1c0.9-10.5,5.6-20.3,13.4-27.5C27.1,4,37.3,0,48,0c10.7,0,20.9,4,28.7,11.2
			c7.8,7.2,12.5,17,13.4,27.5l-1,0.1C87.4,17.6,69.3,1,48,1S8.6,17.6,6.9,38.9z"/>
	</g>
	<g>
		<g>
			<path class="st0" d="M13.9,39.1l-1-0.1c0-0.2,0-0.3,0-0.5l1,0.1C13.9,38.8,13.9,38.9,13.9,39.1z"/>
		</g>
		<g>
			<path class="st0" d="M14.1,37.6l-1-0.1c0.1-1.1,0.3-2.1,0.6-3.2l1,0.2C14.4,35.5,14.2,36.5,14.1,37.6z M14.7,33.9l-1-0.2
				c0.1-0.4,0.2-0.7,0.3-1.1l1,0.3C14.9,33.3,14.8,33.6,14.7,33.9z"/>
		</g>
		<g>
			<path class="st0" d="M15.9,29.9L15,29.6c0.1-0.2,0.1-0.3,0.2-0.5l0.9,0.4C16.1,29.6,16,29.8,15.9,29.9z M16.5,28.5l-0.9-0.4
				c0.4-1,0.9-2,1.4-2.9l0.9,0.5C17.4,26.5,16.9,27.5,16.5,28.5z M18.2,25.1l-0.9-0.5c0.2-0.3,0.4-0.6,0.5-0.9l0.9,0.5
				C18.5,24.5,18.3,24.8,18.2,25.1z"/>
		</g>
		<g>
			<path class="st0" d="M20.5,21.6L19.7,21c0.1-0.1,0.2-0.3,0.3-0.4l0.8,0.6C20.7,21.3,20.6,21.5,20.5,21.6z"/>
		</g>
	</g>
	<g>
		<path class="st0" d="M48,84.5c-16.5,0-31.6-9.7-38.4-24.7l0.9-0.4C17.2,74,31.9,83.5,48,83.5c16.1,0,30.8-9.5,37.5-24.1l0.9,0.4
			C79.6,74.8,64.5,84.5,48,84.5z"/>
	</g>
	<g>
		<path class="st0" d="M79.9,59.6c-1.5,2.9-3.4,5.5-5.7,7.9c-2.2,2.4-4.8,4.4-7.6,6.1C61.1,77,54.5,78.7,48,78.8
			c-6.5,0-13.1-1.8-18.6-5.2c-2.8-1.7-5.3-3.7-7.6-6.1c-2.2-2.4-4.1-5-5.7-7.9c1.6,2.8,3.6,5.4,5.8,7.7c2.3,2.3,4.8,4.3,7.6,5.9
			c2.8,1.6,5.8,2.9,8.9,3.7c3.1,0.8,6.3,1.3,9.6,1.3c3.2,0,6.4-0.4,9.6-1.3c3.1-0.8,6.1-2.1,8.9-3.7c2.8-1.6,5.3-3.6,7.6-5.9
			C76.3,65,78.3,62.4,79.9,59.6z"/>
	</g>
	<g>
		<path class="st0" d="M20.3,38.4c0.1-3.4,1-6.8,2.4-10c1.5-3.1,3.6-6,6.1-8.4c5.1-4.8,12.1-7.6,19.2-7.6c7,0,14.1,2.8,19.2,7.6
			c2.5,2.4,4.6,5.3,6.1,8.4c1.4,3.2,2.3,6.6,2.4,10l-0.1,0c-0.6-6.8-3.9-13.3-9-17.9c-2.5-2.3-5.5-4.1-8.6-5.3
			c-3.2-1.2-6.6-1.9-10-1.9c-3.4,0-6.8,0.6-10,1.9c-3.2,1.2-6.1,3-8.6,5.3C24.3,25.1,21,31.6,20.3,38.4L20.3,38.4z"/>
	</g>
	<g>
		<path class="st0" d="M96,60.1H0l5.2-10.9L0,38.3h96l-5.2,10.9L96,60.1z M1.6,59.1h92.8l-4.7-9.9l4.7-9.9H1.6l4.7,9.9L1.6,59.1z"/>
	</g>
	<g>
		<g>
			<path class="st0" d="M54.4,36.4c-0.1,0-0.1,0-0.2,0l-13.4-3.8c-0.3-0.1-0.6-0.4-0.5-0.8c0-0.5,0.1-0.9,0.3-1.4
				c0.8-2.8,1.7-3,3.4-3.2c0.5-0.1,1-0.1,1.7-0.3c0.3-0.1,0.5-0.1,0.8-0.1c0.4-0.1,0.6-0.1,0.7-0.2c0.4-0.3,0.4-1,0.1-1.4
				c-1-1.3-1.2-3-0.5-4.5c0.8-1.9,2.9-3,4.9-2.7c0,0,0.1,0,0.1,0l0.9,0.3c0,0,0.1,0,0.1,0c1.9,0.8,3.1,2.8,2.8,4.8
				c-0.2,1.6-1.3,3-2.8,3.6c-0.5,0.2-0.8,0.7-0.6,1.2c0.1,0.2,0.2,0.3,0.5,0.6c0.2,0.1,0.4,0.3,0.6,0.5c0.5,0.5,0.9,0.8,1.3,1.1
				c1.3,1.1,2,1.7,1.2,4.5c-0.1,0.4-0.3,0.9-0.5,1.3C54.9,36.3,54.6,36.4,54.4,36.4z M41.8,31.3l12.1,3.4c0.1-0.2,0.1-0.3,0.2-0.5
				c0.6-2,0.3-2.1-0.7-3C53,31,52.5,30.6,51.9,30c-0.2-0.2-0.3-0.3-0.5-0.4c-0.3-0.3-0.7-0.6-0.9-1.2c-0.5-1.2,0.2-2.6,1.5-3.1
				c1-0.4,1.7-1.3,1.9-2.4c0.2-1.3-0.6-2.7-1.8-3.2l-0.9-0.2c-1.3-0.2-2.7,0.5-3.2,1.8c-0.4,1-0.3,2.1,0.4,3
				c0.8,1.1,0.7,2.6-0.4,3.4c-0.5,0.4-1,0.4-1.4,0.5c-0.2,0-0.4,0.1-0.6,0.1c-0.8,0.2-1.4,0.3-1.9,0.3c-1.3,0.2-1.6,0.2-2.2,2.2
				C41.9,31,41.8,31.2,41.8,31.3z"/>
		</g>
		<g>
			<path class="st0" d="M49.9,32.9c-0.1,0-0.1,0-0.2,0l-8-2.3c-0.4-0.1-0.6-0.5-0.5-0.9c0.1-0.4,0.5-0.6,0.9-0.5l8,2.3
				c0.4,0.1,0.6,0.5,0.5,0.9C50.5,32.7,50.2,32.9,49.9,32.9z"/>
		</g>
		<g>
			<path class="st0" d="M54.7,34.3c-0.1,0-0.1,0-0.2,0l-3.5-1c-0.4-0.1-0.6-0.5-0.5-0.9c0.1-0.4,0.5-0.6,0.9-0.5l3.5,1
				c0.4,0.1,0.6,0.5,0.5,0.9C55.3,34.1,55,34.3,54.7,34.3z"/>
		</g>
	</g>
	<g>
		<g>
			<path class="st0" d="M48.9,72.6c-0.1,0-0.2,0-0.3-0.1l-3.7-2.9c-0.2-0.2-0.3-0.5-0.1-0.7c0.2-0.2,0.5-0.3,0.7-0.1l3.4,2.6
				l7.7-7.6c0.2-0.2,0.5-0.2,0.7,0c0.2,0.2,0.2,0.5,0,0.7l-8,7.9C49.2,72.5,49.1,72.6,48.9,72.6z"/>
		</g>
		<g>
			<path class="st0" d="M38.4,72.6c-0.1,0-0.2,0-0.3-0.1l-1.8-1.4c-0.2-0.2-0.3-0.5-0.1-0.7c0.2-0.2,0.5-0.3,0.7-0.1l1.4,1.1
				l3.5-3.5c0.2-0.2,0.5-0.2,0.7,0c0.2,0.2,0.2,0.5,0,0.7l-3.9,3.8C38.7,72.5,38.5,72.6,38.4,72.6z"/>
		</g>
		<g>
			<path class="st0" d="M56.7,72.6c-0.1,0-0.2,0-0.3-0.1l-1.8-1.4c-0.2-0.2-0.3-0.5-0.1-0.7c0.2-0.2,0.5-0.3,0.7-0.1l1.4,1.1
				l3.5-3.5c0.2-0.2,0.5-0.2,0.7,0c0.2,0.2,0.2,0.5,0,0.7l-3.9,3.8C57,72.5,56.8,72.6,56.7,72.6z"/>
		</g>
	</g>
	<g>
		<g>
			<path class="st1" d="M23.3,20.2c0.1-0.1,0.1-0.2,0.2-0.3c0.3,0.1,0.5,0.2,0.7,0.2c0.2,0,0.4-0.1,0.5-0.3c0,0,0,0,0-0.1
				c0,0,0,0,0-0.1c0.1-0.1,0.1-0.3,0.1-0.5c0-0.2-0.1-0.3-0.3-0.5c-0.1,0-0.1-0.1-0.1-0.1c-0.1-0.1-0.3-0.1-0.4,0
				c-0.1,0.1-0.3,0.1-0.5,0.2c0,0-0.1,0-0.1,0.1c0,0-0.1,0-0.1,0.1c-0.2,0.1-0.4,0.2-0.7,0.3c-0.2,0.1-0.5,0-0.8-0.2c0,0,0,0,0,0
				c0,0,0,0,0,0c0,0,0,0,0,0c0,0,0,0,0,0c0,0,0,0,0,0c0,0,0,0,0,0c-0.2-0.2-0.3-0.4-0.3-0.6c0-0.2,0.1-0.5,0.2-0.7c0,0,0,0,0,0
				c0,0,0,0,0,0c0,0,0,0,0-0.1c0,0,0,0,0,0c0.2-0.2,0.4-0.3,0.7-0.4c0.3-0.1,0.5,0,0.8,0.2c-0.1,0.1-0.2,0.2-0.3,0.3
				c-0.1-0.1-0.3-0.1-0.5-0.1c-0.2,0-0.3,0.1-0.5,0.3c0,0,0,0,0,0c0,0,0,0,0,0c-0.1,0.1-0.1,0.3-0.1,0.4c0,0.2,0.1,0.3,0.3,0.5
				c0,0,0,0,0,0c0,0,0,0,0,0c0,0,0,0,0,0c0,0,0,0,0,0c0.2,0.1,0.4,0.2,0.6,0.1c0.2-0.1,0.4-0.2,0.6-0.3c0,0,0,0,0,0c0,0,0,0,0,0
				c0.2-0.1,0.4-0.2,0.6-0.3c0.2-0.1,0.5,0,0.7,0.2c0,0,0,0,0,0c0.3,0.2,0.4,0.5,0.5,0.8c0,0.3,0,0.6-0.2,0.8c0,0,0,0,0,0
				c0,0,0,0,0,0c0,0,0,0,0,0c0,0,0,0,0,0c-0.2,0.2-0.4,0.3-0.7,0.4C24,20.5,23.7,20.4,23.3,20.2C23.4,20.2,23.4,20.2,23.3,20.2
				C23.4,20.2,23.4,20.2,23.3,20.2C23.4,20.2,23.4,20.2,23.3,20.2C23.3,20.2,23.3,20.2,23.3,20.2C23.3,20.2,23.3,20.2,23.3,20.2z"/>
			<path class="st1" d="M23.4,15.5c0.9,0.8,1.3,1.1,2.2,1.9c0.2,0.2,0.4,0.3,0.6,0.3c0.2,0,0.3-0.1,0.5-0.3c0.1-0.2,0.2-0.3,0.2-0.5
				c0-0.2-0.1-0.4-0.3-0.6c-0.8-0.8-1.3-1.2-2.1-2c0.1-0.1,0.2-0.2,0.3-0.3c0.9,0.9,1.3,1.3,2.2,2.2c0.3,0.3,0.4,0.5,0.3,0.8
				s-0.2,0.5-0.4,0.7c0,0,0,0-0.1,0.1c-0.2,0.2-0.4,0.3-0.7,0.3c-0.3,0-0.5-0.1-0.9-0.4c-0.9-0.7-1.3-1.1-2.2-1.9
				C23.2,15.7,23.3,15.6,23.4,15.5z"/>
			<path class="st1" d="M29.4,14.7c0,0.3-0.1,0.5-0.3,0.7c0,0,0,0,0,0c0,0,0,0,0,0c-0.2,0.2-0.5,0.2-0.7,0.2
				c-0.3-0.1-0.5-0.2-0.8-0.4c-0.1-0.1-0.3-0.2-0.4-0.3c-0.1-0.1-0.2-0.2-0.3-0.3c0,0,0,0,0,0c0,0,0,0,0-0.1
				c-0.1-0.1-0.1-0.2-0.2-0.3c-0.1-0.1-0.2-0.2-0.2-0.3c-0.2-0.2-0.3-0.5-0.3-0.8c-0.1-0.3,0.1-0.6,0.4-0.8c0.3-0.3,0.6-0.4,0.8-0.4
				c0.3,0,0.5,0.2,0.8,0.5c-0.1,0.1-0.2,0.1-0.3,0.2c-0.2-0.2-0.4-0.3-0.6-0.4c-0.2,0-0.4,0-0.6,0.2c-0.2,0.2-0.3,0.5-0.1,0.8
				c0.2,0.3,0.4,0.7,0.8,1.1c0.1,0.1,0.1,0.1,0.2,0.2c0.1,0.1,0.2,0.2,0.3,0.2c0.2,0.2,0.4,0.3,0.6,0.3c0.2,0.1,0.4,0,0.6-0.1
				c0.2-0.1,0.2-0.3,0.2-0.5c0-0.2-0.1-0.4-0.2-0.6c0,0-0.1-0.1-0.1-0.1c0,0-0.1-0.1-0.1-0.1c0.1-0.1,0.2-0.1,0.3-0.2
				C29.3,14.1,29.4,14.5,29.4,14.7z"/>
			<path class="st1" d="M31.8,12.9c0,0.3-0.1,0.5-0.3,0.7c0,0,0,0,0,0c0,0,0,0,0,0c-0.2,0.2-0.5,0.2-0.8,0.1
				c-0.3-0.1-0.5-0.3-0.7-0.5c-0.1-0.1-0.3-0.3-0.4-0.4c-0.1-0.1-0.2-0.2-0.3-0.3c0,0,0,0,0-0.1c0,0,0,0,0-0.1
				c-0.1-0.1-0.1-0.2-0.2-0.3c-0.1-0.1-0.1-0.2-0.2-0.3c-0.1-0.3-0.2-0.5-0.2-0.8c0-0.3,0.1-0.5,0.4-0.8c0.3-0.2,0.6-0.3,0.9-0.3
				c0.3,0,0.5,0.2,0.8,0.6c-0.1,0.1-0.2,0.1-0.3,0.2c-0.2-0.2-0.3-0.3-0.5-0.4c-0.2-0.1-0.4,0-0.6,0.1c-0.3,0.2-0.3,0.5-0.2,0.8
				c0.1,0.3,0.4,0.7,0.7,1.2c0.1,0.1,0.1,0.2,0.2,0.2c0.1,0.1,0.2,0.2,0.2,0.3c0.2,0.2,0.4,0.3,0.6,0.4c0.2,0.1,0.4,0.1,0.6-0.1
				c0.2-0.1,0.2-0.3,0.2-0.5c0-0.2-0.1-0.4-0.2-0.6c0,0-0.1-0.1-0.1-0.1c0,0-0.1-0.1-0.1-0.1c0.1-0.1,0.2-0.1,0.3-0.2
				C31.8,12.2,31.9,12.6,31.8,12.9z"/>
			<path class="st1" d="M32.5,8.1c0.1,0.1,0.1,0.2,0.2,0.3c-0.5,0.3-0.8,0.4-1.3,0.7c0.3,0.4,0.4,0.7,0.7,1.1
				c0.4-0.3,0.6-0.4,1.1-0.6c0.1,0.1,0.1,0.2,0.2,0.3c-0.4,0.2-0.6,0.4-1.1,0.6c0.3,0.5,0.5,0.8,0.8,1.3c0.4-0.3,0.7-0.4,1.1-0.6
				c0.1,0.1,0.1,0.2,0.2,0.3c-0.6,0.3-0.9,0.5-1.4,0.8c-0.8-1.4-1.3-2-2.1-3.4C31.6,8.6,31.9,8.4,32.5,8.1z"/>
			<path class="st1" d="M34.4,10.3c0.1-0.1,0.2-0.1,0.3-0.1c0.2,0.3,0.4,0.4,0.5,0.5c0.2,0.1,0.3,0.1,0.5,0c0,0,0,0,0.1,0
				c0,0,0,0,0,0c0.1-0.1,0.2-0.2,0.3-0.4c0.1-0.2,0-0.4-0.1-0.6c0-0.1,0-0.1-0.1-0.2c-0.1-0.1-0.2-0.2-0.3-0.3c-0.1,0-0.3,0-0.5,0
				c0,0-0.1,0-0.1,0c0,0-0.1,0-0.1,0c-0.2,0-0.5,0-0.7-0.1c-0.2-0.1-0.4-0.2-0.6-0.6c0,0,0,0,0,0c0,0,0,0,0,0c0,0,0,0,0,0
				c0,0,0,0,0,0c0,0,0,0,0,0c0,0,0,0,0,0c-0.1-0.2-0.1-0.5,0-0.7c0.1-0.2,0.3-0.4,0.5-0.5c0,0,0,0,0,0c0,0,0,0,0,0c0,0,0,0,0.1,0
				c0,0,0,0,0.1,0c0.2-0.1,0.5-0.1,0.7,0c0.2,0.1,0.4,0.2,0.6,0.5c-0.1,0.1-0.2,0.1-0.3,0.1c-0.1-0.2-0.2-0.3-0.4-0.3
				c-0.2-0.1-0.3-0.1-0.5,0c0,0,0,0,0,0c0,0,0,0,0,0c-0.1,0.1-0.2,0.2-0.3,0.3c-0.1,0.1,0,0.3,0,0.5c0,0,0,0,0,0c0,0,0,0,0,0
				c0,0,0,0,0,0c0,0,0,0,0,0c0.1,0.2,0.3,0.4,0.5,0.4c0.2,0,0.4,0,0.6,0c0,0,0,0,0,0c0,0,0,0,0,0c0.2,0,0.5,0,0.7,0.1
				c0.2,0,0.4,0.2,0.5,0.5c0,0,0,0,0,0c0.1,0.3,0.2,0.6,0.1,0.9c-0.1,0.3-0.3,0.5-0.5,0.6c0,0,0,0,0,0c0,0,0,0,0,0c0,0,0,0,0,0
				c0,0,0,0,0,0c-0.2,0.1-0.5,0.1-0.7,0C34.9,10.9,34.7,10.7,34.4,10.3C34.5,10.3,34.5,10.3,34.4,10.3
				C34.5,10.3,34.5,10.3,34.4,10.3C34.5,10.3,34.5,10.3,34.4,10.3C34.4,10.3,34.4,10.3,34.4,10.3C34.4,10.3,34.4,10.3,34.4,10.3z"/>
			<path class="st1" d="M36.9,9.1c0.1,0,0.2-0.1,0.3-0.1c0.2,0.3,0.3,0.5,0.5,0.6c0.2,0.1,0.3,0.1,0.5,0c0,0,0,0,0.1,0
				c0,0,0,0,0.1,0c0.1-0.1,0.2-0.2,0.3-0.3c0.1-0.2,0.1-0.4,0-0.6c0-0.1,0-0.1-0.1-0.2c-0.1-0.1-0.2-0.2-0.3-0.3
				c-0.1,0-0.3-0.1-0.5-0.1c0,0-0.1,0-0.1,0c0,0-0.1,0-0.1,0c-0.2,0-0.5-0.1-0.7-0.1c-0.2-0.1-0.4-0.3-0.5-0.6c0,0,0,0,0,0
				c0,0,0,0,0,0c0,0,0,0,0,0c0,0,0,0,0,0c0,0,0,0,0,0c0,0,0,0,0,0c-0.1-0.3-0.1-0.5,0.1-0.7c0.1-0.2,0.3-0.3,0.5-0.4c0,0,0,0,0,0
				c0,0,0,0,0,0c0,0,0,0,0.1,0c0,0,0,0,0.1,0c0.2-0.1,0.5,0,0.7,0c0.2,0.1,0.4,0.3,0.5,0.6c-0.1,0-0.2,0.1-0.4,0.1
				c-0.1-0.2-0.2-0.3-0.3-0.4c-0.2-0.1-0.3-0.1-0.5-0.1c0,0,0,0,0,0c0,0,0,0,0,0c-0.1,0-0.2,0.1-0.3,0.3s-0.1,0.3,0,0.5c0,0,0,0,0,0
				c0,0,0,0,0,0c0,0,0,0,0,0c0,0,0,0,0,0c0.1,0.2,0.2,0.4,0.4,0.4c0.2,0,0.4,0.1,0.6,0.1c0,0,0,0,0,0c0,0,0,0,0,0
				c0.2,0,0.4,0.1,0.7,0.1c0.2,0.1,0.4,0.2,0.5,0.5c0,0,0,0,0,0c0.1,0.4,0.1,0.7,0,0.9c-0.1,0.3-0.3,0.4-0.5,0.5c0,0,0,0,0,0
				c0,0,0,0,0,0c0,0,0,0,0,0c0,0,0,0,0,0c-0.2,0.1-0.5,0.1-0.7,0C37.3,9.8,37.1,9.6,36.9,9.1C36.9,9.2,36.9,9.2,36.9,9.1
				C36.9,9.2,36.9,9.2,36.9,9.1C36.9,9.2,36.9,9.2,36.9,9.1C36.9,9.2,36.9,9.2,36.9,9.1C36.9,9.2,36.9,9.2,36.9,9.1z"/>
			<path class="st1" d="M38.8,5.5c0.7-0.2,1.1-0.3,1.8-0.5c0,0.1,0,0.2,0.1,0.3c-0.6,0.1-0.9,0.2-1.4,0.4c0.2,0.5,0.2,0.8,0.4,1.3
				c0.5-0.1,0.7-0.2,1.2-0.3c0,0.1,0,0.2,0.1,0.3c-0.5,0.1-0.7,0.2-1.2,0.3c0.2,0.7,0.3,1.1,0.5,1.9c-0.1,0-0.2,0.1-0.4,0.1
				C39.4,7.8,39.2,7,38.8,5.5z"/>
			<path class="st1" d="M41.8,4.8c0.2,1.1,0.3,1.7,0.6,2.8c0.1,0.3,0.2,0.5,0.3,0.6c0.1,0.1,0.3,0.2,0.5,0.1c0.2,0,0.4-0.1,0.5-0.2
				c0.1-0.1,0.1-0.4,0.1-0.7c-0.2-1.2-0.3-1.7-0.4-2.9c0.1,0,0.2,0,0.4-0.1c0.2,1.2,0.3,1.8,0.4,3c0.1,0.4,0,0.7-0.2,0.8
				c-0.2,0.2-0.4,0.3-0.7,0.3c0,0-0.1,0-0.1,0c-0.3,0-0.5,0-0.7-0.2C42.3,8.3,42.1,8,42,7.6c-0.2-1.1-0.4-1.7-0.6-2.8
				C41.6,4.8,41.7,4.8,41.8,4.8z"/>
			<path class="st1" d="M44.7,4.3c0.1,0,0.2,0,0.4,0c0.1,1.5,0.2,2.2,0.4,3.6c0.5-0.1,0.8-0.1,1.3-0.1c0,0.1,0,0.2,0,0.3
				c-0.6,0-1,0.1-1.6,0.1C45,6.7,44.9,5.9,44.7,4.3z"/>
			<path class="st1" d="M51.6,4.3c0.3,1.6,0.4,2.5,0.5,4.1c-0.1,0-0.2,0-0.3,0c0-0.5-0.1-0.8-0.1-1.3c-0.4,0-0.6-0.1-1.1-0.1
				c-0.2,0.5-0.2,0.7-0.4,1.2c-0.1,0-0.2,0-0.3,0c0.5-1.6,0.7-2.4,1.3-3.9C51.4,4.3,51.4,4.3,51.6,4.3z M50.7,6.6
				c0.4,0,0.6,0,0.9,0.1c-0.1-0.8-0.2-1.2-0.3-2.1C51.1,5.4,51,5.8,50.7,6.6z"/>
			<path class="st1" d="M54.3,4.7c0.4,0.1,0.7,0.2,0.8,0.5c0.1,0.2,0.2,0.5,0.1,0.7c0,0,0,0,0,0.1c0,0,0,0,0,0
				c-0.1,0.3-0.3,0.5-0.5,0.6c-0.2,0.2-0.5,0.2-0.9,0.2c-0.2,0-0.3,0-0.5-0.1c-0.1,0.7-0.2,1.1-0.3,1.8c-0.1,0-0.2,0-0.3-0.1
				c0.2-1.6,0.4-2.4,0.6-4C53.8,4.6,54,4.6,54.3,4.7z M53.5,6.4c0.2,0,0.3,0.1,0.6,0.1c0.2,0,0.4,0,0.6-0.1c0.2-0.1,0.3-0.3,0.3-0.5
				c0,0,0,0,0,0c0,0,0,0,0,0c0,0,0,0,0,0c0,0,0,0,0,0c0-0.2,0-0.4-0.1-0.5C54.8,5.1,54.6,5,54.4,5c-0.2,0-0.4-0.1-0.6-0.1
				C53.6,5.5,53.6,5.8,53.5,6.4z"/>
			<path class="st1" d="M57.2,5.3c0.4,0.1,0.7,0.3,0.8,0.6c0.1,0.3,0.1,0.5,0.1,0.8c0,0,0,0,0,0.1c0,0,0,0,0,0
				c-0.1,0.2-0.3,0.4-0.6,0.6c-0.3,0.2-0.6,0.2-0.9,0.1c-0.2-0.1-0.3-0.1-0.5-0.1c-0.2,0.7-0.3,1-0.5,1.7c-0.1,0-0.2,0-0.3-0.1
				c0.4-1.6,0.6-2.3,1-3.9C56.6,5.2,56.8,5.2,57.2,5.3z M56.2,7c0.2,0.1,0.3,0.1,0.5,0.1c0.2,0.1,0.4,0,0.6-0.1
				c0.2-0.1,0.3-0.3,0.4-0.4c0,0,0,0,0,0c0,0,0,0,0,0c0,0,0,0,0,0c0,0,0,0,0,0c0-0.2,0-0.4-0.1-0.5c-0.1-0.2-0.2-0.3-0.5-0.4
				c-0.2-0.1-0.4-0.1-0.6-0.2C56.4,6.1,56.3,6.4,56.2,7z"/>
			<path class="st1" d="M59.1,5.9C59.2,6,59.3,6,59.4,6c-0.5,1.4-0.7,2.1-1.2,3.5c0.5,0.2,0.7,0.3,1.2,0.5c-0.1,0.1-0.1,0.2-0.1,0.3
				c-0.6-0.2-0.9-0.4-1.5-0.6C58.3,8.2,58.6,7.4,59.1,5.9z"/>
			<path class="st1" d="M62,7.1c-0.7,1.5-1,2.2-1.7,3.6c-0.1-0.1-0.2-0.1-0.3-0.1c0.6-1.5,1-2.2,1.6-3.7C61.8,7,61.9,7,62,7.1z"/>
			<path class="st1" d="M62.8,11.7c-0.3,0.1-0.5,0.1-0.7,0c0,0,0,0-0.1,0c0,0,0,0-0.1,0c-0.2-0.1-0.4-0.4-0.4-0.6
				c0-0.3,0-0.6,0.1-0.8c0.1-0.2,0.1-0.3,0.2-0.5s0.1-0.3,0.2-0.4c0,0,0,0,0-0.1c0,0,0,0,0-0.1c0-0.1,0.1-0.2,0.2-0.3
				c0.1-0.1,0.1-0.2,0.2-0.3c0.2-0.2,0.4-0.4,0.6-0.6c0.2-0.1,0.5-0.1,0.9,0c0.3,0.2,0.5,0.4,0.6,0.6c0.1,0.3,0,0.6-0.2,0.9
				c-0.1-0.1-0.2-0.1-0.3-0.2c0.1-0.2,0.2-0.5,0.1-0.7c0-0.2-0.1-0.4-0.4-0.5c-0.3-0.2-0.6-0.1-0.8,0.2c-0.2,0.3-0.5,0.7-0.7,1.1
				c0,0.1-0.1,0.2-0.1,0.3c0,0.1-0.1,0.2-0.1,0.3C62,10.5,62,10.7,62,10.9c0,0.2,0.1,0.4,0.3,0.5c0.2,0.1,0.3,0.1,0.5,0
				c0.2-0.1,0.3-0.3,0.5-0.4c0,0,0.1-0.1,0.1-0.1c0,0,0.1-0.1,0.1-0.1c0.1,0.1,0.2,0.1,0.3,0.2C63.4,11.4,63.1,11.6,62.8,11.7z"/>
			<path class="st1" d="M66.9,9.8c-0.5,1.6-0.8,2.4-1.5,3.9c-0.1-0.1-0.2-0.1-0.3-0.2c0.2-0.5,0.3-0.7,0.5-1.2
				c-0.4-0.3-0.6-0.4-0.9-0.6c-0.4,0.4-0.6,0.5-0.9,0.9c-0.1-0.1-0.2-0.1-0.3-0.2c1.2-1.2,1.8-1.7,3-2.8C66.7,9.7,66.8,9.8,66.9,9.8
				z M65,11.5c0.3,0.2,0.5,0.3,0.8,0.5c0.3-0.8,0.4-1.2,0.7-2C65.9,10.6,65.6,10.9,65,11.5z"/>
			<path class="st1" d="M70,12.2c-0.1,0.1-0.1,0.2-0.2,0.3c-0.3-0.3-0.4-0.4-0.7-0.6c-0.9,1.1-1.4,1.7-2.3,2.8
				c-0.1-0.1-0.2-0.1-0.3-0.2c0.9-1.1,1.4-1.7,2.3-2.8c-0.3-0.2-0.4-0.4-0.7-0.6c0.1-0.1,0.1-0.2,0.2-0.3
				C68.9,11.3,69.3,11.6,70,12.2z"/>
			<path class="st1" d="M70.9,13.1c-1.1,1.2-1.6,1.7-2.7,2.9c-0.1-0.1-0.2-0.1-0.3-0.2c1.1-1.2,1.6-1.8,2.7-2.9
				C70.8,12.9,70.8,13,70.9,13.1z"/>
			<path class="st1" d="M72.6,14.7c0.3,0.4,0.4,0.8,0.2,1.2c-0.2,0.4-0.5,0.7-1,1.1c-0.1,0.1-0.2,0.2-0.3,0.2
				c-0.1,0.1-0.2,0.2-0.3,0.2c-0.3,0.2-0.6,0.3-0.9,0.4c-0.3,0.1-0.6-0.1-0.9-0.4c-0.3-0.3-0.3-0.6-0.2-0.9c0.1-0.3,0.3-0.6,0.5-0.9
				c0.1-0.1,0.2-0.2,0.3-0.3c0.1-0.1,0.2-0.2,0.3-0.3c0,0,0,0,0,0c0,0,0,0,0-0.1c0,0,0,0,0.1-0.1c0,0,0,0,0.1-0.1
				c0.1-0.1,0.1-0.1,0.2-0.2c0.1-0.1,0.2-0.1,0.3-0.2c0.2-0.2,0.5-0.2,0.8-0.3C72,14.3,72.3,14.4,72.6,14.7
				C72.6,14.7,72.6,14.7,72.6,14.7z M72.4,14.9c-0.3-0.3-0.6-0.3-0.9-0.2c-0.3,0.2-0.6,0.4-1,0.7c-0.1,0.1-0.2,0.2-0.2,0.2
				c-0.1,0.1-0.2,0.2-0.2,0.3c-0.2,0.2-0.3,0.4-0.4,0.7c-0.1,0.2-0.1,0.4,0.1,0.6c0,0,0,0,0,0c0,0,0,0,0,0c0.1,0.2,0.4,0.3,0.6,0.2
				c0.2-0.1,0.5-0.2,0.7-0.3c0.1-0.1,0.2-0.1,0.3-0.2c0.1-0.1,0.2-0.1,0.2-0.2c0.1-0.1,0.1-0.1,0.2-0.2c0.1-0.1,0.1-0.1,0.2-0.2
				c0.1-0.1,0.2-0.2,0.2-0.3c0.1-0.2,0.2-0.4,0.3-0.6C72.6,15.4,72.6,15.2,72.4,14.9C72.4,14.9,72.4,14.9,72.4,14.9z"/>
			<path class="st1" d="M74.1,16.5c0.1,0.2,0.2,0.2,0.3,0.4c-0.4,0.8-0.6,1.1-1,1.9c-0.3,0.6-0.5,0.8-0.9,1.4c1.1-0.8,1.7-1.2,2.8-2
				c0.1,0.1,0.1,0.2,0.2,0.3c-1.3,0.9-2,1.3-3.3,2.2c-0.1-0.1-0.1-0.2-0.2-0.3c0.8-1.3,1.2-1.9,1.9-3.3c-1.1,0.8-1.6,1.3-2.7,2.1
				c-0.1-0.1-0.1-0.2-0.2-0.3C72.2,18,72.9,17.5,74.1,16.5z"/>
		</g>
	</g>
</g>
</svg>
