<?xml version="1.0" encoding="utf-8"?>
<!-- Generator: Adobe Illustrator 21.0.0, SVG Export Plug-In . SVG Version: 6.00 Build 0)  -->
<svg version="1.1" id="图层_1" xmlns="http://www.w3.org/2000/svg" xmlns:xlink="http://www.w3.org/1999/xlink" x="0px" y="0px"
	 viewBox="0 0 96 84.5" style="enable-background:new 0 0 96 84.5;" xml:space="preserve">
<style type="text/css">
	.st0{fill:#5484AF;}
</style>
<title>sqilPic03</title>
<path class="st0" d="M6.9,38.9l-1-0.1C7.8,15.5,28.2-1.8,51.4,0.1c20.6,1.7,37,18,38.7,38.7l-1,0.1C87.2,16.2,67.3-0.7,44.6,1.1
	C24.5,2.8,8.5,18.8,6.9,38.9L6.9,38.9z"/>
<path class="st0" d="M13.9,39.1l-1-0.1c0-0.2,0-0.3,0-0.5l1,0.1C13.9,38.8,13.9,38.9,13.9,39.1z"/>
<path class="st0" d="M14.1,37.6l-1-0.1c0.1-1.1,0.3-2.2,0.6-3.2l1,0.2C14.4,35.5,14.2,36.5,14.1,37.6z M14.7,33.9l-1-0.2
	c0.1-0.4,0.2-0.7,0.3-1l1,0.3C14.9,33.3,14.8,33.6,14.7,33.9z"/>
<path class="st0" d="M15.9,29.9L15,29.6l0.2-0.5l0.9,0.4L15.9,29.9z M16.5,28.4l-0.9-0.4c0.4-1,0.9-2,1.4-2.9l0.9,0.5
	C17.4,26.5,17,27.5,16.5,28.4z M18.2,25.1l-0.9-0.5c0.2-0.3,0.4-0.6,0.5-0.9l0.9,0.5C18.5,24.5,18.3,24.8,18.2,25.1L18.2,25.1z"/>
<path class="st0" d="M82,39.1c0-0.2,0-0.3,0-0.5l1-0.1c0,0.2,0,0.3,0,0.5L82,39.1z"/>
<path class="st0" d="M81.8,37.6c-0.1-1-0.3-2.1-0.5-3.1l1-0.2c0.2,1,0.4,2.1,0.6,3.2L81.8,37.6z M81.2,33.9c-0.1-0.3-0.2-0.7-0.3-1
	l1-0.3c0.1,0.3,0.2,0.7,0.3,1L81.2,33.9z"/>
<path class="st0" d="M79.9,29.9l-0.2-0.5l0.9-0.4l0.2,0.5L79.9,29.9z M79.3,28.4c-0.4-1-0.9-1.9-1.4-2.8l0.9-0.5
	c0.5,1,1,1.9,1.4,2.9L79.3,28.4z M77.7,25.1c-0.2-0.3-0.3-0.6-0.5-0.9l0.8-0.5c0.2,0.3,0.4,0.6,0.6,0.9L77.7,25.1z"/>
<path class="st0" d="M48,84.5c-16.5,0-31.5-9.7-38.4-24.7l0.9-0.4c9.5,20.7,34,29.9,54.7,20.4c9-4.1,16.3-11.4,20.4-20.4l0.9,0.4
	C79.5,74.8,64.5,84.5,48,84.5z"/>
<path class="st0" d="M79.9,59.6c-9.3,17.6-31.2,24.3-48.8,15c-0.6-0.3-1.2-0.6-1.7-1c-5.6-3.4-10.2-8.2-13.2-14
	C19.3,65.2,24,70,29.6,73.3c5.6,3.3,12,5,18.4,5c3.2,0,6.4-0.4,9.5-1.3c6.2-1.7,11.9-5.1,16.5-9.7C76.3,65,78.3,62.4,79.9,59.6z"/>
<path class="st0" d="M96,60.1H0l5.2-10.9L0,38.3h96l-5.2,10.9L96,60.1z M1.6,59.1h92.8l-4.7-9.9l4.7-9.9H1.6l4.7,9.9L1.6,59.1z"/>
<path class="st0" d="M54.4,36.4h-0.2l-13.4-3.8c-0.3-0.1-0.6-0.4-0.5-0.8c0-0.5,0.1-0.9,0.2-1.4c0.8-2.8,1.7-3,3.4-3.2
	c0.6-0.1,1.1-0.2,1.7-0.3c0.2-0.1,0.5-0.1,0.8-0.1c0.3,0,0.5-0.1,0.7-0.2c0.4-0.4,0.4-0.9,0.1-1.4c-1-1.3-1.2-3-0.5-4.5
	c0.8-1.9,2.8-3,4.9-2.7h0.1l0.9,0.3h0.1c1.9,0.8,3,2.8,2.8,4.8c-0.2,1.6-1.3,3-2.8,3.6c-0.5,0.2-0.8,0.7-0.6,1.2
	c0.1,0.2,0.2,0.3,0.5,0.5c0.2,0.2,0.4,0.4,0.6,0.6c0.4,0.4,0.8,0.8,1.3,1.1c1.3,1.1,2,1.8,1.2,4.5c-0.1,0.5-0.3,0.9-0.5,1.3
	C54.9,36.2,54.6,36.4,54.4,36.4z M41.8,31.3l12.1,3.4c0.1-0.2,0.1-0.3,0.2-0.5c0.6-2,0.3-2.2-0.7-3c-0.5-0.4-1-0.8-1.4-1.3
	c-0.1-0.1-0.3-0.3-0.5-0.4c-0.4-0.3-0.7-0.7-1-1.2c-0.4-1.2,0.2-2.6,1.5-3.1c1.6-0.6,2.4-2.3,1.8-3.8c-0.3-0.8-0.9-1.5-1.7-1.8
	l-0.9-0.2c-1.4-0.2-2.7,0.5-3.2,1.8c-0.4,1-0.3,2.1,0.4,3c0.9,1.1,0.7,2.6-0.4,3.5c-0.4,0.3-0.9,0.5-1.4,0.5c-0.2,0-0.4,0.1-0.6,0.1
	c-0.6,0.1-1.3,0.3-1.9,0.3c-1.3,0.1-1.6,0.2-2.2,2.2C41.9,31,41.8,31.2,41.8,31.3z"/>
<path class="st0" d="M49.9,32.9c-0.1,0-0.1,0-0.2,0l-8-2.2c-0.4-0.2-0.6-0.6-0.4-1c0.1-0.3,0.5-0.5,0.8-0.4l8,2.2
	c0.4,0.1,0.6,0.6,0.5,0.9C50.5,32.7,50.2,32.9,49.9,32.9L49.9,32.9z"/>
<path class="st0" d="M54.7,34.3c-0.1,0-0.1,0-0.2,0l-3.5-1c-0.4-0.2-0.6-0.6-0.4-1c0.1-0.3,0.5-0.5,0.8-0.4l3.5,1
	c0.4,0.1,0.6,0.6,0.5,0.9C55.3,34.1,55,34.3,54.7,34.3L54.7,34.3z"/>
<path class="st0" d="M45.3,72.1c-0.3,0-0.5-0.2-0.5-0.5c0-0.1,0.1-0.3,0.1-0.3l7-7c0.2-0.2,0.5-0.1,0.7,0.1c0.1,0.2,0.1,0.4,0,0.6
	l-7,7C45.6,72.1,45.5,72.1,45.3,72.1z"/>
<path class="st0" d="M52.5,72c-0.1,0-0.2,0-0.3-0.1l-7.3-6.7c-0.2-0.2-0.2-0.5-0.1-0.7c0.2-0.2,0.5-0.2,0.7-0.1c0,0,0,0,0,0l7.3,6.7
	c0.2,0.2,0.2,0.5,0,0.7C52.8,71.9,52.7,72,52.5,72L52.5,72z"/>
<path class="st0" d="M56.4,72.3c-0.3,0-0.5-0.2-0.5-0.5c0-0.1,0.1-0.3,0.1-0.4l3.4-3.3c0.2-0.2,0.5-0.3,0.7-0.1
	c0.2,0.2,0.3,0.5,0.1,0.7c0,0-0.1,0.1-0.1,0.1l-3.4,3.3C56.6,72.3,56.5,72.3,56.4,72.3z"/>
<path class="st0" d="M59.7,72.4c-0.1,0-0.3-0.1-0.3-0.2L56,68.9c-0.2-0.2-0.3-0.5-0.1-0.7s0.5-0.3,0.7-0.1c0,0,0.1,0.1,0.1,0.1
	l3.3,3.4c0.2,0.2,0.2,0.5,0,0.7C59.9,72.3,59.8,72.4,59.7,72.4L59.7,72.4z"/>
<path class="st0" d="M38,72.3c-0.3,0-0.5-0.2-0.5-0.5c0-0.1,0.1-0.3,0.1-0.3l3.3-3.3c0.2-0.2,0.5-0.3,0.7-0.1
	c0.2,0.2,0.3,0.5,0.1,0.7c0,0-0.1,0.1-0.1,0.1l-3.4,3.3C38.2,72.3,38.1,72.3,38,72.3z"/>
<path class="st0" d="M41.3,72.4c-0.1,0-0.3-0.1-0.3-0.2l-3.3-3.4c-0.2-0.2-0.1-0.5,0.1-0.7c0.2-0.1,0.4-0.1,0.6,0l3.3,3.4
	c0.2,0.2,0.2,0.5,0,0.7C41.6,72.3,41.4,72.4,41.3,72.4z"/>
<g>
	<path class="st0" d="M35.9,49.8c0.8,0.4,1.6,0.6,2.2,0.8c0,0.2-0.1,0.5-0.2,0.9c-0.2,0.7-0.3,1.3-0.4,1.7c-0.2,1.1-1.2,1.7-3,1.7
		h-6.1c-2,0-3-1-3-3v-6h2.1v1.4h6.9v-3H25v-2h11.4v6.9h-8.9v2.5c0,0.9,0.5,1.4,1.4,1.4h5.3c0.9,0,1.5-0.4,1.5-0.9
		c0-0.3,0.1-0.7,0.2-1.4C35.8,50.3,35.9,50,35.9,49.8z"/>
	<path class="st0" d="M39.3,46v-1.6h1.1v-2.8h1.6v2.8h0.8V46h-0.8v2.1c0.3-0.1,0.6-0.1,0.8-0.2c0,0.1,0,0.3,0,0.6c0,0.5,0,0.9,0,1.1
		c-0.1,0-0.2,0-0.3,0.1c-0.2,0.1-0.4,0.1-0.5,0.1v3.8c0,0.9-0.3,1.4-1,1.5c-0.2,0-0.4,0-0.7,0c-0.3,0-0.6,0.1-0.8,0.1
		c-0.1-0.6-0.2-1.2-0.3-1.7c0.2,0,0.5,0,0.8,0c0.3,0,0.4-0.2,0.4-0.6v-2.7c-0.2,0.1-0.5,0.1-0.9,0.2c-0.1,0-0.1,0.1-0.2,0.1
		l-0.1-1.8c0.4-0.1,0.7-0.1,1.1-0.2V46H39.3z M42.8,44.4V43h2c0-0.2-0.1-0.5-0.2-0.8c0-0.1-0.1-0.2-0.1-0.3l1.7-0.4
		c0.2,0.6,0.3,1.1,0.4,1.5h1.8v1.4H46c-0.3,0.3-0.6,0.7-0.9,1.2c-0.2,0.1-0.3,0.2-0.3,0.3c0.4,0,1,0,1.8-0.1
		c-0.2-0.3-0.3-0.6-0.5-0.8l1.1-0.6c0.2,0.2,0.4,0.4,0.6,0.8c0.3,0.4,0.5,0.6,0.6,0.8c0.5-1.2,1-2.7,1.4-4.5l1.7,0.4
		c-0.2,0.7-0.4,1.4-0.6,2.1h2.4v1.7h-0.5c-0.1,2.2-0.5,4.2-1.2,6c0.4,0.7,1,1.3,1.7,1.8c-0.4,0.7-0.7,1.4-0.8,1.9
		c-0.7-0.6-1.3-1.2-1.8-2c-0.5,0.7-1.1,1.3-1.8,2c-0.1-0.3-0.3-0.7-0.6-1.2c-0.1-0.2-0.1-0.3-0.2-0.4c0,0.8-0.4,1.3-1.2,1.4
		c-0.4,0-0.9,0.1-1.6,0.1c-0.1-0.5-0.3-1-0.4-1.4c0.5,0,0.9,0,1.2,0c0.3,0,0.4-0.2,0.4-0.6V53h-1.8v2.2h-1.5v-7.5h4.9v5.8
		c0.7-0.6,1.2-1.2,1.6-2c-0.4-1.1-0.6-2.3-0.8-3.6c-0.1,0.2-0.2,0.3-0.4,0.5c0-0.2-0.2-0.5-0.4-0.9c-0.1-0.2-0.2-0.4-0.2-0.5
		c-0.2,0.1-0.4,0.2-0.5,0.4c-0.1-0.1-0.1-0.2-0.2-0.3l-0.1-0.1c-0.6,0-1.5,0.1-2.5,0.1c-0.8,0.1-1.3,0.1-1.6,0.1L42.8,46
		c0.5-0.6,0.9-1.1,1.3-1.6H42.8z M46.5,49.9v-0.7h-1.8v0.7H46.5z M44.7,51.1v0.7h1.8v-0.7H44.7z M50.6,49.5c0.4-1.1,0.6-2.4,0.6-3.8
		h-1.1L50,45.8C50.1,47.2,50.3,48.5,50.6,49.5z"/>
	<path class="st0" d="M59.3,43.3v1.6h-2.5c0,0.2-0.1,0.4-0.3,0.7c0,0.2-0.1,0.3-0.1,0.4H59v1.6h-1.4v1.4H59v1.6h-1.4v2.1
		c0.4-0.2,0.8-0.5,1.2-0.8c0,0.6,0.1,1.2,0.2,1.9c-0.8,0.4-1.4,0.8-2,1.1c-0.3,0.2-0.5,0.4-0.7,0.6l-1-1.4c0.3-0.3,0.4-0.7,0.4-1.1
		v-2.4h-1.5v-1.6h1.5v-1.4h-0.4c0,0-0.1,0.1-0.1,0.2c-0.2,0.4-0.4,0.6-0.5,0.7c-0.2-0.8-0.3-1.6-0.5-2.2c0.8-1.4,1.4-2.9,1.7-4.6
		l1.8,0.4c0,0.1-0.1,0.3-0.2,0.6c-0.1,0.4-0.2,0.6-0.3,0.8H59.3z M59.3,42.9l1.2-1.1c0.4,0.4,0.9,1,1.8,2c-0.6-0.7-0.5-0.6,0.2,0.2
		l-1.4,1.1C60.5,44.3,59.9,43.6,59.3,42.9z M62.9,45.4v-3.8h1.8v3.8h3.1v7.8c0,1.1-0.5,1.8-1.5,1.9c-0.1,0-0.3,0-0.7,0
		c-0.8,0-1.4,0.1-1.9,0.1c-0.1-0.6-0.2-1.2-0.5-1.8c0.7,0,1.3,0,1.8,0c0.6,0,0.9-0.3,0.8-0.8v-0.3h-4.4v2.8h-1.9v-9.8H62.9z
		 M65.9,48.2v-1.1h-4.4v1.1H65.9z M61.5,49.7v1.1h4.4v-1.1H61.5z M66.8,41.9l1.4,1c-0.6,0.8-1.3,1.5-2,2.3l-1.2-1
		C65.7,43.4,66.3,42.6,66.8,41.9z"/>
</g>
<g>
	<path class="st0" d="M18.3,19.3c-0.5,0.7-0.4,1.3,0,1.6c0.4,0.3,0.9,0.1,1.6-0.6c1.1-1.1,1.9-1.4,2.6-0.8c0.7,0.6,0.8,1.4,0.1,2.5
		c-0.7,1.1-1.6,1.5-2.7,1.1l0.2-0.6c0.9,0.4,1.6,0.2,2.1-0.7c0.5-0.8,0.4-1.3-0.1-1.7c-0.4-0.4-1-0.1-1.8,0.7c-1,1-1.8,1.3-2.4,0.8
		c-0.7-0.6-0.8-1.4-0.2-2.4c0.7-1,1.5-1.3,2.4-0.9L20,18.8C19.3,18.5,18.7,18.7,18.3,19.3z"/>
	<path class="st0" d="M23,15.1l0.4-0.4l2.9,2.7l-0.4,0.4l-0.4-0.4c0.1,0.5,0,1-0.4,1.4c-0.6,0.7-1.3,0.7-2,0l-1.9-1.7l0.4-0.4
		l1.9,1.7c0.5,0.5,1,0.5,1.4,0c0.4-0.6,0.4-1.1,0-1.6L23,15.1z"/>
	<path class="st0" d="M28.2,17.5l-0.4,0.4l-3.5-4.1l0.4-0.4l0.4,0.5c-0.1-0.5,0.1-1,0.5-1.3c0.9-0.7,1.7-0.5,2.7,0.5
		c0.8,1,0.9,1.8,0.1,2.5c-0.5,0.4-0.9,0.5-1.4,0.4L28.2,17.5z M25.8,14.6l0.4,0.5c0.6,0.7,1.2,0.8,1.8,0.3c0.6-0.5,0.5-1.1-0.2-2
		c-0.7-0.8-1.4-0.9-2-0.5C25.4,13.5,25.3,14,25.8,14.6z"/>
	<path class="st0" d="M31.2,15.1l-0.5,0.3l-2.9-4.5l0.5-0.3l0.3,0.5c0-0.6,0.2-1,0.6-1.2c0.9-0.5,1.8-0.2,2.6,0.9
		c0.7,1.1,0.6,1.9-0.2,2.5c-0.5,0.4-1,0.4-1.5,0.2L31.2,15.1z M29.2,11.9l0.3,0.5c0.5,0.8,1.1,0.9,1.7,0.5c0.6-0.4,0.7-1.1,0.1-2
		c-0.6-0.9-1.2-1.1-1.9-0.7C28.9,10.8,28.8,11.3,29.2,11.9z"/>
	<path class="st0" d="M34.9,11.5c-1.1,0.4-1.9,0.1-2.5-1c-0.6-1.3-0.3-2.2,0.8-2.8c1.1-0.4,1.9-0.1,2.5,1.1
		C36.2,10.1,36,11,34.9,11.5z M33.3,8.1c-0.8,0.4-0.9,1.1-0.4,2.1c0.5,0.9,1.1,1.2,1.8,0.9c0.7-0.4,0.8-1,0.4-2
		C34.6,8.2,34,7.9,33.3,8.1z"/>
	<path class="st0" d="M37.4,6.6c-0.2,0.1-0.4,0.3-0.5,0.6c-0.1,0.2-0.1,0.6,0.1,1l0.7,2l-0.5,0.2l-1.3-3.8l0.5-0.2l0.2,0.7l0,0
		c0-0.5,0.2-0.9,0.6-1.1C37.5,6,37.7,6,38,6l-0.1,0.6C37.7,6.6,37.5,6.6,37.4,6.6z"/>
	<path class="st0" d="M40.9,8.9L41,9.2c-0.2,0.1-0.3,0.2-0.6,0.3c-0.5,0.2-0.9-0.1-1-0.6l-0.7-2.6l-0.5,0.1l-0.1-0.5l0.5-0.1l-0.3-1
		l0.5-0.4l0.3,1.3l0.7-0.2l0.1,0.5l-0.7,0.2L40,8.7C40.1,9,40.3,9.1,40.6,9C40.7,9,40.8,9,40.9,8.9z"/>
	<path class="st0" d="M44.5,5.1c-0.8,0.1-1.1,0.7-1,1.7c0.1,1.1,0.5,1.5,1.3,1.5c0.6-0.1,0.9-0.4,0.9-1.1l0.6,0.1
		c-0.1,1-0.6,1.5-1.5,1.5c-1.2,0.1-1.8-0.5-2-1.9c-0.1-1.3,0.4-2.1,1.5-2.3c0.9-0.1,1.5,0.3,1.7,1l-0.6,0.2
		C45.4,5.3,45.1,5.1,44.5,5.1z"/>
	<path class="st0" d="M47.5,5.7l-0.6-0.2c0.2-0.8,0.8-1.2,1.8-1.1c1.1,0,1.6,0.5,1.5,1.6l0,1.6c0,0.4,0,0.7,0.2,0.9l-0.6,0
		c-0.1-0.1-0.2-0.3-0.2-0.6c-0.3,0.4-0.9,0.6-1.6,0.6c-0.8-0.1-1.3-0.4-1.3-1.1c0-0.8,0.5-1.2,1.5-1.2C49,6.2,49.5,6.1,49.7,6
		c0.1-0.7-0.2-1.1-1-1.1C48,4.9,47.6,5.2,47.5,5.7z M49.6,7l0-0.5c-0.1,0.1-0.5,0.2-1.2,0.3c-0.7,0.1-1.1,0.3-1.1,0.7
		c0,0.4,0.3,0.6,0.9,0.6C49.1,8.1,49.5,7.7,49.6,7z"/>
	<path class="st0" d="M54.7,6.6l-0.4,2.5l-0.6-0.1l0.4-2.4c0.1-0.7-0.1-1.1-0.7-1.3c-0.7,0-1.2,0.3-1.3,0.9l-0.4,2.4L51,8.7l0.6-3.9
		l0.6,0.1l-0.1,0.6C52.5,5,53,4.8,53.5,4.9C54.4,5.1,54.8,5.6,54.7,6.6z"/>
	<path class="st0" d="M57.6,6.4c-0.8-0.2-1.3,0.2-1.6,1.2c-0.3,1-0.1,1.6,0.7,1.9c0.6,0.2,1-0.1,1.3-0.7l0.5,0.3
		c-0.4,0.9-1.1,1.1-2,0.8c-1.1-0.4-1.5-1.2-1.1-2.5c0.4-1.3,1.2-1.8,2.3-1.5c0.8,0.3,1.2,0.8,1.2,1.6l-0.6,0
		C58.3,7,58.1,6.6,57.6,6.4z"/>
	<path class="st0" d="M61.6,10.5l0.5,0.4c-0.5,0.6-1.2,0.8-2.1,0.4c-1.1-0.5-1.4-1.4-0.9-2.6c0.6-1.2,1.5-1.6,2.6-1.2
		c1.1,0.5,1.3,1.4,0.8,2.7c0,0.1,0,0.1-0.1,0.1L59.7,9c-0.3,0.8-0.1,1.4,0.5,1.8C60.8,11,61.3,10.9,61.6,10.5z M59.9,8.5l2.2,1
		c0.3-0.7,0.1-1.3-0.6-1.6C60.8,7.7,60.3,7.9,59.9,8.5z"/>
	<path class="st0" d="M65,7.5l0.5,0.3l-2.7,4.7l-0.5-0.3L65,7.5z"/>
	<path class="st0" d="M66.5,8.3L67,8.7l-2.9,4.6L63.6,13L66.5,8.3z"/>
	<path class="st0" d="M66.9,11.9l-0.4-0.5c0.7-0.5,1.4-0.5,2.1,0.1c0.9,0.6,1,1.4,0.3,2.2L68,15c-0.3,0.3-0.4,0.6-0.4,0.9l-0.5-0.3
		c0-0.2,0-0.4,0.2-0.6c-0.5,0.1-1.1,0-1.6-0.4c-0.6-0.5-0.8-1.1-0.4-1.6c0.5-0.6,1.1-0.6,1.9-0.1c0.7,0.4,1.1,0.6,1.3,0.6
		c0.5-0.5,0.4-1-0.1-1.4C67.8,11.5,67.3,11.4,66.9,11.9z M67.9,14.1l0.3-0.4c-0.1,0.1-0.5-0.1-1.1-0.5c-0.6-0.4-1.1-0.4-1.3,0
		c-0.2,0.3-0.1,0.7,0.4,1C66.8,14.7,67.4,14.6,67.9,14.1z"/>
	<path class="st0" d="M69.3,17.1l-0.1,0.3c-0.2-0.1-0.4-0.2-0.5-0.3c-0.4-0.4-0.4-0.8,0-1.2l1.8-2l-0.4-0.4l0.3-0.4l0.4,0.4l0.7-0.8
		l0.6,0.2l-0.9,1l0.5,0.5l-0.3,0.4L71,14.3l-1.8,2c-0.3,0.2-0.3,0.5,0,0.7C69.2,16.9,69.3,17,69.3,17.1z"/>
	<path class="st0" d="M72.4,15l0.4,0.4l-2.9,2.7l-0.4-0.4L72.4,15z M73.5,14l0.4,0.4l-0.5,0.5l-0.4-0.4L73.5,14z"/>
	<path class="st0" d="M71.4,20.1c-0.7-1-0.5-1.9,0.4-2.7c1.1-0.8,2.1-0.8,2.9,0.2c0.7,0.9,0.5,1.8-0.5,2.7
		C73.1,21.1,72.2,21,71.4,20.1z M74.4,17.8c-0.5-0.6-1.2-0.6-2.1,0c-0.8,0.6-0.9,1.3-0.5,2c0.5,0.6,1.2,0.6,2-0.1
		C74.6,19.1,74.8,18.5,74.4,17.8z"/>
	<path class="st0" d="M76.8,23.5l-2.2,1.3l-0.3-0.5l2.1-1.3c0.6-0.4,0.8-0.8,0.5-1.4c-0.4-0.6-1-0.7-1.6-0.4l-2.1,1.2L73,22l3.4-2
		l0.3,0.5l-0.5,0.3c0.5,0,1,0.3,1.3,0.8C77.9,22.3,77.7,23,76.8,23.5z"/>
</g>
</svg>
